<?xml version="1.0" encoding="utf-8"?>
<!-- Generator: Adobe Illustrator 26.5.3, SVG Export Plug-In . SVG Version: 6.00 Build 0)  -->
<svg version="1.1" id="レイヤー_1" xmlns="http://www.w3.org/2000/svg" xmlns:xlink="http://www.w3.org/1999/xlink" x="0px"
	 y="0px" viewBox="0 0 200 200" style="enable-background:new 0 0 200 200;" xml:space="preserve">
<style type="text/css">
	.st0{fill-rule:evenodd;clip-rule:evenodd;fill:#4A5565;}
</style>
<path class="st0" d="M187.8,110.1l-0.1,4.2L147,126.1l-2.4-5.2c-1.3-2.7-6.7-1.2-5.5,2.9c1.7,5.8,4.3,10.2,6.8,14.8
	c13.6,25.1,61.6,17.2,48-21.7l-0.1-7.4c3.6-1.6,6.2-5.2,6.2-9.4c0-5.7-4.6-10.3-10.3-10.3h-0.4l4.4-1.9l-19.9-51.5
	c-6.2-19.2-12.8-21.7-23.5-14.2L94.2,75.7l-1.4-1.4H80.5c-3.7,0-6.8,3.1-6.8,6.8v13.6H54.9v-1.3c0-2.4-2-4.4-4.4-4.4H25.6
	c-2.4,0-4.4,2-4.4,4.4v1.3h-6.9c-4.7,0-8.5,3.8-8.5,8.5v23c0,4.7,3.8,8.5,8.5,8.5h89.9c4.7,0,8.5-3.8,8.5-8.5V94.4l-3-3l45.5-48.1
	l23.1,51.1l4.3-1.8c-2,1.9-3.2,4.5-3.2,7.4C179.4,105,183,109.2,187.8,110.1z M22.1,138.2h74c12.2,0,22.1,9.9,22.1,22.1
	c0,12.2-9.9,22.1-22.1,22.1h-74c-12.2,0-22.1-10-22.1-22.1C0,148.1,9.9,138.2,22.1,138.2z M28.4,158.3c0.3,0,0.5,0.9,0.5,2
	c0,1.1-0.2,2-0.5,2h-1.8v1.8c0,0.3-0.9,0.5-2,0.5c-1.1,0-2-0.2-2-0.5v-1.8h-1.8c-0.3,0-0.5-0.9-0.5-2c0-1.1,0.2-2,0.5-2h1.8v-1.8
	c0-0.3,0.9-0.5,2-0.5c1.1,0,2,0.2,2,0.5v1.8H28.4z M91.8,156.5c0-0.3,0.9-0.5,2-0.5s2,0.2,2,0.5v1.8h1.8c0.3,0,0.5,0.9,0.5,2
	c0,1.1-0.2,2-0.5,2h-1.8v1.8c0,0.3-0.9,0.5-2,0.5s-2-0.2-2-0.5v-1.8h-1.8c-0.3,0-0.5-0.9-0.5-2c0-1.1,0.2-2,0.5-2h1.8V156.5z
	 M93.8,144.1c8.9,0,16.2,7.2,16.2,16.2c0,8.9-7.2,16.2-16.2,16.2c-8.9,0-16.2-7.2-16.2-16.2C77.7,151.4,84.9,144.1,93.8,144.1z
	 M24.6,144.1c8.9,0,16.2,7.2,16.2,16.2c0,8.9-7.2,16.2-16.2,16.2c-8.9,0-16.2-7.2-16.2-16.2C8.4,151.4,15.7,144.1,24.6,144.1z
	 M157.9,26.8c3.1,0,5.7,2.6,5.7,5.7s-2.6,5.7-5.7,5.7c-3.1,0-5.7-2.6-5.7-5.7S154.7,26.8,157.9,26.8z"/>
</svg>
