<?xml version="1.0" encoding="UTF-8"?><svg id="_レイヤー_1" xmlns="http://www.w3.org/2000/svg" viewBox="0 0 500 500"><defs><style>.cls-1{fill:#314158;}</style></defs><path class="cls-1" d="M405.96,384.43l-33.07,6.99-33.07,6.99c-7.07,1.49-9.87,10.08-5.04,15.45l12.48,13.89c-8.67,4.76-17.69,8.89-27.01,12.36-22.6,8.39-46.4,12.64-70.74,12.64-27.45,0-54.07-5.37-79.12-15.97-24.2-10.24-45.95-24.9-64.62-43.57-18.67-18.67-33.33-40.42-43.57-64.62-10.6-25.05-15.97-51.67-15.97-79.12s5.37-54.07,15.97-79.12c10.24-24.2,24.9-45.95,43.57-64.62,18.67-18.67,40.41-33.33,64.62-43.57,25.05-10.6,51.67-15.97,79.12-15.97,24.34,0,48.14,4.25,70.74,12.64,21.84,8.11,42,19.85,59.92,34.91,6.72,5.65,16.76,4.78,22.41-1.95,5.65-6.73,4.78-16.76-1.95-22.41-20.73-17.41-44.04-30.99-69.31-40.37-26.15-9.71-53.68-14.63-81.81-14.63-31.73,0-62.52,6.22-91.51,18.48-28,11.84-53.14,28.79-74.72,50.37-21.58,21.58-38.53,46.72-50.37,74.72-12.26,28.99-18.48,59.78-18.48,91.51s6.22,62.52,18.48,91.51c11.84,28,28.79,53.14,50.37,74.72s46.72,38.53,74.72,50.37c28.99,12.26,59.78,18.48,91.51,18.48,28.13,0,55.66-4.92,81.81-14.63,13.12-4.87,25.7-10.88,37.68-17.97l10.95,12.19c4.83,5.37,13.66,3.51,15.9-3.36l10.49-32.13,10.49-32.13c2.24-6.87-3.79-13.59-10.86-12.09Zm39.34-169.49c.97,5.51,5.76,9.39,11.17,9.39,.65,0,1.32-.06,1.99-.17l17.74-3.13c6.18-1.09,10.3-6.98,9.22-13.16-1.09-6.18-6.99-10.3-13.16-9.21l-17.74,3.13c-6.18,1.09-10.3,6.98-9.22,13.16Zm-13.77-59.2c1.93,0,3.88-.49,5.67-1.52l15.6-9.01c5.43-3.14,7.3-10.08,4.16-15.52-3.14-5.43-10.08-7.29-15.52-4.16l-15.6,9.01c-5.43,3.14-7.3,10.08-4.16,15.52,2.1,3.64,5.92,5.68,9.85,5.68Zm44.67,122.16l-17.74-3.13c-6.18-1.09-12.07,3.04-13.16,9.22-1.09,6.18,3.04,12.07,9.22,13.16l17.74,3.13c.67,.12,1.33,.17,1.99,.17,5.41,0,10.2-3.88,11.17-9.39,1.09-6.18-3.04-12.07-9.22-13.16Zm-23.4,75.82l-15.6-9.01c-5.43-3.14-12.38-1.28-15.52,4.16-3.14,5.43-1.28,12.38,4.16,15.52l15.6,9.01c1.79,1.03,3.74,1.52,5.67,1.52,3.93,0,7.74-2.04,9.85-5.68,3.14-5.43,1.28-12.38-4.16-15.52Zm-125.37-183.16c-21.27,12.11-88.45,50.66-97.5,59.46-10.77,10.48-11.02,27.7-.54,38.48,10.48,10.77,27.7,11.02,38.48,.54,9.05-8.8,49.46-74.87,62.17-95.8,1.03-1.7-.87-3.66-2.61-2.68Z"/></svg>