<?xml version="1.0" encoding="utf-8"?>
<!-- Generator: Adobe Illustrator 26.5.3, SVG Export Plug-In . SVG Version: 6.00 Build 0)  -->
<svg version="1.1" id="レイヤー_1" xmlns="http://www.w3.org/2000/svg" xmlns:xlink="http://www.w3.org/1999/xlink" x="0px"
	 y="0px" viewBox="0 0 275 84" style="enable-background:new 0 0 275 84;" xml:space="preserve">
<path fill="#D71718" d="M59.5,40.3c-5.7,0-10.3,4.6-10.3,10.3S53.8,61,59.5,61c5.7,0,10.3-4.6,10.3-10.3S65.2,40.3,59.5,40.3z
	 M206.6,46.7c-3.5,0-6.3,2.8-6.3,6.3c0,3.5,2.8,6.3,6.3,6.3c3.5,0,6.3-2.8,6.3-6.3C212.9,49.5,210.1,46.7,206.6,46.7z M194,46.7
	c-3.5,0-6.3,2.8-6.3,6.3c0,3.5,2.8,6.3,6.3,6.3s6.3-2.8,6.3-6.3C200.3,49.5,197.4,46.7,194,46.7z"/>
<path fill="#000" d="M157.1,46.5h-10.2l0.9,4.7H144V60h5.5l4.4,22.6h8.9L159.2,60h14.2c-0.2,0.7,0,1.4-0.3,2.1c-1.5,3.4-2.5,5-5.8,5.1h-4.5v4.8
	l7.7,3.6c5.5-1.1,9.8-4.7,12.1-10.4c1.9-4.7,2-9.2,2-9.7v-4.4h-26.8L157.1,46.5z M274.7,46C274.7,46,274.7,46,274.7,46L274.7,46
	L274.7,46z M261.4,55v-6.6c4.5-0.6,9-1.4,13.3-2.4v-9c-18,4.7-42.8,4.7-43,4.7v8.8c0.6,0,8.2,0,18.2-0.8V55h-18.2v8.8h18
	c-0.3,2-1,4.2-2.6,5.8c-2.9,3-6,4.6-12,4.6h-2.7V79l7.7,3.6c6.1-0.8,11.1-3.2,14.8-7c3.6-3.8,5.2-8.3,5.9-11.8h13.9l0-8.8H261.4z
	 M211.5,68c-3.5,4-7.2,6-13.8,6.1h-3.2V79l7.7,3.6h0c7.2-0.9,13-3.9,17.3-8.8c7-8,8.2-19.1,8.1-25.9H216
	C216,53.3,216.6,62.2,211.5,68z M79.4,48c0,7.9-1,14-5.5,18.4c-6.3,6-14.5,7.5-19.3,7.8h-4V79l7.7,3.6c6.6-0.8,15.9-3.2,23-9.8
	c6.5-6.1,9.7-14.4,9.7-24.8L79.4,48L79.4,48z M44.8,40.3H0v20.6l8.8,0V49h24.4c-0.6,5.1-1,13.8-6.6,19.4c-3.7,3.8-7.1,5.6-13.1,5.7
	h-3.2V79l7.7,3.6c6.5-0.9,11.9-3.5,16.3-8c10.9-11.1,10.8-29.3,10.8-30l0,0L44.8,40.3z M121.6,53.9h16.6v-8.8h-17.4l-0.4-4.9h-11
	l0.7,4.9H95v8.8h16.3l1.1,7.6H95v8.8h18.6l1.7,12.3h8.8L123,70.3h17.4v-8.8h-18.2L121.6,53.9z M145.7,25.2c0-1.2,0-2.3,0-3.4
	c0-0.6-0.1-0.7-0.7-0.7c-1.5,0.1-2.5-0.6-3.2-1.9c-0.8-1.5-1.3-3-1.7-4.6c-0.4-1.7-0.8-3.5-1.1-5.3c-0.1-0.3,0.1-0.5,0.4-0.5
	c0.3,0,0.5,0,0.8,0h4.5c0.7,0,0.8-0.1,0.8-0.8c0-1,0-1.9,0-2.9c0-0.4-0.1-0.5-0.5-0.5c-0.6,0-1.1,0-1.7,0c-1.4,0-2.8,0-4.1,0
	c-0.7,0-0.8-0.1-0.9-0.8c-0.1-0.9-0.2-1.9-0.3-2.8c-0.1-0.7-0.1-0.8-0.9-0.8c-1.3,0-2.5,0-3.8,0c-0.4,0-0.5,0.2-0.5,0.5
	c0.1,1,0.2,1.9,0.4,2.9c0.2,0.9,0.1,1-0.8,1c-2.9,0-5.8,0-8.6,0c-1.1,0-2.2,0-3.2,0c-0.3,0-0.5,0-0.5,0.4c0,1.1,0,2.3,0,3.4
	c0,0.1,0.2,0.3,0.3,0.3c0.2,0.1,0.4,0,0.6,0h5.9l0,0v0c2.1,0,4.2,0,6.3,0c0.6,0,0.8,0.2,0.9,0.8c0.3,1.6,0.6,3.2,0.9,4.8
	c0.2,1,0.5,2.1,0.8,3.1c0.4,1.6,0.8,3.3,1.7,4.8c0.9,1.6,2.2,3,4.1,3.4c1,0.2,2.1,0.3,3.1,0.3C145.5,26.1,145.7,26,145.7,25.2z
	 M69.3,25c0,0.8,0,0.8,0.8,0.8c3.5,0,6.9,0,10.4,0c0.9,0,1.8,0,2.7-0.1c1.4-0.1,2.4-1.1,2.5-2.5c0.1-0.5,0.1-0.9,0.1-1.4
	c0-5.2,0-10.4,0-15.6c0-0.9,0-0.9-0.9-0.9c-1.5,0-3.1,0-4.6,0c-0.5,0-0.6-0.1-0.6-0.6c0-1.4,0-2.8,0-4.1C79.7,0.1,79.6,0,79,0h-3.1
	c-0.6,0-0.7,0-0.7,0.6v3.9c0,0.7-0.1,0.8-0.8,0.8H74c-1.3,0-2.6,0-3.9,0c-0.8,0-0.8,0-0.8,0.8v9.4h0V25z M81.5,19.4L81.5,19.4l0,1.5
	c0,0.5-0.1,0.6-0.6,0.7c-0.1,0-0.2,0-0.4,0c-0.6,0-0.7-0.1-0.7-0.7c0-1-0.1-2.1-0.1-3.1c0-0.5,0.2-0.7,0.9-0.7
	c0.5,0,0.8,0.2,0.8,0.7C81.5,18.3,81.5,18.9,81.5,19.4z M79.7,10.2c0-0.5,0.1-0.6,0.6-0.6c0.1,0,0.2,0,0.3,0c0.7,0,0.8,0.1,0.8,0.9
	v0.9l0,0c0,0.4,0,0.8,0,1.1c0,0.4-0.2,0.6-0.6,0.7c-1,0.1-1.1,0-1.1-1.1V10.2z M73.6,11.8v-0.6v0c0-0.4,0-0.7,0-1.1
	c0-0.5,0.3-0.7,0.8-0.7c0.5,0,0.7,0.1,0.8,0.6c0,0.8,0,1.6,0,2.4c0,0.5-0.2,0.6-0.8,0.6c-0.6,0-0.8-0.1-0.8-0.6
	C73.6,12.3,73.6,12.1,73.6,11.8z M73.6,17.8c0-0.5,0.2-0.6,0.8-0.7c0.5,0,0.8,0.2,0.8,0.6c0,1.1,0,2.2,0,3.4c0,0.4-0.3,0.5-0.8,0.5
	c-0.4,0-0.7-0.1-0.7-0.6v-1.7h0l0,0C73.6,18.8,73.6,18.3,73.6,17.8z M1.7,26.2c3.1,0.1,5.9-0.6,8.1-2.9c0.9-0.9,1.8-1.9,2.1-3.2
	c0.3-1,0.4-2,0.6-3c0.1-0.3,0.1-0.7,0.5-0.8c0.6,0,1.2,0,1.8,0c0.3,0,0.5,0.2,0.5,0.6v0.7c0,1.7,0,3.4,0,5.1c0,0.8,0.1,1.5,0.8,2.1
	c0.5,0.5,1.1,0.8,1.8,0.9c1.8,0.1,3.7,0.1,5.5,0.1c0.7,0,1.4,0,2.1-0.2c1.4-0.3,1.7-0.8,1.6-2c0-0.9,0-1.8,0-2.7
	c0-0.5-0.1-0.6-0.6-0.4c-0.4,0.2-0.8,0.4-1.2,0.4c-1.6,0.1-3.1,0.1-4.7,0.1c-0.4,0-0.5-0.3-0.5-0.6v-3.4c0-0.7,0.1-0.8,0.8-0.8
	c1.6,0,3.3,0,4.9,0c0.7,0,0.8-0.1,0.8-0.8c0-0.8,0-1.6,0-2.3c0-0.7-0.1-0.9-0.9-0.9H14.2l0,0H2.6C2,12.4,2,12.4,2,13
	c0,0.9,0,1.8,0,2.7c0,0.6,0.1,0.7,0.7,0.7c0.7,0,1.5,0,2.2,0c0.8,0,1.5,0,2.3,0c0.5,0,0.6,0.2,0.5,0.7c0,0.3-0.1,0.5-0.2,0.8
	c-0.3,1.3-1,2.2-2.1,3c-1,0.7-2.2,0.8-3.4,0.9c-0.7,0-0.9,0.2-0.9,0.9c0,1,0,2.1,0,3.1C1.1,26,1.3,26.2,1.7,26.2z M2,7.7
	C2,8.2,2.2,8.3,2.7,8.2c0.1,0,0.3-0.1,0.4-0.1C3.8,8,4.3,8.2,4.3,9c0,0.3,0,0.7,0,1c0,1,0,1,0.9,1h9.1V11h1.4c2.7,0,5.3,0,8-0.1
	c0.6,0,0.7-0.1,0.7-0.7c0-0.5,0-0.9,0-1.4c0-0.5,0.2-0.6,0.7-0.6c0.5,0,0.9,0,1.4,0c0.6,0,0.8-0.2,0.8-0.8c0-1.7,0-3.4,0-5.1
	c0-0.3-0.2-0.5-0.5-0.5c-0.4,0-0.8,0-1.3,0l-7.9-0.1c-0.5,0-0.6-0.1-0.6-0.6c0.1-0.8-0.2-0.8-0.8-0.8c-1.2,0-2.4-0.1-3.6,0
	c-0.7,0-0.8,0-0.8,0.8c0,0.5-0.1,0.6-0.6,0.7c-0.2,0-0.3,0-0.5,0H2.7c-0.7,0-0.8,0-0.8,0.8c0,1.3,0,2.7,0,4C1.9,6.9,1.9,7.3,2,7.7z
	 M7.3,5.9h7v0v0h6.1c0.3,0,0.7,0,1.1,0.1c0.4,0,0.6,0.2,0.6,0.7c0,0.5-0.2,0.7-0.6,0.7c-0.3,0-0.5,0-0.8,0H7.7c-0.1,0-0.3,0-0.4,0
	c-0.6,0-0.7-0.2-0.7-0.7C6.6,6.1,6.7,5.9,7.3,5.9z M31.4,11.7c0.9-0.3,1.8-0.6,2.7-1c0.8-0.3,0.9-0.3,0.9,0.5c0,0.4,0.2,0.6,0.5,0.6
	c0.5,0,0.9,0,1.4,0c1.2,0,2.4,0,3.7,0c0.6,0,0.7,0.1,0.8,0.7c0,0.4,0,0.8,0,1.2c0,0.6,0,0.7-0.7,0.7c-2.2,0-4.4,0-6.6,0
	c-0.3,0-0.5,0-0.8,0c-0.1,0-0.3,0.2-0.3,0.4c0,1,0,2,0,3.1c0,0.4,0.2,0.6,0.7,0.6h0.9c2,0,4,0,6,0c0.5,0,0.7,0.2,0.7,0.7
	c0,0.5,0,1.1,0,1.7c0,0.7-0.1,0.8-0.8,0.8c-1,0-2,0-3,0c-1.9,0-3.7,0-5.6,0c-0.7,0-0.7,0-0.7,0.7c0,0.8,0,1.6,0,2.4
	c0,1.1,0,1.1,1.1,1.1h11.1l0,0h11.6c0.6,0,0.6-0.1,0.6-0.7c0-0.9,0-1.8,0-2.8c0-0.7,0-0.8-0.7-0.8c-2.5,0-5,0-7.6,0
	c-0.2,0-0.5,0-0.8,0c-0.3,0-0.5-0.2-0.5-0.5c0-0.6-0.1-1.3-0.1-1.9c0-0.6,0.1-0.7,0.6-0.7c1.4,0,2.8,0,4.1,0c0.9,0,1.8,0,2.7,0
	c0.8,0,0.8-0.2,0.8-0.9c0-0.8,0-1.6,0-2.4c0-0.6-0.1-0.7-0.7-0.7c-0.2,0-0.4,0-0.5,0c-1.2,0-2.5,0-3.7,0c-0.9,0-1.8,0-2.7,0
	c-0.4,0-0.6-0.2-0.6-0.6c0-0.4,0-0.8,0-1.2c0-0.6,0.1-0.7,0.8-0.7c1.4,0,2.9,0,4.3,0c0.7,0,0.7-0.1,0.8-0.7c0.1-0.4,0.2-0.5,0.6-0.3
	c0.9,0.3,1.7,0.7,2.6,1c0.3,0.1,0.6,0.1,0.9,0.2c0.3,0,0.5-0.1,0.5-0.4c0-1.3,0-2.6,0-3.9c0-0.4-0.3-0.7-0.7-0.8
	c-2.2-0.6-4.2-1.6-6-2.8C48.8,3,47.6,1.9,46.4,1c-0.3-0.2-0.7-0.5-1.1-0.5c-1.1-0.1-2.2,0-3.3,0c-0.3,0-0.6,0.1-0.8,0.3
	c-2.2,2.2-4.7,3.8-7.5,5.1c-0.8,0.4-1.6,0.7-2.5,1c-0.4,0.1-0.5,0.4-0.5,0.8c0,1.2,0,2.4,0,3.6C30.8,11.7,30.9,11.8,31.4,11.7z
	 M40.5,7.4c1-0.9,2-1.7,3-2.6c0.2-0.2,0.4-0.3,0.7,0l2.6,2.5c0.2,0.2,0.3,0.3,0.4,0.5l-0.1,0.1h-7C40.3,7.7,40.4,7.5,40.5,7.4z
	 M109.1,21.4c-0.8,0-0.9,0-0.9-0.8c0-1.4,0-2.7,0-4c0-0.7,0.1-0.8,0.9-0.8c1.8,0,3.6,0,5.4,0c0.6,0,0.7-0.1,0.7-0.7c0-1,0-2,0-2.9
	c0-0.4-0.2-0.6-0.6-0.6c-1.9,0-3.8,0-5.7,0c-0.4,0-0.6-0.1-0.6-0.5c0-1.4,0-2.8,0-4.2c0-0.3-0.1-0.5-0.4-0.5c-1.3,0-2.7,0-4,0
	c-0.4,0-0.5,0.2-0.5,0.5c0,1.3,0,2.6,0,3.9c0,0.8,0,0.9-0.8,0.9c-1.3,0-2.7,0-4,0c-0.9,0-1,0.1-1,0.9c0,0.9,0,1.8,0,2.7
	c0,0.4,0.1,0.5,0.5,0.5c1.4,0,2.8,0,4.2,0c0.8,0,0.9,0.1,1,1v2.4c0,0.6,0,1.1,0,1.7c0,0.5-0.1,0.7-0.7,0.7c-0.4,0-0.7,0-1.1,0
	c-1.7,0-3.4,0-5.1,0c-0.7,0-0.7,0.1-0.7,0.7v2.7c0,0.7,0.1,0.8,0.8,0.8h9.5h9.5c0.7,0,0.8-0.1,0.8-0.8c0-0.8,0-1.5,0-2.3
	c0-1.1,0-1.1-1.1-1.1C113.2,21.4,111.1,21.4,109.1,21.4z M139.4,1c0.3,0.7,0.5,1.4,0.8,2.2c0.2,0.5,0.3,0.7,0.9,0.7
	c0.6,0,1.2,0,1.8,0v0c0.6,0,1.2,0,1.8,0c0.4,0,0.5-0.2,0.4-0.5c-0.4-0.9-0.7-1.8-1.1-2.7c-0.1-0.3-0.4-0.5-0.8-0.5h-3.5
	c-0.4,0-0.5,0.1-0.4,0.5C139.3,0.8,139.4,0.9,139.4,1z M96,14.4c0-2.6,0-5.3,0-7.9c0-1.1,0-1.1,1.1-1.1h11.2c2.3,0,4.7,0,7,0
	c0.7,0,0.7-0.1,0.7-0.8V2c0-1.1,0-1.1-1.1-1.1h-11.3l0,0v0H92.4c-1,0-1,0-1,1c0,2.6,0,5.1,0,7.7c0,2.1,0,4.2,0,6.4
	c0,1.4-0.3,2.6-1.3,3.7c-0.2,0.2-0.3,0.7-0.3,1c0,0.8,0,1.6,0,2.4c0,0.7,0,1.3,0,2c0,0.4,0.2,0.5,0.5,0.4c0.1,0,0.2,0,0.3-0.1
	c2.4-1,4.2-2.6,4.8-5.2C96,18.2,96,16.3,96,14.4z M123.6,21.2c-1,0.1-2,0.1-2.9,0.1c-0.3,0-0.5,0.1-0.5,0.5c0,1.3,0,2.6,0,3.9
	c0,0.3,0.2,0.4,0.4,0.4c0.2,0,0.3,0,0.5,0c3.9-0.5,7.9-1.1,11.8-1.6c0.7-0.1,0.8-0.2,0.8-1c0-0.9,0-1.8,0-2.7c0-0.6-0.1-0.7-0.7-0.6
	c-1,0.1-2,0.3-3.1,0.4c-0.6,0.1-0.7,0-0.7-0.6c0-1.1,0-2.2,0-3.3c0-0.6,0.1-0.7,0.7-0.7c1,0,2,0,2.9,0c0.6,0,0.7-0.1,0.7-0.7
	c0-1.1,0-2.1,0-3.2c0-0.5-0.1-0.6-0.6-0.6h-5.9l0,0h-0.2c-1.9,0-3.8,0-5.7,0c-0.5,0-0.6,0.1-0.6,0.6c0,1,0,2,0,3.1
	c0,0.7,0.2,0.8,0.8,0.8h2.6c0.4,0,0.6,0.2,0.6,0.6c0,1.2,0,2.4,0.1,3.7C124.4,21.1,124.4,21.1,123.6,21.2z M62.1,4.9
	c0.5,0.1,1,0.1,1.5,0.2c1.5,0.3,2.9,0.7,4.3,1c0.4,0.1,0.6,0,0.6-0.4c0-0.6,0-1.2,0-1.8V2.5c0-0.6-0.1-0.7-0.7-0.9
	c-1.3-0.3-2.5-0.5-3.8-0.8c-0.7-0.1-1.4-0.3-2.2-0.5c-0.3-0.1-0.5-0.1-0.5,0.3c0,1.2,0,2.4,0,3.6C61.4,4.6,61.7,4.9,62.1,4.9z
	 M60.6,23.7v2c0,0.5,0.2,0.7,0.6,0.5c0.7-0.3,1.3-0.5,2-0.9c1.8-1,3.2-2.3,4-4.2c1-2.4,1.4-4.9,1.4-7.5c0-0.3-0.1-0.5-0.5-0.5
	c-1.2,0-2.3,0-3.5,0c-0.3,0-0.5,0.1-0.5,0.5c0,0.6-0.1,1.2-0.2,1.8c-0.4,2.2-0.9,4.2-2.9,5.5c-0.2,0.1-0.4,0.5-0.4,0.8
	C60.6,22.3,60.6,23,60.6,23.7L60.6,23.7z M67.8,7.7c-0.2-0.1-0.3-0.1-0.5-0.1c-1.8-0.4-3.6-0.7-5.4-1.1c-0.4-0.1-0.5,0-0.5,0.4
	c0,1.2,0,2.3,0,3.5c0,0.3,0.2,0.4,0.5,0.4c1.2,0.2,2.4,0.5,3.6,0.7c0.8,0.2,1.7,0.4,2.5,0.6c0.4,0.1,0.5,0,0.5-0.5v-1.5v0V8.8
	C68.6,8.1,68.5,8,67.8,7.7z"/>
</svg>
