<svg width="466" height="55" viewBox="0 0 466 55" fill="none" xmlns="http://www.w3.org/2000/svg">
<path d="M42.9722 37.5408C42.2503 36.9556 41.5111 36.1343 40.7822 35.2565C44.4765 30.3953 46.4115 27.4677 46.7751 25.4178C47.1904 23.0753 46.3512 20.4984 45.4449 20.6148C44.716 20.7311 44.0681 21.727 43.017 23.6605C42.0452 25.476 40.4651 28.4053 38.251 31.5674C37.2826 30.0445 36.5503 28.5217 36.0609 27.2914C35.1684 25.0071 33.2988 24.2457 32.5561 24.7727C31.6756 25.4178 31.7825 27.4677 32.1926 28.8143C32.8697 30.9805 33.8209 33.2648 35.0184 35.4909C32.3718 38.771 30.3471 40.8791 28.0158 43.047C25.407 45.4477 22.6811 46.8542 22.209 47.85C21.6369 49.0803 20.7392 54.4685 22.2141 54.4685C23.8649 54.4685 26.9354 51.1302 28.9015 49.0221C31.6033 46.0945 33.6227 43.6921 37.1361 39.1817C38.5594 41.466 40.0723 43.5741 41.5783 45.3895C43.1325 47.2631 45.3467 50.0745 46.7165 49.6655C47.7125 49.3729 47.9399 44.1011 47.4333 42.6364C46.7252 40.6447 44.0526 38.4203 42.9705 37.5408H42.9722ZM51.6653 11.8284C49.1633 11.3014 40.0085 12.7079 36.838 13.2931C37.8512 10.2473 39.1745 6.44018 39.3865 4.91732C39.6415 2.80927 37.9339 0.466797 36.5778 0.466797C36.459 0.466797 36.3418 0.466797 36.2126 0.524974C35.4527 0.817568 34.922 2.80927 34.4343 4.56655C33.6503 7.31968 32.3132 12.5316 30.721 15.5192C29.1289 18.5067 28.0916 20.0296 27.3782 21.727C26.6838 23.308 27.3334 27.2914 28.867 27.2914C29.5752 27.2914 31.2087 25.0653 32.8697 22.0196C33.7399 20.4385 34.8048 19.0919 37.05 18.7394C39.8362 18.3288 46.2651 17.3346 50.0111 17.1584C52.9317 16.9821 53.7123 16.5732 53.8794 15.6355C54.1189 14.2889 53.3125 12.1791 51.6653 11.8284ZM24.7505 39.18C25.1951 38.0079 23.758 36.1343 22.4433 35.8999C21.4129 35.7236 19.0436 35.7835 16.4056 36.0162C16.4366 35.84 16.4573 35.7236 16.4676 35.6654C16.5813 35.0204 23.7701 28.7544 24.237 27.1152C24.7161 25.4161 22.1194 23.4261 20.7633 23.4261C19.6433 23.4261 16.5727 23.7769 14.8376 24.2457C15.9197 23.1335 17.081 21.9032 18.1752 20.7311C20.6565 20.3804 23.6564 20.0861 25.6448 19.8533C26.8458 19.737 27.5557 19.3845 28.0279 18.3887C28.5 17.3928 27.4868 15.461 26.2479 15.461C25.5397 15.461 24.1733 15.5192 22.6087 15.6954C23.9579 14.407 24.7729 13.4693 25.9343 12.239C26.739 11.3612 29.875 8.31552 30.4161 7.2615C31.0467 6.03123 30.1714 2.98551 29.11 2.98551C28.4603 2.98551 26.4529 5.32798 25.6862 6.32383C25.2278 6.90902 24.6799 7.67045 23.9838 8.60812C23.8855 7.49592 23.1498 6.32383 21.9712 6.32383C20.7926 6.32383 19.9896 5.85499 20.031 4.62472C20.0861 2.98551 18.8127 1.52082 18.1114 1.81342C17.3516 2.10601 16.926 3.51252 16.7071 4.74108C16.6244 5.20991 16.4986 5.91317 16.3056 6.6746C14.3758 6.90902 11.6602 7.25979 10.2524 7.55238C8.53794 7.90315 6.58567 8.60641 6.27379 9.36784C5.96191 10.1293 7.61091 12.4717 8.74815 12.7062C9.70964 12.9406 13.4143 12.0029 15.2942 11.7103C15.0685 12.648 14.9237 13.4676 14.8393 13.9364C14.5171 15.7519 13.7951 16.1625 12.2788 16.397C10.8813 16.6314 8.41043 16.924 6.47022 17.2166C4.59033 17.5092 2.72766 18.0362 2.56052 18.9738C2.34169 20.2041 4.03549 22.9572 5.2744 22.9572C5.86369 22.9572 7.21288 22.6646 8.77055 22.1958C10.2007 21.7852 11.9135 21.4344 13.1937 21.2C11.1881 23.1917 8.8188 25.2415 5.69828 27.8766C4.44903 28.9306 1.66451 30.3371 0.668565 31.6256C0.429055 31.9764 0.217114 32.5034 0.113728 33.0903C-0.167136 34.6713 0.0689279 36.663 0.708196 36.7212C1.4543 36.8375 3.46687 35.1401 6.08425 32.6796C7.56266 31.333 9.26853 29.6921 11.1243 27.8766C11.5895 28.5799 12.3012 29.2232 12.8215 29.2831C13.7451 29.3995 15.6043 28.2291 16.8346 27.9365C17.6324 27.7602 18.9127 27.5258 19.502 27.5258C19.6209 27.5258 19.8552 27.5258 19.8449 27.584C19.7622 28.0528 14.7704 31.9182 13.6814 32.7378C12.987 33.323 12.8078 33.6755 12.8422 34.1426C12.8457 34.7877 13.2696 35.7236 13.3212 36.4269C9.81647 36.8957 6.39958 37.5391 5.03661 38.2423C3.74256 38.8874 3.77703 41.3462 4.03549 42.2257C4.28189 43.1634 4.72301 44.3338 5.98603 45.8566C6.8114 46.8525 7.35762 48.4335 8.25535 50.0146C9.20305 51.6538 10.6884 53.5873 11.7326 53.3529C13.211 53.0021 13.9174 50.0146 14.4516 47.6721C14.8117 45.973 15.3011 43.2216 15.6784 40.761L22.4261 40.2922C23.2032 40.234 24.4249 39.9996 24.7471 39.18H24.7505ZM18.8472 11.3014C20.4118 11.1251 21.5628 10.9506 22.3727 10.7162C21.1682 12.1809 19.6881 13.8782 17.753 15.8118C18.1476 14.5815 18.5302 12.766 18.8489 11.3014H18.8472ZM10.84 47.4377C10.3265 47.6721 7.8039 43.2798 8.0951 42.6347C8.37597 42.0495 10.1318 41.4626 12.6113 41.1118C11.9738 44.0395 11.1553 47.3196 10.84 47.4377ZM83.4322 12.8242C84.678 13.1168 86.5717 13.4094 87.3867 12.4735C87.914 11.8284 87.3936 10.7743 86.6441 10.0129C85.5447 8.90071 82.2898 6.96719 81.0819 5.79681C80.4185 5.21162 79.3261 4.39031 78.5593 4.39031C78.4421 4.39031 78.3818 4.39031 78.1957 4.44848C77.1895 4.79925 76.4589 7.25979 77.5203 9.25149C78.6799 11.3595 82.021 12.4735 83.4322 12.8242ZM91.7927 39.8251C89.9645 39.8251 86.315 42.1094 83.4839 42.1094C81.8918 42.1094 79.3278 40.9373 77.7943 39.9431C76.7397 39.2399 74.834 37.0155 72.3579 37.0155C70.8829 37.0155 68.8997 37.8933 68.7911 37.8351C68.8221 37.6588 74.8995 32.3288 78.3853 29.6356C82.5552 26.4136 86.6303 23.7204 87.3006 22.6082C88.3 20.969 86.439 18.1577 84.1352 17.5126C81.7246 16.8093 72.6129 17.6289 70.5142 18.1577C69.3408 18.4503 67.6452 19.0354 67.4884 19.9149C67.3006 20.969 69.0013 23.0188 70.2678 23.1951C71.2499 23.3114 73.8932 22.3755 76.1866 22.0829C78.9039 21.7321 81.5093 21.6722 81.5747 21.9665C81.6402 22.2591 78.0579 24.836 71.9099 30.2242C66.041 35.378 61.5972 39.4777 60.005 41.4694C59.6173 41.9964 59.4261 42.4071 59.3744 42.6997C59.0832 44.3389 60.0688 47.092 61.3663 47.092C62.0745 47.092 63.5822 45.5692 64.7522 44.6315C66.4063 43.2849 68.7721 41.5858 71.0725 41.5858C73.49 41.5858 75.9747 43.8701 78.3422 45.1585C80.2686 46.2707 82.4501 47.2666 85.2225 47.2666C87.2282 47.2666 89.9059 46.7977 91.6031 46.2125C93.6639 45.5675 95.0166 44.9241 95.1527 44.1627C95.4232 42.6398 93.0316 39.8285 91.7927 39.8285V39.8251ZM139.154 8.31552C138.466 8.19917 137.534 8.13928 136.412 8.13928C129.747 8.13928 116.106 9.89656 109.792 11.2432C107.587 11.712 105.012 12.5898 104.845 13.5275C104.585 14.9922 107.216 17.451 109.161 17.451C110.636 17.451 115.025 15.9863 117.734 15.3429C124.936 13.6438 135.504 12.5898 135.737 12.9423C136.018 13.3529 132.227 15.1085 128.215 19.0919C125 22.254 122.36 25.8267 121.383 28.3454C119.75 32.5633 119.741 37.599 121.511 42.5782C122.383 44.9789 124.711 48.1426 126.186 48.1426C127.071 48.1426 127.871 46.6198 128.329 44.0429C128.507 43.047 128.505 42.0512 128.176 41.5824C126.361 39.1817 124.699 35.2565 125.238 32.2108C125.779 29.165 128.806 25.0653 133.25 20.9655C136.274 18.2124 139.677 15.988 141.707 14.5233C142.855 13.7037 143.341 13.2931 143.446 12.7079C143.727 11.1268 141.676 8.72447 139.154 8.31552ZM168.029 4.45019C166.26 4.45019 165.3 8.19917 164.704 10.8924C163.83 14.8159 160.78 30.3371 160.753 32.1526C160.756 33.7918 161.909 36.6031 163.317 36.3105C164.233 36.1343 165.048 34.2025 165.619 30.9805C166.397 26.5882 170.004 12.5898 170.542 9.89656C171.048 7.37785 169.563 4.45019 168.029 4.45019ZM162.017 41.6405C160.915 40.8791 158.933 40.4103 158.327 41.1717C158.177 41.3479 158.077 41.5824 158.025 41.875C157.827 42.9872 158.582 44.3937 158.681 45.1551C158.921 46.7943 159.691 49.4311 161.757 49.4311C163.113 49.4311 164.257 47.9664 164.456 46.8542C164.685 45.5658 164.118 43.1052 162.019 41.6422L162.017 41.6405ZM224.19 11.9464C220.096 11.4194 201.864 13.1185 194.555 14.7577C194.551 14.1127 194.468 13.5857 194.353 13.2349C193.822 11.2432 192.614 10.0728 191.493 10.0728C190.609 10.0728 190.23 10.5416 189.938 12.1809C189.804 12.9423 189.775 13.7619 189.73 14.3471C189.551 19.6771 189.122 26.4119 189.521 28.8143C189.754 30.1609 191.66 32.387 192.735 31.9763C193.495 31.6838 193.981 30.2772 193.989 29.2232C194.034 27.6422 194.277 24.9472 194.36 22.4884C194.412 21.2 195.599 20.4967 197.558 20.0878C206.068 18.3305 222.607 16.8658 222.894 17.569C223.058 17.9797 215.704 27.1751 211.684 31.2149C208.021 34.904 203.566 38.0678 202.679 39.4144C201.871 40.6447 201.945 43.2216 202.617 44.7444C202.781 45.1551 203.013 45.5059 203.425 45.5059C204.369 45.5059 206.568 43.7486 209.177 41.3479C216.446 34.6131 227.862 20.1459 228.715 18.3305C228.804 18.1542 228.916 17.8616 228.948 17.6854C229.383 15.2249 226.375 12.239 224.187 11.9464H224.19ZM273.557 16.397C272.516 16.2806 270.862 17.6272 269.273 19.2664C263.852 24.8891 258.33 29.7502 248.953 34.7278C247.193 35.6654 242.133 37.5972 241.407 38.3587C240.315 39.5308 238.28 44.6845 239.705 45.6205C239.812 45.6787 239.979 45.7369 240.215 45.7369C242.162 45.7369 247.791 42.9256 251.274 40.5831C259.505 35.0768 272.19 24.4185 273.97 21.3728C274.22 20.9621 274.361 20.495 274.456 19.968C274.758 18.2689 274.244 16.5116 273.557 16.3952V16.397ZM251.672 18.7394C252.199 19.0902 253.393 19.6771 254.125 19.2083C255.183 18.5632 255.071 15.8699 254.287 14.6397C252.912 12.4136 250.457 10.3055 247.921 9.30966C246.931 8.899 245.911 8.66459 245.027 8.66459C244.497 8.66459 243.945 8.78094 243.608 9.01536C243.341 9.1916 243.21 9.60055 243.115 10.1276C242.906 11.2996 243.125 13.0552 243.914 13.9347C245.102 15.2232 249.192 17.0968 251.673 18.7377L251.672 18.7394ZM320.191 12.5898C318.767 12.2972 314.244 12.5316 309.147 13.0005C309.042 10.5998 308.903 8.72447 308.775 7.78851C308.461 5.5624 307.005 3.80512 305.648 3.80512C304.822 3.80512 304.069 5.38615 304.055 7.78851C304.128 9.36955 304.13 11.3612 304.216 13.5275C299.875 14.0545 295.771 14.5815 293.329 15.0503C290.956 15.461 288.06 16.1625 287.852 17.3346C287.602 18.7394 290.121 21.4926 291.634 21.6106C293.324 21.727 296.557 20.791 298.95 20.264C301.226 19.737 302.88 19.3862 304.29 19.0919C304.329 22.1958 304.347 25.4178 304.374 28.5799C301.814 29.0487 299.027 29.4576 296.37 29.8101C294.618 30.0445 292.471 30.5134 291.982 31.2748C291.243 32.4469 293.569 34.9639 295.247 35.1401C296.75 35.3164 300.361 34.9057 304.448 34.1443C304.536 40.2939 304.676 45.1551 304.902 46.2091C305.336 48.0828 306.519 49.7237 307.934 49.7237C308.996 49.7237 309.502 47.205 309.619 45.2133C309.719 42.9872 309.716 38.3604 309.649 33.0903C312.535 32.4452 315.256 31.7436 317.454 30.9822C319.713 30.2208 321.85 28.816 322.015 27.8783C322.213 26.7661 319.898 25.1834 318.364 25.1834C316.949 25.1834 313.246 26.7644 309.562 27.584C309.535 24.4219 309.457 21.2 309.376 18.3305C310.164 18.2141 311 18.1542 311.964 18.0379C315.33 17.6871 319.629 17.3928 320.995 17.3346C322.303 17.2765 323.265 16.515 323.447 15.8118C323.825 14.3471 321.548 12.8841 320.185 12.5898H320.191ZM363.092 25.4161C361.402 25.2997 357.101 25.9431 352.206 26.9389C352.185 25.0653 352.23 23.4825 352.149 22.6048C352.026 20.9655 350.517 19.5009 349.338 19.5009C348.336 19.5009 347.832 20.673 347.722 22.9572C347.639 24.4219 347.622 26.1792 347.536 27.9947C344.205 28.8143 341.031 29.7519 338.94 30.5716C336.848 31.3912 335.088 32.3288 334.944 33.1484C334.683 34.6131 337.29 36.5449 339.031 36.3704C340.408 36.2541 343.659 34.5549 345.484 33.9099C346.114 33.6755 346.805 33.441 347.426 33.2648C347.35 39.0038 347.414 44.6264 347.65 46.6181C347.879 48.3172 349.593 49.9564 350.538 49.9564C351.246 49.9564 351.897 48.6098 351.914 46.8525C351.908 43.5723 352.016 37.3064 352.157 31.8583C353.271 31.5657 354.385 31.2731 355.43 31.0387C358.435 30.3936 362 29.574 362.253 29.8084C362.555 30.101 361.109 31.2731 359.999 32.2091C358.414 33.4975 357.328 33.9663 357.075 34.7278C356.722 35.7236 357.888 39.1201 359.05 38.8857C360.764 38.5349 367.333 31.0969 367.593 29.6322C367.946 27.6405 364.782 25.5324 363.092 25.4161ZM388.733 26.8808C388.165 25.7685 386.18 24.6546 385.341 25.0653C384.944 25.2997 384.684 25.7685 384.581 26.3537C384.248 28.2274 385.086 32.1526 386.099 34.0844C386.755 35.3728 388.782 36.2506 389.652 35.6654C390.453 35.1384 390.426 33.9663 390.193 32.6197C389.905 30.9206 389.256 27.9348 388.735 26.8808H388.733ZM408.787 24.8891C407.972 24.8309 406.91 25.8267 405.742 27.7585C404.143 30.4535 401.719 33.1467 398.722 36.0761C395.805 38.8874 392.354 41.0536 391.583 42.402C390.543 44.2756 390.548 47.9082 391.551 47.9082C392.259 47.9082 394.06 46.7361 396.348 44.8043C403.306 38.8309 409.338 31.0986 409.921 27.8201C410.233 26.0629 409.497 24.8925 408.789 24.8925L408.787 24.8891ZM397.047 32.2108C397.711 31.8001 397.938 30.5117 397.775 29.1069C397.604 27.4078 397.159 24.5965 396.749 23.2498C396.493 22.3721 395.128 21.0836 394.008 21.0836C393.182 21.0836 392.731 21.9614 392.662 24.0113C392.628 25.5341 393.089 28.5799 393.78 30.3371C394.27 31.5674 396.186 32.7378 397.046 32.2108H397.047ZM463.657 22.254C462.089 21.7852 455.815 21.9032 450.799 22.254C451.296 19.7935 451.621 17.6272 451.694 16.2207C451.752 15.2249 451.325 13.6438 450.596 12.7643C453.444 12.0029 456.303 11.1833 457.961 10.48C458.789 10.1293 460.261 9.48419 460.504 8.78094C460.919 7.43432 457.831 5.55897 456.592 5.55897C455.236 5.55897 454.661 6.14416 451.327 7.31625C445.98 9.18989 438.938 10.6546 436.791 11.1234C435.5 11.416 434.483 11.8267 434.24 12.5299C433.887 13.5258 435.684 15.692 437.619 15.7519C440.145 15.8101 443.528 14.6979 448.18 13.4094C447.848 14.2872 447.601 15.3429 447.498 15.9281C447.279 17.1584 446.774 19.6771 446.076 22.6048C440.449 23.0736 433.875 23.8932 429.504 24.5965C426.767 25.0653 425.484 25.6505 425.327 26.53C425.139 27.584 427.246 30.3371 428.797 30.5716C430.064 30.7478 432.471 29.8101 435.888 29.165C437.295 28.8724 440.681 28.4036 444.836 27.9348C443.976 31.4493 443.009 34.904 442.139 37.4809C440.926 40.9955 439.337 43.6305 439.001 44.8608C438.614 46.3837 439.561 50.0146 440.976 50.0146C441.92 50.0146 443.263 48.4335 445.37 42.8691C446.65 39.6471 448.361 33.323 449.697 27.4659C454.192 27.0553 459.022 26.7627 463.269 26.7627C464.803 26.7627 465.721 26.2357 465.868 25.4161C466.097 24.1276 464.882 22.6629 463.657 22.254Z" fill="black"/>
</svg>
