<?xml version="1.0" encoding="UTF-8"?><svg id="_レイヤー_2" xmlns="http://www.w3.org/2000/svg" viewBox="0 0 500 500"><defs><style>.cls-1{fill:#314158;}</style></defs><path class="cls-1" d="M6.51,317.26l9.41,6.26H50.4c11.4,0,22.97,5,25.08,25.09,2.11,20.1,5.69,52.13,6.27,59.57,.58,7.44,1.79,12.54,9.4,12.54h120.53c6.41-12.64,18.29-35.74,24.8-46.43,9.22-15.12,28.98-17.01,32.42,0,3.01,14.92,6.35,32.84,13.14,46.43h129.05s21.79-9.9,28.22-15.68c6.43-5.78,6.27-21.94,6.27-21.94h-18.81l-6.27,6.27h-15.68c-5.8,0-15.65-9.83-18.81-15.68-3.16-5.86-3.46-23.59,6.27-28.22,9.73-4.62,30.92-12.68,40.76-15.68,9.84-2.99,11.91-5.86,15.68-15.67,0,0,4.33-14.61,10.17-34.11l-452.38-.08v37.33Zm62.86,68.11h-28.49c-1.99,0-3.6,1.61-3.6,3.6v12.33c0,.98,.4,1.91,1.1,2.59l16.38,15.83c.67,.65,1.57,1.01,2.5,1.01h17.15c-2.06-4.46-2.44-9.26-2.63-11.73-.27-3.46-1.26-12.87-2.42-23.62ZM485.83,123.82c-6.93-15.04-29.1-34.49-56.43-34.49s-53.2,18.11-84.65,25.08c-31.44,6.96-51.02,9.41-90.92,9.41-41.49-.01-71.32-3.47-106.74-25.09-9.37-5.72-29.85-9.45-40.7-9.45-4.73,0-9.49,.56-14.15,1.7-15.47,3.75-28.56,13.3-36.84,26.89-1.69,2.77-3.16,5.69-4.37,8.7L6.51,267.1v1.47l456.18-1.22c10.2-33.9,22.82-75.24,26.27-83.97,6.05-15.29,3.8-44.53-3.14-59.56ZM109.31,180.25c-13.8,0-24.99-11.19-24.99-24.99s11.19-24.99,24.99-24.99,24.99,11.19,24.99,24.99-11.19,24.99-24.99,24.99Zm320.2,0c-13.87,0-25.12-11.19-25.12-24.99s11.24-24.99,25.12-24.99,25.12,11.19,25.12,24.99-11.24,24.99-25.12,24.99Z"/></svg>