<?xml version="1.0" encoding="UTF-8"?><svg id="_レイヤー_2" xmlns="http://www.w3.org/2000/svg" xmlns:xlink="http://www.w3.org/1999/xlink" viewBox="0 0 500 500"><defs><style>.cls-1{fill:none;}.cls-2{clip-path:url(#clippath);}.cls-3{fill:#314158;}</style><clipPath id="clippath"><rect class="cls-1" x="7.53" y="72.48" width="484.93" height="355.04"/></clipPath></defs><g class="cls-2"><g><path class="cls-3" d="M179.8,303.42l-9.76,15.31-118.57-32.21,9.38-141.66c.19-2.82,.05-5.66-.41-8.45l-1.18-7.36,92.09,1.59c5.99,.11,11.77,2.41,16.17,6.45l68.85,63.34-12.51,22.45c-1.26,2.38-1.92,5.03-1.92,7.71v86.58c0,4.29,3.49,7.77,7.81,7.77h230.26c4.26,0,7.73-3.45,7.73-7.68v-101.67c0-4.24-3.46-7.68-7.73-7.68h-70.78c-2.69,0-4.89-2.19-4.89-4.87V119.13c0-4.29-3.52-7.79-7.84-7.79h-80.62c-6.16,0-11.82,3.39-14.71,8.81l-9.6,17.2-97.61-57.1c-4.45-2.08-9.46-2.79-14.33-2l-105.84,17.23-3.71-23H21.33l-13.03,62.62c-.77,3.66-.96,7.44-.6,11.16l15.4,161.48h.05c.49,1.94,19.91,78.32,78.83,78.32s81.14-63.77,81.14-63.77l.39-17.75c.05-2.02-2.61-2.82-3.71-1.12Zm139.46-12.28h-72.89v-52.29h103.8l-30.91,52.29Zm-21.31-159.29h54.97v84.83l-99.46-.38,44.49-84.45Z"/><path class="cls-3" d="M456.03,355.05H233.72c-20.13,0-36.43,16.22-36.43,36.23s16.31,36.23,36.43,36.23h222.31c20.13,0,36.43-16.22,36.43-36.23s-16.31-36.23-36.43-36.23Zm-219.29,53.96c-9.84,0-17.82-7.93-17.82-17.72s7.97-17.72,17.82-17.72,17.82,7.93,17.82,17.72-7.97,17.72-17.82,17.72Zm72.1,0c-9.84,0-17.82-7.93-17.82-17.72s7.97-17.72,17.82-17.72,17.82,7.93,17.82,17.72-7.97,17.72-17.82,17.72Zm72.1,0c-9.84,0-17.82-7.93-17.82-17.72s7.97-17.72,17.82-17.72,17.82,7.93,17.82,17.72-7.97,17.72-17.82,17.72Zm72.1,0c-9.84,0-17.82-7.93-17.82-17.72s7.97-17.72,17.82-17.72,17.82,7.93,17.82,17.72-7.97,17.72-17.82,17.72Z"/></g></g></svg>