<svg width="1388" height="252" viewBox="0 0 1388 252" fill="none" xmlns="http://www.w3.org/2000/svg">
<path d="M166.24 74.176H157.28L107.616 216H61.536L127.072 36.8H197.728L262.752 216H216.672L166.24 74.176ZM109.408 142.784H213.856V180.16H109.408V142.784ZM351.296 36.8C370.581 36.8 387.221 40.5547 401.216 48.064C415.381 55.5733 426.304 66.0693 433.984 79.552C441.835 93.0347 445.76 108.651 445.76 126.4C445.76 143.979 441.835 159.509 433.984 172.992C426.304 186.475 415.381 197.056 401.216 204.736C387.221 212.245 370.581 216 351.296 216H278.08V36.8H351.296ZM348.48 178.624C364.693 178.624 377.408 173.931 386.624 164.544C395.84 155.157 400.448 142.443 400.448 126.4C400.448 110.187 395.84 97.472 386.624 88.256C377.408 78.8693 364.693 74.176 348.48 74.176H322.624V178.624H348.48ZM559.24 74.176H550.28L500.616 216H454.536L520.072 36.8H590.728L655.752 216H609.672L559.24 74.176ZM502.408 142.784H606.856V180.16H502.408V142.784ZM750.696 116.416C755.987 116.416 760.339 115.648 763.752 114.112C767.336 112.405 769.981 109.931 771.688 106.688C773.565 103.445 774.504 99.6053 774.504 95.168C774.504 88.6827 772.541 83.5627 768.616 79.808C764.691 76.0533 758.717 74.176 750.696 74.176H715.624V116.416H750.696ZM819.816 95.168C819.816 102.336 818.451 109.419 815.72 116.416C813.16 123.413 809.149 129.728 803.688 135.36C798.397 140.992 791.571 145.515 783.208 148.928C774.845 152.171 764.947 153.792 753.512 153.792H715.624V216H671.08V36.8H753.512C768.36 36.8 780.648 39.5307 790.376 44.992C800.275 50.2827 807.613 57.3653 812.392 66.24C817.341 75.1147 819.816 84.7573 819.816 95.168ZM834.168 36.8H990.072V74.176H934.264V216H889.72V74.176H834.168V36.8ZM1145.48 74.176H1055.62V107.712H1122.7V142.528H1055.62V178.624H1145.48V216H1011.08V36.8H1145.48V74.176ZM1272 95.168C1272 88.6827 1270.04 83.5627 1266.12 79.808C1262.19 76.0533 1256.22 74.176 1248.2 74.176H1213.12V116.416H1248.2C1253.49 116.416 1257.84 115.648 1261.25 114.112C1264.84 112.405 1267.48 109.931 1269.19 106.688C1271.07 103.445 1272 99.6053 1272 95.168ZM1251.01 36.8C1265.86 36.8 1278.15 39.5307 1287.88 44.992C1297.77 50.2827 1305.11 57.3653 1309.89 66.24C1314.84 75.1147 1317.32 84.7573 1317.32 95.168C1317.32 102.336 1315.95 109.419 1313.22 116.416C1310.66 123.413 1306.65 129.728 1301.19 135.36C1295.9 140.992 1289.07 145.515 1280.71 148.928C1272.35 152.171 1262.45 153.792 1251.01 153.792H1213.12V216H1168.58V36.8H1251.01ZM1273.54 138.432L1320.64 216H1271.49L1226.95 138.432H1273.54Z" fill="white"/>
</svg>
