<?xml version="1.0" encoding="UTF-8"?><svg id="_レイヤー_1" xmlns="http://www.w3.org/2000/svg" viewBox="0 0 500 500"><defs><style>.cls-1{fill:#fff;}.cls-2{fill:#314158;}</style></defs><path class="cls-1" d="M457.01,142.41l-48.56,28.03c.4,2.12,.62,4.29,.62,6.49v179.12l40.53-23.4c4.57-2.64,7.41-7.55,7.41-12.83V142.41Z"/><path class="cls-1" d="M391.67,146.78c2.81,1.62,5.34,3.62,7.55,5.9l48.34-27.91L292.82,35.43c-2.28-1.32-4.85-1.98-7.41-1.98s-5.12,.66-7.41,1.98l-39.59,22.86,153.26,88.48Z"/><path class="cls-2" d="M459.6,108.63L302.82,18.11c-10.74-6.2-24.08-6.2-34.81,0l-60.63,35c-2.52,.76-4.98,1.8-7.31,3.14L43.29,146.78c-10.74,6.2-17.41,17.75-17.41,30.15v181.04c0,12.4,6.67,23.95,17.41,30.15l156.79,90.52c5.37,3.1,11.39,4.65,17.41,4.65s12.04-1.55,17.41-4.65l60.63-35c2.52-.76,4.98-1.8,7.31-3.14l156.79-90.52c10.74-6.2,17.41-17.75,17.41-30.15V138.78c0-12.4-6.67-23.95-17.41-30.15ZM285.41,33.46c2.56,0,5.12,.66,7.41,1.98l154.74,89.34-48.34,27.91c-2.21-2.28-4.73-4.28-7.55-5.9L238.41,58.29l39.59-22.86c2.28-1.32,4.85-1.98,7.41-1.98Zm-71.56,73.69c88.53-2,161.92,68.14,163.93,156.67s-68.14,161.92-156.67,163.93c-88.53,2-161.92-68.14-163.93-156.67-2-88.53,68.14-161.92,156.67-163.93Zm235.75,225.51l-40.53,23.4V176.93c0-2.2-.22-4.37-.62-6.49l48.56-28.03v177.42c0,5.28-2.84,10.19-7.41,12.83Z"/><path class="cls-1" d="M221.11,427.75c88.53-2,158.68-75.4,156.67-163.93S302.38,105.14,213.85,107.15c-88.53,2-158.68,75.4-156.67,163.93,2,88.53,75.4,158.68,163.93,156.67Zm-3.63-255.9c52.8,0,95.6,42.8,95.6,95.6,0,52.8-42.8,95.6-95.6,95.6-52.8,0-95.6-42.8-95.6-95.6,0-52.8,42.8-95.6,95.6-95.6Z"/><path class="cls-2" d="M217.48,363.04c52.8,0,95.6-42.8,95.6-95.6,0-52.8-42.8-95.6-95.6-95.6s-95.6,42.8-95.6,95.6c0,52.8,42.8,95.6,95.6,95.6Zm0-175.09c43.9,0,79.49,35.59,79.49,79.49,0,43.9-35.59,79.49-79.49,79.49s-79.49-35.59-79.49-79.49c0-43.9,35.59-79.49,79.49-79.49Z"/><path class="cls-1" d="M217.48,346.94c43.9,0,79.49-35.59,79.49-79.49,0-43.9-35.59-79.49-79.49-79.49-43.9,0-79.49,35.59-79.49,79.49,0,43.9,35.59,79.49,79.49,79.49Zm0-135.62c31,0,56.13,25.13,56.13,56.13,0,31-25.13,56.13-56.13,56.13s-56.13-25.13-56.13-56.13c0-31,25.13-56.13,56.13-56.13Z"/><path class="cls-2" d="M217.48,323.57c31,0,56.13-25.13,56.13-56.13,0-31-25.13-56.13-56.13-56.13-31,0-56.13,25.13-56.13,56.13,0,31,25.13,56.13,56.13,56.13Zm0-102.79c25.77,0,46.67,20.89,46.67,46.67,0,25.77-20.89,46.67-46.67,46.67-25.77,0-46.67-20.89-46.67-46.67s20.89-46.67,46.67-46.67Z"/><path class="cls-1" d="M217.48,314.12c25.77,0,46.67-20.89,46.67-46.67,0-25.77-20.89-46.67-46.67-46.67s-46.67,20.89-46.67,46.67,20.89,46.67,46.67,46.67Zm0-73.09c14.59,0,26.42,11.83,26.42,26.42,0,14.59-11.83,26.42-26.42,26.42-14.59,0-26.42-11.83-26.42-26.42,0-14.59,11.83-26.42,26.42-26.42Z"/><path class="cls-2" d="M217.48,293.87c14.59,0,26.42-11.83,26.42-26.42,0-14.59-11.83-26.42-26.42-26.42-14.59,0-26.42,11.83-26.42,26.42,0,14.59,11.83,26.42,26.42,26.42Zm0-33.26c3.78,0,6.84,3.06,6.84,6.84s-3.06,6.84-6.84,6.84-6.84-3.06-6.84-6.84c0-3.78,3.06-6.84,6.84-6.84Z"/><path class="cls-1" d="M217.48,274.28c3.78,0,6.84-3.06,6.84-6.84s-3.06-6.84-6.84-6.84c-3.78,0-6.84,3.06-6.84,6.84,0,3.78,3.06,6.84,6.84,6.84Z"/></svg>