<svg width="32" height="33" viewBox="0 0 32 33" fill="none" xmlns="http://www.w3.org/2000/svg">
<path fill-rule="evenodd" clip-rule="evenodd" d="M1.66331 3.56387C0.850551 3.56387 0.226807 2.90543 0.226807 2.0965C0.226807 1.28756 0.888354 0.666748 1.70111 0.666748C2.51387 0.666748 3.15652 1.344 3.13762 2.13412C3.13762 2.94306 2.47607 3.56387 1.66331 3.56387ZM29.0891 2.52917C29.0891 3.33811 29.7129 3.99655 30.5256 3.99655C31.3384 3.99655 31.9999 3.37573 31.9999 2.5668C31.9999 1.77667 31.3762 1.11824 30.5634 1.09943C29.7507 1.09943 29.0891 1.72024 29.0891 2.52917ZM29.0325 6.16C29.0325 6.96894 29.6562 7.62737 30.469 7.62737C31.2817 7.62737 31.9433 7.00656 31.9433 6.19763C31.9433 5.38869 31.3195 4.73026 30.5068 4.73026C29.7129 4.73026 29.0325 5.35107 29.0325 6.16ZM30.4123 11.277C29.5996 11.277 28.9758 10.6185 28.9758 9.8096C28.9758 9.00066 29.6374 8.37985 30.4501 8.37985C31.2629 8.37985 31.8866 9.03829 31.8866 9.84723C31.8866 10.6562 31.2251 11.277 30.4123 11.277ZM31.83 13.478C31.83 12.6691 31.2063 12.0107 30.3935 12.0107C29.5807 12.0107 28.9192 12.6315 28.9192 13.4404C28.9192 14.2493 29.5429 14.9078 30.3557 14.9078C31.1684 14.9078 31.83 14.287 31.83 13.478ZM30.3366 15.6415C31.1494 15.6415 31.7731 16.2999 31.7731 17.1089C31.7731 17.9178 31.1116 18.5386 30.2988 18.5386C29.486 18.5386 28.8623 17.8802 28.8623 17.0712C28.8623 16.2623 29.5238 15.6415 30.3366 15.6415ZM25.4224 5.95306C25.4224 6.762 26.0461 7.42043 26.8589 7.42043C27.6716 7.42043 28.3332 6.79962 28.3332 5.99069C28.3332 5.18175 27.7094 4.52332 26.8967 4.52332C26.0839 4.52332 25.4224 5.14413 25.4224 5.95306ZM26.8022 11.0512C25.9895 11.0512 25.3657 10.3928 25.3657 9.58386C25.3657 8.77492 26.0273 8.15411 26.84 8.15411C27.6528 8.15411 28.2765 8.81255 28.2765 9.62149C28.2765 10.4304 27.615 11.0512 26.8022 11.0512ZM25.3088 13.2335C25.3088 14.0424 25.9326 14.7008 26.7453 14.7008C27.5581 14.7008 28.2196 14.08 28.2196 13.2711C28.2196 12.4621 27.5959 11.8037 26.7831 11.8037C25.9704 11.8037 25.3088 12.4245 25.3088 13.2335ZM26.6887 18.3317C25.8759 18.3317 25.2522 17.6732 25.2522 16.8643C25.2522 16.0554 25.9137 15.4345 26.7265 15.4345C27.5393 15.4345 28.163 16.093 28.163 16.9019C28.163 17.7108 27.5015 18.3317 26.6887 18.3317ZM25.1956 20.4951C25.1956 21.304 25.8193 21.9624 26.6321 21.9624C27.4448 21.9624 28.1064 21.3416 28.1064 20.5327C28.1064 19.7237 27.4826 19.0653 26.6699 19.0653C25.8571 19.0653 25.1956 19.6861 25.1956 20.4951ZM23.1919 10.9948C22.3791 10.9948 21.7554 10.3363 21.7554 9.5274C21.7554 8.71847 22.4169 8.09766 23.2297 8.09766C24.0424 8.09766 24.6662 8.75609 24.6662 9.56503C24.6662 10.374 24.0046 10.9948 23.1919 10.9948ZM21.6987 13.177C21.6987 13.986 22.3225 14.6444 23.1352 14.6444C23.948 14.6444 24.6095 14.0236 24.6095 13.2147C24.6095 12.4057 23.9858 11.7473 23.173 11.7473C22.3603 11.7473 21.7176 12.3681 21.6987 13.177ZM23.0786 18.2752C22.2658 18.2752 21.6421 17.6168 21.6421 16.8078C21.6421 15.9989 22.3036 15.3781 23.1164 15.3781C23.9292 15.3781 24.5529 16.0365 24.5529 16.8455C24.5529 17.6544 23.8914 18.2752 23.0786 18.2752ZM21.5854 20.4387C21.5854 21.2476 22.2092 21.906 23.022 21.906C23.8347 21.906 24.4963 21.2852 24.4963 20.4763C24.4963 19.6673 23.8725 19.0089 23.0598 19.0089C22.247 19.0089 21.5854 19.6297 21.5854 20.4387ZM23.0219 22.6585C23.8347 22.6585 24.4584 23.3169 24.4584 24.1259C24.4584 24.9348 23.7969 25.5556 22.9841 25.5556C22.1714 25.5368 21.5476 24.8972 21.5476 24.0883C21.5476 23.2793 22.2092 22.6585 23.0219 22.6585ZM18.0886 13.1394C18.0886 13.9483 18.7124 14.6068 19.5251 14.6068C20.3379 14.6068 20.9994 13.986 20.9994 13.177C20.9994 12.3681 20.3757 11.7097 19.5629 11.7097C18.7502 11.7097 18.0886 12.3305 18.0886 13.1394ZM19.5251 15.3593C20.3378 15.3593 20.9616 16.0177 20.9616 16.8267C20.9616 17.6356 20.3 18.2564 19.4873 18.2564C18.6745 18.2564 18.0508 17.598 18.0508 16.789C18.0508 15.9801 18.7123 15.3593 19.5251 15.3593ZM20.9049 20.4575C20.9049 19.6486 20.2812 18.9901 19.4684 18.9901C18.6557 18.9901 17.9941 19.6109 17.9941 20.4199C17.9941 21.2288 18.6179 21.8872 19.4306 21.8872C20.2434 21.8872 20.9049 21.2664 20.9049 20.4575ZM17.9375 24.0507C17.9375 23.2417 18.599 22.6209 19.4118 22.6209C20.2246 22.6397 20.8483 23.2982 20.8483 24.0883C20.8483 24.8972 20.1868 25.518 19.374 25.518C18.5612 25.518 17.9375 24.8596 17.9375 24.0507ZM20.7914 27.7379C20.7914 26.9289 20.1677 26.2705 19.3549 26.2705C18.5422 26.2705 17.8806 26.8913 17.8806 27.7003C17.8806 28.4904 18.5044 29.1488 19.3171 29.1676C20.1299 29.1676 20.7914 28.5468 20.7914 27.7379ZM3.08098 5.78375C3.08098 4.97481 2.45723 4.31638 1.64447 4.31638C0.831713 4.31638 0.170166 4.93719 0.170166 5.74612C0.170166 6.55506 0.793911 7.21349 1.60667 7.21349C2.41943 7.21349 3.08098 6.59268 3.08098 5.78375ZM1.55003 10.8255C0.73727 10.8255 0.113525 10.167 0.113525 9.35809C0.113525 8.54916 0.775073 7.92834 1.58783 7.92834C2.40059 7.92834 3.02433 8.58678 3.02433 9.39572C3.02433 10.2047 2.36279 10.8255 1.55003 10.8255ZM0.0566406 13.0077C0.0566406 13.8167 0.680386 14.4751 1.49314 14.4751C2.3059 14.4751 2.96745 13.8543 2.96745 13.0453C2.96745 12.2364 2.3437 11.578 1.53095 11.578C0.73709 11.578 0.0566406 12.1988 0.0566406 13.0077ZM1.4365 18.1059C0.623745 18.1059 0 17.4475 0 16.6385C0 15.8296 0.680449 15.19 1.47431 15.2088C2.28706 15.2088 2.91081 15.8672 2.91081 16.6762C2.91081 17.4851 2.24926 18.1059 1.4365 18.1059ZM3.78027 5.63324C3.78027 6.44217 4.40402 7.10061 5.21678 7.10061C6.02953 7.10061 6.69108 6.4798 6.69108 5.67086C6.69108 4.86193 6.06734 4.20349 5.25458 4.20349C4.46072 4.20349 3.78027 4.8243 3.78027 5.63324ZM6.63444 9.30166C6.63444 10.1106 5.97289 10.7314 5.16014 10.7314C4.34738 10.7314 3.72363 10.073 3.72363 9.26404C3.74253 8.4551 4.40408 7.83429 5.19794 7.83429C6.0107 7.83429 6.63444 8.49273 6.63444 9.30166ZM5.10325 14.3622C5.91601 14.3622 6.57756 13.7414 6.57756 12.9325C6.57756 12.1235 5.95381 11.4651 5.14105 11.4651C4.3472 11.4651 3.68565 12.0859 3.66675 12.8948C3.66675 13.7038 4.29049 14.3622 5.10325 14.3622ZM5.04661 17.993C4.23385 17.993 3.61011 17.3346 3.61011 16.5257C3.61011 15.7167 4.29056 15.0959 5.08441 15.0959C5.89717 15.0959 6.52092 15.7544 6.52092 16.5633C6.52092 17.3722 5.85937 17.993 5.04661 17.993ZM3.55347 20.1753C3.55347 20.9842 4.17721 21.6427 4.98997 21.6427C5.80273 21.6427 6.46428 21.0219 6.46428 20.2129C6.46428 19.404 5.84053 18.7455 5.02777 18.7455C4.23392 18.7455 3.55347 19.3664 3.55347 20.1753ZM8.77024 10.7879C7.95748 10.7879 7.33374 10.1294 7.33374 9.32049C7.35264 8.51156 8.01419 7.89075 8.80805 7.89075C9.6208 7.89075 10.2445 8.54918 10.2445 9.35812C10.2445 10.1671 9.583 10.7879 8.77024 10.7879ZM7.2771 12.9513C7.2771 13.7602 7.90085 14.4187 8.7136 14.4187C9.52636 14.4187 10.1879 13.7979 10.1879 12.9889C10.1879 12.18 9.56416 11.5215 8.75141 11.5215C7.95755 11.5215 7.2771 12.1424 7.2771 12.9513ZM8.65672 18.0495C7.84396 18.0495 7.22021 17.391 7.22021 16.5821C7.23912 15.7732 7.88176 15.1523 8.69452 15.1523C9.50728 15.1523 10.131 15.8108 10.131 16.6197C10.131 17.4287 9.46948 18.0495 8.65672 18.0495ZM8.60008 21.6991C9.41284 21.6991 10.0744 21.0782 10.0744 20.2693C10.0744 19.4604 9.45064 18.8019 8.63788 18.8019C7.82512 18.8019 7.18248 19.4228 7.16357 20.2317C7.16357 21.0218 7.78732 21.6991 8.60008 21.6991ZM8.58124 22.4327C9.394 22.4327 10.0177 23.0912 10.0177 23.9001C10.0177 24.709 9.33729 25.3299 8.54344 25.3299C7.73068 25.311 7.10693 24.6714 7.10693 23.8625C7.10693 23.0536 7.76848 22.4327 8.58124 22.4327ZM10.8872 13.0453C10.8872 13.8543 11.511 14.5127 12.3237 14.5127C13.1365 14.5127 13.798 13.8919 13.798 13.083C13.798 12.274 13.1743 11.6156 12.3615 11.6156C11.5677 11.6156 10.9061 12.2364 10.8872 13.0453ZM12.2671 18.1435C11.4543 18.1435 10.8306 17.4851 10.8306 16.6761C10.8306 15.8672 11.511 15.2464 12.3049 15.2464C13.1176 15.2464 13.7414 15.9048 13.7414 16.7138C13.7414 17.5227 13.0798 18.1435 12.2671 18.1435ZM13.6845 20.3446C13.6845 19.5356 13.0607 18.8772 12.248 18.8772C11.4352 18.8772 10.7737 19.498 10.7737 20.3069C10.7737 21.1159 11.3974 21.7743 12.2102 21.7743C13.004 21.7743 13.6845 21.1535 13.6845 20.3446ZM12.1913 22.5269C13.0041 22.5269 13.6278 23.1853 13.6278 23.9942C13.6278 24.8032 12.9474 25.424 12.1535 25.424C11.3408 25.424 10.717 24.7655 10.717 23.9566C10.717 23.1477 11.3786 22.5269 12.1913 22.5269ZM10.6604 27.5874C10.6604 28.3963 11.2841 29.0548 12.0969 29.0548C12.9097 29.0548 13.5712 28.434 13.5712 27.625C13.5712 26.8349 12.9475 26.1765 12.1347 26.1577C11.3408 26.1577 10.6604 26.7785 10.6604 27.5874ZM15.8772 18.1247C15.0644 18.1247 14.4407 17.4663 14.4407 16.6573C14.4407 15.8484 15.1211 15.2276 15.915 15.2276C16.7277 15.2276 17.3515 15.886 17.3515 16.695C17.3515 17.5039 16.6899 18.1247 15.8772 18.1247ZM14.384 20.2881C14.384 21.0971 15.0078 21.7555 15.8205 21.7555C16.6333 21.7555 17.2948 21.1347 17.2948 20.3258C17.2948 19.5168 16.6711 18.8584 15.8583 18.8584C15.0645 18.8584 14.384 19.4792 14.384 20.2881ZM15.7637 25.3863C14.9509 25.3863 14.3271 24.7279 14.3271 23.9189C14.3461 23.11 15.0076 22.4892 15.8015 22.4892C16.6142 22.4892 17.238 23.1476 17.238 23.9566C17.238 24.7655 16.5764 25.3863 15.7637 25.3863ZM15.707 29.0359C16.5198 29.0359 17.1813 28.4151 17.1813 27.6062C17.1813 26.7972 16.5576 26.1388 15.7448 26.1388C14.9321 26.1388 14.2705 26.7596 14.2705 27.5685C14.2705 28.3587 14.8943 29.0359 15.707 29.0359ZM14.2139 31.1994C14.2139 30.3905 14.8754 29.7697 15.6882 29.7697C16.5009 29.7697 17.1247 30.4281 17.1247 31.237C17.1247 32.046 16.4631 32.6668 15.6504 32.6668C14.8376 32.6668 14.2139 32.0083 14.2139 31.1994Z" fill="#99A1AF"/>
</svg>
