<?xml version="1.0" encoding="UTF-8"?><svg id="_レイヤー_1" xmlns="http://www.w3.org/2000/svg" viewBox="0 0 500 500"><defs><style>.cls-1{fill:#314158;}</style></defs><path class="cls-1" d="M364.96,50.18c-48.29-12.47-88.6-27.97-105.57-39.66-16.96,11.69-57.28,27.19-105.57,39.66-44.94,11.6-85.12,17.57-107.01,16.72V221.11c0,101.87,58.32,194.75,150.07,239.01l62.5,30.15,62.5-30.15c91.75-44.26,150.07-137.14,150.07-239.01V66.9c-21.88,.85-62.07-5.12-107.01-16.72Zm-29.2,274.75c0,3.5-2.84,6.33-6.33,6.33H189.37c-3.5,0-6.33-2.84-6.33-6.33v-123.26c0-3.5,2.84-6.33,6.33-6.33h18.84v-9.65c0-28.23,22.96-51.19,51.19-51.19s51.19,22.96,51.19,51.19v9.65h18.84c3.5,0,6.33,2.84,6.33,6.33v123.26Z"/><path class="cls-1" d="M259.4,155.93c-16.41,0-29.76,13.35-29.76,29.76v9.65h59.51v-9.65c0-16.41-13.35-29.76-29.76-29.76Z"/></svg>