<svg width="2394" height="252" viewBox="0 0 2394 252" fill="none" xmlns="http://www.w3.org/2000/svg">
<path d="M159.328 217.792C146.528 217.792 134.581 215.573 123.488 211.136C112.395 206.699 102.581 200.469 94.048 192.448C85.6853 184.256 79.1147 174.613 74.336 163.52C69.5573 152.256 67.168 139.883 67.168 126.4C67.168 112.917 69.5573 100.629 74.336 89.536C79.1147 78.272 85.6853 68.6293 94.048 60.608C102.581 52.416 112.395 46.1013 123.488 41.664C134.581 37.2267 146.528 35.008 159.328 35.008C172.128 35.008 184.075 37.2267 195.168 41.664C206.432 46.1013 216.245 52.416 224.608 60.608C232.971 68.6293 239.541 78.272 244.32 89.536C249.099 100.629 251.488 112.917 251.488 126.4C251.488 139.883 249.099 152.256 244.32 163.52C239.541 174.613 232.885 184.256 224.352 192.448C215.989 200.469 206.261 206.699 195.168 211.136C184.075 215.573 172.128 217.792 159.328 217.792ZM159.328 179.648C168.715 179.648 176.907 177.344 183.904 172.736C190.901 168.128 196.363 161.813 200.288 153.792C204.213 145.771 206.176 136.64 206.176 126.4C206.176 115.989 204.213 106.859 200.288 99.008C196.363 90.9867 190.901 84.672 183.904 80.064C176.907 75.456 168.715 73.152 159.328 73.152C149.771 73.152 141.493 75.456 134.496 80.064C127.499 84.672 122.037 90.9867 118.112 99.008C114.357 106.859 112.48 115.989 112.48 126.4C112.48 136.64 114.357 145.771 118.112 153.792C122.037 161.813 127.499 168.128 134.496 172.736C141.493 177.344 149.771 179.648 159.328 179.648ZM428.74 36.8V216H383.94L317.124 107.456V216H272.58V36.8H317.38L384.196 146.112V36.8H428.74ZM591.23 74.176H501.374V107.712H568.446V142.528H501.374V178.624H591.23V216H456.83V36.8H591.23V74.176ZM679.168 126.4C679.168 113.088 681.301 100.885 685.568 89.792C690.005 78.528 696.149 68.8 704 60.608C712.021 52.416 721.579 46.1013 732.672 41.664C743.765 37.2267 755.968 35.008 769.28 35.008C789.419 35.008 806.656 40.0427 820.992 50.112C835.328 60.0107 845.568 73.664 851.712 91.072L813.056 99.52C809.984 93.2053 806.315 88.0853 802.048 84.16C797.781 80.064 792.917 77.0773 787.456 75.2C781.995 73.3227 775.936 72.384 769.28 72.384C759.723 72.384 751.531 74.7733 744.704 79.552C737.877 84.3307 732.672 90.816 729.088 99.008C725.504 107.029 723.712 116.16 723.712 126.4C723.712 136.811 725.504 146.112 729.088 154.304C732.672 162.325 737.877 168.725 744.704 173.504C751.531 178.112 759.723 180.416 769.28 180.416C775.936 180.416 782.165 179.477 787.968 177.6C793.771 175.552 798.976 172.309 803.584 167.872C808.192 163.264 812.117 157.291 815.36 149.952L852.992 157.632C846.848 176.747 836.523 191.595 822.016 202.176C807.509 212.587 789.931 217.792 769.28 217.792C755.968 217.792 743.765 215.573 732.672 211.136C721.579 206.699 712.021 200.469 704 192.448C696.149 184.256 690.005 174.613 685.568 163.52C681.301 152.256 679.168 139.883 679.168 126.4ZM968.49 74.176H959.53L909.866 216H863.786L929.322 36.8H999.978L1065 216H1018.92L968.49 74.176ZM911.658 142.784H1016.11V180.16H911.658V142.784ZM1073.42 36.8H1229.32V74.176H1173.51V216H1128.97V74.176H1073.42V36.8ZM1243.42 126.4C1243.42 113.088 1245.55 100.885 1249.82 89.792C1254.26 78.528 1260.4 68.8 1268.25 60.608C1276.27 52.416 1285.83 46.1013 1296.92 41.664C1308.02 37.2267 1320.22 35.008 1333.53 35.008C1353.67 35.008 1370.91 40.0427 1385.24 50.112C1399.58 60.0107 1409.82 73.664 1415.96 91.072L1377.31 99.52C1374.23 93.2053 1370.56 88.0853 1366.3 84.16C1362.03 80.064 1357.17 77.0773 1351.71 75.2C1346.24 73.3227 1340.19 72.384 1333.53 72.384C1323.97 72.384 1315.78 74.7733 1308.95 79.552C1302.13 84.3307 1296.92 90.816 1293.34 99.008C1289.75 107.029 1287.96 116.16 1287.96 126.4C1287.96 136.811 1289.75 146.112 1293.34 154.304C1296.92 162.325 1302.13 168.725 1308.95 173.504C1315.78 178.112 1323.97 180.416 1333.53 180.416C1340.19 180.416 1346.42 179.477 1352.22 177.6C1358.02 175.552 1363.23 172.309 1367.83 167.872C1372.44 163.264 1376.37 157.291 1379.61 149.952L1417.24 157.632C1411.1 176.747 1400.77 191.595 1386.27 202.176C1371.76 212.587 1354.18 217.792 1333.53 217.792C1320.22 217.792 1308.02 215.573 1296.92 211.136C1285.83 206.699 1276.27 200.469 1268.25 192.448C1260.4 184.256 1254.26 174.613 1249.82 163.52C1245.55 152.256 1243.42 139.883 1243.42 126.4ZM1440.58 36.8H1485.12V106.432H1552.71V36.8H1597.25V216H1552.71V143.808H1485.12V216H1440.58V36.8ZM1776.7 116.416C1781.99 116.416 1786.34 115.648 1789.75 114.112C1793.34 112.405 1795.98 109.931 1797.69 106.688C1799.57 103.445 1800.5 99.6053 1800.5 95.168C1800.5 88.6827 1798.54 83.5627 1794.62 79.808C1790.69 76.0533 1784.72 74.176 1776.7 74.176H1741.62V116.416H1776.7ZM1845.82 95.168C1845.82 102.336 1844.45 109.419 1841.72 116.416C1839.16 123.413 1835.15 129.728 1829.69 135.36C1824.4 140.992 1817.57 145.515 1809.21 148.928C1800.85 152.171 1790.95 153.792 1779.51 153.792H1741.62V216H1697.08V36.8H1779.51C1794.36 36.8 1806.65 39.5307 1816.38 44.992C1826.27 50.2827 1833.61 57.3653 1838.39 66.24C1843.34 75.1147 1845.82 84.7573 1845.82 95.168ZM1911.62 36.8V178.624H1989.7V216H1867.08V36.8H1911.62ZM2007.56 36.8H2052.11V147.392C2052.11 154.219 2053.47 160.107 2056.2 165.056C2058.93 169.835 2062.77 173.504 2067.72 176.064C2072.67 178.453 2078.47 179.648 2085.13 179.648C2091.96 179.648 2097.93 178.453 2103.05 176.064C2108.17 173.504 2112.1 169.835 2114.83 165.056C2117.73 160.107 2119.18 154.219 2119.18 147.392V36.8H2163.72V143.296C2163.72 155.755 2161.59 166.677 2157.32 176.064C2153.06 185.28 2147.17 193.045 2139.66 199.36C2132.32 205.504 2123.87 210.112 2114.31 213.184C2104.76 216.256 2094.77 217.792 2084.36 217.792C2070.37 217.792 2057.57 215.061 2045.96 209.6C2034.36 203.968 2025.06 195.691 2018.06 184.768C2011.06 173.675 2007.56 159.851 2007.56 143.296V36.8ZM2226.92 161.472C2227.77 166.421 2229.48 170.432 2232.04 173.504C2234.77 176.405 2238.01 178.539 2241.77 179.904C2245.69 181.099 2249.96 181.696 2254.57 181.696C2262.59 181.696 2268.73 180.075 2273 176.832C2277.44 173.419 2279.66 169.067 2279.66 163.776C2279.66 159.509 2278.29 156.096 2275.56 153.536C2273 150.976 2269.33 148.843 2264.55 147.136C2259.94 145.259 2254.57 143.381 2248.42 141.504C2241.6 139.627 2234.69 137.493 2227.69 135.104C2220.69 132.544 2214.21 129.387 2208.23 125.632C2202.26 121.707 2197.48 116.672 2193.9 110.528C2190.31 104.384 2188.61 96.704 2188.78 87.488C2188.78 76.224 2191.68 66.6667 2197.48 58.816C2203.28 50.9653 2211.13 45.0773 2221.03 41.152C2230.93 37.056 2242.28 35.008 2255.08 35.008C2266.69 35.008 2277.01 36.7147 2286.06 40.128C2295.1 43.5413 2302.53 48.576 2308.33 55.232C2314.3 61.7173 2318.48 69.824 2320.87 79.552L2279.91 86.72C2279.23 82.9653 2277.69 79.8933 2275.3 77.504C2272.91 75.1147 2270.01 73.408 2266.6 72.384C2263.36 71.1893 2260.11 70.592 2256.87 70.592C2252.78 70.592 2249.02 71.2747 2245.61 72.64C2242.19 74.0053 2239.38 75.968 2237.16 78.528C2235.11 81.088 2234.09 84.0747 2234.09 87.488C2234.09 91.2427 2235.28 94.3147 2237.67 96.704C2240.23 99.0933 2243.65 101.227 2247.91 103.104C2252.18 104.981 2256.87 106.773 2261.99 108.48C2268.99 110.699 2276.16 113.088 2283.5 115.648C2290.83 118.208 2297.66 121.536 2303.98 125.632C2310.29 129.557 2315.33 134.677 2319.08 140.992C2323.01 147.136 2324.97 154.901 2324.97 164.288C2324.97 174.357 2322.49 183.403 2317.54 191.424C2312.59 199.445 2305.17 205.845 2295.27 210.624C2285.37 215.403 2272.83 217.792 2257.64 217.792C2244.84 217.792 2233.32 216 2223.08 212.416C2213.01 208.661 2204.73 203.2 2198.25 196.032C2191.76 188.864 2187.5 180.075 2185.45 169.664L2226.92 161.472Z" fill="white"/>
</svg>
