<svg width="32" height="32" viewBox="0 0 32 32" fill="none" xmlns="http://www.w3.org/2000/svg">
<path fill-rule="evenodd" clip-rule="evenodd" d="M1.66331 2.89712C0.850551 2.89712 0.226807 2.23868 0.226807 1.42975C0.226807 0.620811 0.888354 0 1.70111 0C2.51387 0 3.15652 0.677249 3.13762 1.46737C3.13762 2.27631 2.47607 2.89712 1.66331 2.89712ZM29.0891 1.86243C29.0891 2.67136 29.7129 3.3298 30.5256 3.3298C31.3384 3.3298 31.9999 2.70899 31.9999 1.90005C31.9999 1.10993 31.3762 0.451491 30.5634 0.432678C29.7507 0.432678 29.0891 1.05349 29.0891 1.86243ZM29.0325 5.49325C29.0325 6.30219 29.6562 6.96063 30.469 6.96063C31.2817 6.96063 31.9433 6.33982 31.9433 5.53088C31.9433 4.72194 31.3195 4.06351 30.5068 4.06351C29.7129 4.06351 29.0325 4.68432 29.0325 5.49325ZM30.4123 10.6102C29.5996 10.6102 28.9758 9.95179 28.9758 9.14285C28.9758 8.33392 29.6374 7.7131 30.4501 7.7131C31.2629 7.7131 31.8866 8.37154 31.8866 9.18048C31.8866 9.98941 31.2251 10.6102 30.4123 10.6102ZM31.83 12.8113C31.83 12.0023 31.2063 11.3439 30.3935 11.3439C29.5807 11.3439 28.9192 11.9647 28.9192 12.7736C28.9192 13.5826 29.5429 14.241 30.3557 14.241C31.1684 14.241 31.83 13.6202 31.83 12.8113ZM30.3366 14.9747C31.1494 14.9747 31.7731 15.6332 31.7731 16.4421C31.7731 17.251 31.1116 17.8719 30.2988 17.8719C29.486 17.8719 28.8623 17.2134 28.8623 16.4045C28.8623 15.5955 29.5238 14.9747 30.3366 14.9747ZM25.4224 5.28631C25.4224 6.09525 26.0461 6.75369 26.8589 6.75369C27.6716 6.75369 28.3332 6.13288 28.3332 5.32394C28.3332 4.515 27.7094 3.85657 26.8967 3.85657C26.0839 3.85657 25.4224 4.47738 25.4224 5.28631ZM26.8022 10.3845C25.9895 10.3845 25.3657 9.72605 25.3657 8.91711C25.3657 8.10818 26.0273 7.48737 26.84 7.48737C27.6528 7.48737 28.2765 8.1458 28.2765 8.95474C28.2765 9.76367 27.615 10.3845 26.8022 10.3845ZM25.3088 12.5667C25.3088 13.3756 25.9326 14.0341 26.7453 14.0341C27.5581 14.0341 28.2196 13.4133 28.2196 12.6043C28.2196 11.7954 27.5959 11.137 26.7831 11.137C25.9704 11.137 25.3088 11.7578 25.3088 12.5667ZM26.6887 17.6649C25.8759 17.6649 25.2522 17.0065 25.2522 16.1975C25.2522 15.3886 25.9137 14.7678 26.7265 14.7678C27.5393 14.7678 28.163 15.4262 28.163 16.2352C28.163 17.0441 27.5015 17.6649 26.6887 17.6649ZM25.1956 19.8283C25.1956 20.6372 25.8193 21.2957 26.6321 21.2957C27.4448 21.2957 28.1064 20.6749 28.1064 19.8659C28.1064 19.057 27.4826 18.3986 26.6699 18.3986C25.8571 18.3986 25.1956 19.0194 25.1956 19.8283ZM23.1919 10.328C22.3791 10.328 21.7554 9.66959 21.7554 8.86066C21.7554 8.05172 22.4169 7.43091 23.2297 7.43091C24.0424 7.43091 24.6662 8.08934 24.6662 8.89828C24.6662 9.70722 24.0046 10.328 23.1919 10.328ZM21.6987 12.5103C21.6987 13.3192 22.3225 13.9777 23.1352 13.9777C23.948 13.9777 24.6095 13.3568 24.6095 12.5479C24.6095 11.739 23.9858 11.0805 23.173 11.0805C22.3603 11.0805 21.7176 11.7013 21.6987 12.5103ZM23.0786 17.6085C22.2658 17.6085 21.6421 16.95 21.6421 16.1411C21.6421 15.3321 22.3036 14.7113 23.1164 14.7113C23.9292 14.7113 24.5529 15.3698 24.5529 16.1787C24.5529 16.9876 23.8914 17.6085 23.0786 17.6085ZM21.5854 19.7719C21.5854 20.5808 22.2092 21.2393 23.022 21.2393C23.8347 21.2393 24.4963 20.6185 24.4963 19.8095C24.4963 19.0006 23.8725 18.3422 23.0598 18.3422C22.247 18.3422 21.5854 18.963 21.5854 19.7719ZM23.0219 21.9918C23.8347 21.9918 24.4584 22.6502 24.4584 23.4591C24.4584 24.2681 23.7969 24.8889 22.9841 24.8889C22.1714 24.8701 21.5476 24.2304 21.5476 23.4215C21.5476 22.6126 22.2092 21.9918 23.0219 21.9918ZM18.0886 12.4727C18.0886 13.2816 18.7124 13.94 19.5251 13.94C20.3379 13.94 20.9994 13.3192 20.9994 12.5103C20.9994 11.7013 20.3757 11.0429 19.5629 11.0429C18.7502 11.0429 18.0886 11.6637 18.0886 12.4727ZM19.5251 14.6925C20.3378 14.6925 20.9616 15.351 20.9616 16.1599C20.9616 16.9688 20.3 17.5897 19.4873 17.5897C18.6745 17.5897 18.0508 16.9312 18.0508 16.1223C18.0508 15.3133 18.7123 14.6925 19.5251 14.6925ZM20.9049 19.7907C20.9049 18.9818 20.2812 18.3234 19.4684 18.3234C18.6557 18.3234 17.9941 18.9442 17.9941 19.7531C17.9941 20.562 18.6179 21.2205 19.4306 21.2205C20.2434 21.2205 20.9049 20.5997 20.9049 19.7907ZM17.9375 23.3839C17.9375 22.575 18.599 21.9542 19.4118 21.9542C20.2246 21.973 20.8483 22.6314 20.8483 23.4215C20.8483 24.2305 20.1868 24.8513 19.374 24.8513C18.5612 24.8513 17.9375 24.1928 17.9375 23.3839ZM20.7914 27.0711C20.7914 26.2622 20.1677 25.6038 19.3549 25.6038C18.5422 25.6038 17.8806 26.2246 17.8806 27.0335C17.8806 27.8236 18.5044 28.4821 19.3171 28.5009C20.1299 28.5009 20.7914 27.8801 20.7914 27.0711ZM3.08098 5.117C3.08098 4.30806 2.45723 3.64963 1.64447 3.64963C0.831713 3.64963 0.170166 4.27044 0.170166 5.07937C0.170166 5.88831 0.793911 6.54675 1.60667 6.54675C2.41943 6.54675 3.08098 5.92594 3.08098 5.117ZM1.55003 10.1587C0.73727 10.1587 0.113525 9.50028 0.113525 8.69134C0.113525 7.88241 0.775073 7.2616 1.58783 7.2616C2.40059 7.2616 3.02433 7.92003 3.02433 8.72897C3.02433 9.5379 2.36279 10.1587 1.55003 10.1587ZM0.0566406 12.341C0.0566406 13.1499 0.680386 13.8083 1.49314 13.8083C2.3059 13.8083 2.96745 13.1875 2.96745 12.3786C2.96745 11.5697 2.3437 10.9112 1.53095 10.9112C0.73709 10.9112 0.0566406 11.532 0.0566406 12.341ZM1.4365 17.4391C0.623745 17.4391 0 16.7807 0 15.9718C0 15.1628 0.680449 14.5232 1.47431 14.542C2.28706 14.542 2.91081 15.2005 2.91081 16.0094C2.91081 16.8183 2.24926 17.4391 1.4365 17.4391ZM3.78027 4.96649C3.78027 5.77543 4.40402 6.43386 5.21678 6.43386C6.02953 6.43386 6.69108 5.81305 6.69108 5.00412C6.69108 4.19518 6.06734 3.53674 5.25458 3.53674C4.46072 3.53674 3.78027 4.15755 3.78027 4.96649ZM6.63444 8.63491C6.63444 9.44385 5.97289 10.0647 5.16014 10.0647C4.34738 10.0647 3.72363 9.40623 3.72363 8.59729C3.74253 7.78835 4.40408 7.16754 5.19794 7.16754C6.0107 7.16754 6.63444 7.82598 6.63444 8.63491ZM5.10325 13.6955C5.91601 13.6955 6.57756 13.0746 6.57756 12.2657C6.57756 11.4568 5.95381 10.7983 5.14105 10.7983C4.3472 10.7983 3.68565 11.4192 3.66675 12.2281C3.66675 13.037 4.29049 13.6955 5.10325 13.6955ZM5.04661 17.3263C4.23385 17.3263 3.61011 16.6679 3.61011 15.8589C3.61011 15.05 4.29056 14.4292 5.08441 14.4292C5.89717 14.4292 6.52092 15.0876 6.52092 15.8965C6.52092 16.7055 5.85937 17.3263 5.04661 17.3263ZM3.55347 19.5085C3.55347 20.3175 4.17721 20.9759 4.98997 20.9759C5.80273 20.9759 6.46428 20.3551 6.46428 19.5462C6.46428 18.7372 5.84053 18.0788 5.02777 18.0788C4.23392 18.0788 3.55347 18.6996 3.55347 19.5085ZM8.77024 10.1211C7.95748 10.1211 7.33374 9.46268 7.33374 8.65375C7.35264 7.84481 8.01419 7.224 8.80805 7.224C9.6208 7.224 10.2445 7.88244 10.2445 8.69137C10.2445 9.50031 9.583 10.1211 8.77024 10.1211ZM7.2771 12.2845C7.2771 13.0935 7.90085 13.7519 8.7136 13.7519C9.52636 13.7519 10.1879 13.1311 10.1879 12.3222C10.1879 11.5132 9.56416 10.8548 8.75141 10.8548C7.95755 10.8548 7.2771 11.4756 7.2771 12.2845ZM8.65672 17.3827C7.84396 17.3827 7.22021 16.7243 7.22021 15.9153C7.23912 15.1064 7.88176 14.4856 8.69452 14.4856C9.50728 14.4856 10.131 15.144 10.131 15.953C10.131 16.7619 9.46948 17.3827 8.65672 17.3827ZM8.60008 21.0323C9.41284 21.0323 10.0744 20.4115 10.0744 19.6026C10.0744 18.7936 9.45064 18.1352 8.63788 18.1352C7.82512 18.1352 7.18248 18.756 7.16357 19.5649C7.16357 20.3551 7.78732 21.0323 8.60008 21.0323ZM8.58124 21.766C9.394 21.766 10.0177 22.4244 10.0177 23.2334C10.0177 24.0423 9.33729 24.6631 8.54344 24.6631C7.73068 24.6443 7.10693 24.0047 7.10693 23.1957C7.10693 22.3868 7.76848 21.766 8.58124 21.766ZM10.8872 12.3786C10.8872 13.1875 11.511 13.846 12.3237 13.846C13.1365 13.846 13.798 13.2252 13.798 12.4162C13.798 11.6073 13.1743 10.9489 12.3615 10.9489C11.5677 10.9489 10.9061 11.5697 10.8872 12.3786ZM12.2671 17.4768C11.4543 17.4768 10.8306 16.8183 10.8306 16.0094C10.8306 15.2005 11.511 14.5797 12.3049 14.5797C13.1176 14.5797 13.7414 15.2381 13.7414 16.047C13.7414 16.856 13.0798 17.4768 12.2671 17.4768ZM13.6845 19.6778C13.6845 18.8689 13.0607 18.2104 12.248 18.2104C11.4352 18.2104 10.7737 18.8313 10.7737 19.6402C10.7737 20.4491 11.3974 21.1076 12.2102 21.1076C13.004 21.1076 13.6845 20.4868 13.6845 19.6778ZM12.1913 21.8601C13.0041 21.8601 13.6278 22.5185 13.6278 23.3275C13.6278 24.1364 12.9474 24.7572 12.1535 24.7572C11.3408 24.7572 10.717 24.0988 10.717 23.2899C10.717 22.4809 11.3786 21.8601 12.1913 21.8601ZM10.6604 26.9207C10.6604 27.7296 11.2841 28.388 12.0969 28.388C12.9097 28.388 13.5712 27.7672 13.5712 26.9583C13.5712 26.1682 12.9475 25.5097 12.1347 25.4909C11.3408 25.4909 10.6604 26.1117 10.6604 26.9207ZM15.8772 17.458C15.0644 17.458 14.4407 16.7995 14.4407 15.9906C14.4407 15.1817 15.1211 14.5609 15.915 14.5609C16.7277 14.5609 17.3515 15.2193 17.3515 16.0282C17.3515 16.8372 16.6899 17.458 15.8772 17.458ZM14.384 19.6214C14.384 20.4303 15.0078 21.0888 15.8205 21.0888C16.6333 21.0888 17.2948 20.468 17.2948 19.659C17.2948 18.8501 16.6711 18.1917 15.8583 18.1917C15.0645 18.1917 14.384 18.8125 14.384 19.6214ZM15.7637 24.7196C14.9509 24.7196 14.3271 24.0611 14.3271 23.2522C14.3461 22.4433 15.0076 21.8224 15.8015 21.8224C16.6142 21.8224 17.238 22.4809 17.238 23.2898C17.238 24.0988 16.5764 24.7196 15.7637 24.7196ZM15.707 28.3692C16.5198 28.3692 17.1813 27.7484 17.1813 26.9394C17.1813 26.1305 16.5576 25.472 15.7448 25.472C14.9321 25.472 14.2705 26.0929 14.2705 26.9018C14.2705 27.6919 14.8943 28.3692 15.707 28.3692ZM14.2139 30.5327C14.2139 29.7237 14.8754 29.1029 15.6882 29.1029C16.5009 29.1029 17.1247 29.7613 17.1247 30.5703C17.1247 31.3792 16.4631 32 15.6504 32C14.8376 32 14.2139 31.3416 14.2139 30.5327Z" fill="#00AAD4"/>
</svg>
