<?xml version="1.0" encoding="utf-8"?>
<!-- Generator: Adobe Illustrator 26.5.3, SVG Export Plug-In . SVG Version: 6.00 Build 0)  -->
<svg version="1.1" id="レイヤー_1" xmlns="http://www.w3.org/2000/svg" xmlns:xlink="http://www.w3.org/1999/xlink" x="0px"
	 y="0px" viewBox="0 0 180 131" style="enable-background:new 0 0 180 131;" xml:space="preserve">
<path fill="#FFE100" d="M55.9,61.7c0,0,0.1-0.1,0.2-0.1c-0.1,0-0.2,0-0.2,0L55.9,61.7z M144.9,63.8c-0.5-0.2-1-0.1-1.5-0.1
	c-0.1,0-0.2-0.1-0.2-0.1c-0.4-0.2-0.8-0.3-1.1-0.4c-0.7-0.2-1.3-0.4-2-0.6c-0.1,0-0.2,0-0.2-0.1c-0.3-0.3-0.7-0.5-0.8-0.8
	c-0.1-0.4,0.1-0.9,0.2-1.3c0.1-0.2,0.2-0.5,0.3-0.7c0,0,0-0.1,0-0.1c0,0,0,0,0,0c0.1-0.2,0.2-0.4,0.3-0.6c-0.2-0.3-0.3-0.6-0.5-0.8
	c-0.2-0.4-0.3-0.8-0.1-1.2c0.1-0.2,0.1-0.3,0.2-0.5c0.3-0.4,0.1-0.7-0.2-1c-0.3-0.3-0.5-0.6-0.8-1c-0.3-0.4-0.3-0.9,0.1-1.3
	c0.1-0.2,0.3-0.3,0.4-0.4c-0.7-0.4-1.3-0.8-2-1.2c-0.2-0.1-0.4-0.3-0.6-0.4c-0.6-0.5-1.3-0.9-1.8-1.5c-0.7-0.7-1.4-1.4-2-2.1
	c-0.4-0.4-0.6-0.4-0.8,0.1c-0.1,0.3-0.3,0.6-0.4,0.9c0.6,0.3,0.7,0.8,0.7,1.5c0,0.2,0,0.4,0,0.6c0,0.5,0,0.9-0.1,1.4
	c-0.2,0.9-0.4,1.8-0.6,2.7c0.6,0.2,1.2,0.3,1.8,0.5c0.4,0.2,0.9,0.3,1.2,0.6c1.5,0.8,2.5,2.1,3,3.8c0,0.1,0.1,0.2,0.1,0.4
	c0.2,0.8,0.2,1.5,0.1,2.3c-0.1,1-0.7,1.8-1.1,2.6c-0.4,0.8-0.8,1.5-1,2.4c0.4,0.2,0.4,0.2,0.7,0.8c0.4,0.8,0.8,1.5,1.8,1.5
	c0.3,0,0.6,0.1,0.8,0.1c0.6,0,1.1,0.1,1.6,0.3c0.4,0.2,0.9,0.4,1.4,0.7c0.1-0.2,0.2-0.3,0.3-0.4c0-0.2,0.1-0.4,0.2-0.6
	c0.4-0.6,0.7-1.2,1.1-1.8c0.4-0.6,0.8-1.2,1.2-1.7c0.4-0.6,0.8-1.2,1-1.8c0-0.2,0.1-0.3,0.1-0.5C145.2,63.6,145,63.8,144.9,63.8
	L144.9,63.8z M128,36.9c-0.2-0.4-0.3-0.5-0.8-0.3c-0.1,0-0.2,0.1-0.4,0.2c-0.4,0.2-0.9,0.3-1.4,0.2c-0.3-0.1-0.5,0-0.8,0.2
	c-0.3,0.2-0.6,0.3-0.9,0.3c-0.8,0.1-1.5,0.2-2.2,0.2c-0.2,0-0.3,0.1-0.5,0.1c-0.6,0.2-1.2,0.3-1.7,0.4c-0.7,0.1-1.5,0.2-2.3,0.3
	c0.5,0.3,1.1,0.6,1.4,0.9c0.2,0.2,0.4,0.5,0.7,0.8c0.5,0,1-0.1,1.5-0.2c1-0.2,1.9-0.1,2.9,0l1,0.1c0,0.2-0.1,0.4-0.2,0.5h0.5
	c0-0.5-0.4-0.6-0.6-0.8c0.1-0.3,0.2-0.5,0.4-0.8c0.3-0.6,1.1-1,1.8-0.8c0.6,0.2,0.9,0.6,0.9,1.4c0,0.1,0,0.1,0.1,0.2
	c0.2-0.1,0.5-0.1,0.7-0.2c0,0,0,0,0,0c0.1,0,0.2,0,0.3,0c0.1,0,0.3-0.1,0.4-0.1c-0.1-0.7-0.3-1.3-0.4-1.9
	C128.2,37.3,128.1,37.1,128,36.9 M124.6,38.2c0-0.4,0.2-0.6,0.7-0.7C125.1,37.8,124.9,38,124.6,38.2 M124.7,43.1
	c-1.3-0.1-2.6-0.1-3.9,0.2c-0.1,0.7-0.5,1.3-1,1.8c-0.1,0.1-0.1,0.2-0.1,0.2c-0.2,0.3-0.4,0.6-0.8,0.8c-0.3,0.2-0.7,0.3-1,0.3
	c-0.8,0.1-1.6,0.1-2.4,0.2c1.1,1.2,1.9,2.6,1.4,4.3c0.7,0.6,1.4,0.9,2.3,1.1c0.1,0,0.3,0,0.4,0c0.1,0,0.2,0,0.3,0.1c0,0,0,0,0,0.1
	c0.4,0.1,0.9,0.1,1.3,0.2c0.1-0.3,0.3-0.7,0.4-1.1c0.5-1.3,1-2.6,1.8-3.7c0.4-0.5,0.8-1,0.9-1.7c0-0.1,0.1-0.2,0.2-0.3
	c0.1-0.3,0.2-0.7,0.2-1C124.5,44.1,124.5,43.6,124.7,43.1L124.7,43.1z M119.3,55.8c-1.2-0.2-2.3-0.5-3.3-1c-0.4,0.2-0.7,0.4-1.1,0.7
	c0,0.3-0.2,0.7-0.5,1c-0.8,0.6-1.7,0.9-2.7,0.8c-0.2,0-0.4,0-0.5,0c-0.7,0.3-1.3,0.2-2,0c-0.9-0.2-1.9-0.5-2.6-1.2
	c-0.9-0.9-1.8-1.9-1.9-3.3c-0.1-1,0.1-2,0.2-3c0-0.1,0-0.2,0.1-0.2c0.3-0.2,0.3-0.5,0.3-0.8c0-0.8,0.4-1.4,0.9-1.9
	c0.2-0.2,0.4-0.5,0.6-0.7c0.5-0.6,1.1-1,1.8-1.2c0.1-0.1,0.2-0.1,0.3-0.2c0.1,0,0.1,0,0.2,0.1c0.4-0.1,0.8-0.2,1.2-0.2
	c0.1,0.2,0.2,0.3,0.3,0.4c0.3-0.1,0.7,0,1,0.1c0,0,0.1,0,0.1,0l0.3,0c-0.7-0.7-1.1-1.3-1.3-2.1c-0.4-1.5-0.1-2.8,0.9-3.9
	c0.2-0.2,0.3-0.5,0.5-0.7c-0.1,0-0.2-0.1-0.2-0.1c-1.2,0-2.3,0.1-3.5-0.1c-1.1-0.2-2.2-0.2-3.3-0.4c-0.8-0.1-1.5-0.3-2.3-0.3
	c-0.3,0-0.7,0-1-0.1c-1.2-0.3-2.3-0.5-3.4-1c-0.5-0.2-1-0.4-1.5-0.5c-1.2-0.3-2.4-0.3-3.4-0.9c0,0-0.1,0-0.1,0
	c-0.6,0-1.2-0.3-1.8-0.4c-0.5-0.1-1.1-0.3-1.6-0.4c-0.4-0.1-0.9-0.1-1.3-0.2c-0.8-0.1-1.5-0.3-2.2-0.4c-0.6-0.1-1.2-0.4-1.9-0.3
	c0,0,0,0.1,0,0.2c0,0.3-0.1,0.5-0.4,0.5c-0.2,0-0.5,0-0.8,0c0-0.3,0.1-0.5,0.1-0.6c-0.2,0.1-0.3,0.3-0.5,0.5
	c-0.1,0.1-0.2,0.2-0.3,0.3c-0.4,0.5-0.8,0.9-1.2,1.4c-0.3,0.4-0.6,0.9-1,1.3c-0.6,0.6-1.1,1.2-1.6,1.8c-0.7,0.9-1.3,1.8-1.8,2.8
	c-0.1,0.2-0.2,0.3-0.3,0.4c-0.2,0.2-0.5,0.4-0.7,0.7c-0.4,0.5-0.8,1-1.3,1.5c-0.5,0.6-1,1.2-1.4,1.8c-0.8,1.1-1.5,2.2-2.3,3.3
	c-0.2,0.3-0.5,0.4-0.8,0.7c-0.4,0.3-0.8,0.7-1.2,1.1c-0.6,0.6-1.3,1-1.9,1.4c-0.5,0.3-1.1,0.3-1.6,0.5c-1.1,0.4-2.2,0.8-3.3,1.2
	c-0.9,0.3-1.8,0.5-2.7,0.7c-0.5,0.1-1.1,0.2-1.7,0.3c-0.7,0.1-1.3,0.2-1.9,0.2c-1,0-2.1,0-3.1,0c-1.9,0.1-3.6-0.3-5.4-0.7
	c-1.3-0.3-2.6-0.7-3.8-1.6c-0.3,0.6-0.6,1.1-1,1.6c-0.1,0.2-0.3,0.3-0.4,0.3c-0.6,0.2-1.2,0.3-1.7,0.4c-0.3,0.6-0.5,1.3-0.8,1.8
	c-0.2,0.3-0.5,0.5-0.8,0.7c-0.1,0.1-0.4-0.1-0.6-0.2c-0.1,0.3-0.2,0.6-0.6,0.6c-1,0.1-2-0.3-2.8-0.8c-0.4-0.2-0.7-0.5-1-0.8
	c-0.3-0.2-0.3-0.6-0.2-0.9c0.2-0.7,0.5-1.4,0.8-2.1c0.2-0.3,0.2-0.6-0.1-1c-0.2-0.2-0.3-0.5-0.5-0.7c-0.3-0.5-0.3-1.1,0.1-1.4
	c0.2-0.2,0.4-0.4,0.5-0.6c0,0,0,0-0.1,0c0.2-0.5,0.5-1.1,0.7-1.6c0-0.1,0-0.2,0-0.3c-0.7,0.4-1.5,0.4-2.1,0.9
	c-0.2,0.2-0.6,0.3-0.9,0.4c-0.3,0.1-0.4,0.2-0.6,0.4c-0.7,0.9-1.1,1.8-1.2,2.9c0,0.3-0.1,0.6-0.2,0.8c-0.4,1.3-0.8,2.7-1.3,4
	c-0.5,1.3-0.4,2.7-0.6,4c-0.2,1.1-0.2,2.3-0.4,3.5c-0.1,1.1,0,2.1,0.1,3.2c0.1,0.9,0.3,1.8,0.5,2.7c0.2,0.7,0.4,1.5,0.9,2.1
	c0.9,1.1,1.8,2.2,2.8,3.2c1,1.1,2.2,1.8,3.5,2.4c1.5,0.6,3,1,4.5,1.1c0.7,0.1,1.4,0.2,2.1,0.5c0.2,0.1,0.4,0.1,0.6,0.1
	c1.1,0,2.2-0.1,3.3,0c1.3,0.1,2.7-0.2,4,0.2c0.1-0.2,0.1-0.4,0.3-0.5c0.4-0.4,0.6-1,0.7-1.5c0.3-1.1,0.7-2,1.4-2.8
	c0.2-0.3,0.4-0.5,0.7-0.7c0.3-0.5,0.6-1,1-1.5c0.3-0.5,0.8-0.9,1.1-1.3c0.1-0.1,0.2-0.2,0.4-0.3c0.8-0.3,1.6-0.7,2.4-1
	c0.8-0.2,1.7-0.3,2.5-0.4c0.3,0,0.6,0,1,0.1c0.9-0.2,1.8-0.3,2.6-0.3c1.5-0.1,2.9-0.1,4.4-0.1c0.9,0,1.8-0.1,2.7-0.2
	c1.8-0.3,3.7-0.3,5.5-0.2c2,0,4,0.1,5.9,0.1c1.7,0,3.5,0,5.2,0c0.5,0,0.9,0,1.4,0c1.4,0,2.9,0.2,4.3,0.2c0.4,0,0.9-0.1,1.4-0.1
	c0.5,0,0.9,0.1,1.4,0.1c0.4,0,0.8-0.1,1.2-0.1c0.2,0,0.5-0.1,0.7-0.1c1.1,0,2.2,0.1,3.3,0.1c1.5,0,3,0.4,4.4,1
	c1.1,0.5,1.9,1.2,2.5,2.3c0.3,0.6,0.5,1.2,0.7,1.8c0.2,0.4,0.3,0.8,0.2,1.3c-0.1,0.3,0.1,0.4,0.2,0.6c0.2-0.2,0.5-0.3,0.7-0.4
	c0.2-0.2,0.5-0.3,0.8-0.2c1,0.2,1.6,1.5,0.9,2.3c-0.2,0.2-0.4,0.4-0.7,0.4c-0.6,0-0.9-0.2-1.1-0.8c-0.1-0.3-0.2-0.7-0.6-1
	c0.1,0.9,0.2,1.7,0.3,2.5c1.4-0.1,2.7-0.3,4.2-0.4c-0.1-0.2-0.2-0.4-0.2-0.6c-0.5-1-0.9-2-1.2-3.1c-0.4-1.4-0.5-2.9-0.4-4.3
	c0.1-1,0.2-1.9,0.4-2.9c0.2-1.1,0.4-2.1,1.4-2.7c0,0,0.1-0.1,0.1-0.1c0.3-0.8,0.9-1.3,1.5-1.8c0.4-0.4,0.8-0.8,1.3-1
	c0.4-0.2,0.6-0.8,1.1-0.6c0.2-0.5,0.5-1,0.6-1.5c0.3-1.2,0.5-2.3,0.7-3.5c0-0.2,0.1-0.4,0.1-0.6C119.8,55.9,119.7,55.8,119.3,55.8
	L119.3,55.8z M46.1,74.7c-1,0.3-1.8,0.9-2.9,1c-1.2,0.1-2.3,0.3-3.5-0.2c-0.3-0.1-0.7-0.2-1-0.2c-0.1,0-0.2,0-0.3-0.1
	c-1.5-0.7-2.9-1.5-3.7-3.1c-1-2-1.2-4-0.6-6.1c0.3-1.1,0.8-2.2,1.5-3.2c0-0.1,0.1-0.2,0.2-0.2c0.1-0.3,0.3-0.5,0.5-0.7
	c0.4-0.5,0.9-1,1.4-1.3c0.2-0.3,0.4-0.7,0.8-0.9c0,0,0.1,0,0.1-0.1c0.5-0.7,1.1-0.6,1.8-0.5c0.1,0,0.2,0,0.4,0.1
	c0.3,0,0.7-0.1,0.9-0.1c1.7,0.1,3.3,0.3,4.7,1.2c0.9,0.6,1.7,1.3,2.3,2.2c0.5,0.7,0.8,1.6,0.9,2.5c0,0.2,0.1,0.5,0.2,0.8
	c0.3,1.4,0.2,2.9-0.3,4.2c-0.1,0.3-0.3,0.6-0.4,1c-0.1,0.3-0.2,0.5-0.2,0.8c0,0.6-0.4,1.1-0.7,1.6c0,0,0,0,0,0
	c-0.4,0.2-0.8,0.3-1.1,0.6C46.7,74.3,46.5,74.6,46.1,74.7L46.1,74.7z M49.9,78.6c-0.3,0.1-0.7,0.3-1,0.3c-0.4,0.1-0.1,0.3-0.3,0.5
	c-0.4-0.2-0.8-0.3-1.2-0.6c-0.4-0.3-0.6-0.7-0.6-1.2c0-0.2,0-0.4,0.1-0.7c0.1,0,0.2,0,0.4,0.1c0.1-0.1,0.1-0.2,0.2-0.3
	c0.1-0.1,0.1-0.2,0.2-0.3c-0.2,0.1-0.4,0.1-0.7,0.2c-0.1-0.8,0.3-1.4,0.9-1.6c0.3-0.1,0.7,0,0.8,0.3c0.1,0.2,0.1,0.4,0,0.6
	c0.1,0,0.2,0,0.3,0c0.8,0.1,1.5,0.7,1.6,1.3C50.7,77.7,50.3,78.5,49.9,78.6L49.9,78.6z M63.5,67.9c-0.3,0.5-0.8,0.8-1.2,1.1
	c-0.2,0.2-0.5,0.3-0.8,0.4c-0.5,0.2-0.9,0.4-1.5,0.2c-0.4-0.1-0.8-0.1-1.2,0.1c-0.2,0.1-0.4,0.1-0.6,0.1c-2.1-0.5-3.7-1.8-3.8-4.4
	c0-0.2,0-0.5,0-0.7c-0.2-0.8-0.2-1.6,0-2.3c0.1-0.5,0.3-1,0.9-1.3c0.1,0,0.1-0.1,0.2-0.1c0.6,0.3,1-0.3,1.4-0.5
	c0.1,0,0.2-0.1,0.2-0.1c0.7-0.1,1.3-0.2,2-0.1c0.5,0,1.1,0.2,1.5,0.4c0.1,0,0.2,0,0.4,0.1c0.5,0.2,1,0.3,1.4,0.5
	c1.3,0.6,1.9,1.7,2,2.9C64.3,65.6,64.1,66.8,63.5,67.9L63.5,67.9z M86,36.4c-0.4,0.7-1.2,0.7-1.8,0.5c-0.4-0.2-0.8-0.4-1.2-0.5
	c0.1-0.4,0.1-0.8,0.2-1.2c0.1-0.5,0.3-1,0.9-1.2c0.6-0.2,1.4,0.1,1.8,0.6C86.3,35.1,86.3,35.7,86,36.4L86,36.4z M111,76
	c-0.3,0-0.6,0.1-0.9,0.1c0-0.4,0.1-0.7,0.5-0.7c0.2,0,0.3,0.2,0.4,0.3L111,76z M131.8,57.8c-0.4,0-0.7-0.1-0.9-0.5
	c0,0-0.1,0-0.3-0.1c-0.1,0.9-0.2,1.7-0.3,2.5c-0.1,0.8-0.1,1.6-0.5,2.4c0.8,0.5,1.6,1.1,2.4,1.6c0.1-0.5,0.2-1,0.4-1.4
	c0.4-0.8,0.5-1.8,0.6-2.7C133.3,58.9,132.5,57.8,131.8,57.8L131.8,57.8z"/>
<path fill="#231815" d="M124.7,49.9c-0.3,0.7-0.6,1.3-0.8,2c-0.2,0.5-0.1,1,0.3,1.4c0.4-1,0.7-2,0.8-3c0-0.2-0.1-0.4-0.1-0.7
	C124.8,49.8,124.7,49.9,124.7,49.9L124.7,49.9z M113.3,116.9c0.2,0,0.4-0.1,0.7-0.2c0.2-0.1,0.4-0.2,0.6-0.2c0.3,0,0.4-0.2,0.4-0.4
	c0.1-0.3,0.1-0.6,0.2-0.9c0-0.1,0-0.2,0-0.2c-0.4-0.4-0.6-0.9-1.3-1c-0.3,0-0.5-0.1-0.7-0.1c-0.2,0.3-0.4,0.6-0.6,0.8
	c-0.2,0.2-0.4,0.5-0.4,0.7C112,116.6,112.2,117.1,113.3,116.9L113.3,116.9z M154.1,33.6c0.3-0.1,0.6-0.2,0.8-0.4
	c0.2-0.1,0.3-0.7,0.2-0.9c-0.1-0.3-0.3-0.5-0.6-0.5H153c-0.1,0.2-0.1,0.4-0.2,0.6C152.6,33.2,153.3,33.8,154.1,33.6 M126.2,119.6
	c0.4-0.1,1,0,1.2-0.6c0.7,0.4,1.4,0.3,1.8-0.3c0.3-0.3,0.5-0.7,0.7-1.1c0.6-1.2,0-3.2-1.1-4.2c-0.7-0.6-1.5-0.8-2.4-0.8
	c-0.3,0-0.7,0-0.9-0.3c-0.2,0.1-0.3,0.2-0.4,0.2c-0.6,0-1.1,0.3-1.3,0.8c-0.1,0.2-0.3,0.4-0.5,0.6c-0.2,0.5-0.5,0.9-0.6,1.4
	c-0.2,1.2,0.2,2.3,1,3.2C124.4,119.2,125.3,119.7,126.2,119.6L126.2,119.6z M124.7,114.9c-0.1,0.4-0.1,0.6-0.2,0.9
	c0.4,0,0.6,0.2,0.7,0.6c0.1,0.3,0.4,0.4,0.6,0.3c0.5-0.1,0.9-0.3,1.3-0.4c0-0.7-0.3-1.2-0.7-1.7c-0.4,0.1-0.8,0.2-1.2-0.2l0,0
	l-0.3,0.4c-0.1-0.3,0-0.5,0.2-0.6l0.1,0.1c0.3-0.1,0.5-0.1,0.7-0.2c0.2-0.1,0.5-0.1,0.7-0.3c0.5-0.4,0.8-0.4,1.2,0.1
	c0.5,0.7,0.6,1.9,0.2,2.6c0,0.1-0.1,0.2-0.2,0.2c-0.6,0.3-1.3,0.7-2,1.1c0,0.1-0.1,0.3-0.2,0.5c-0.9-0.1-1.4-0.7-1.5-1.4
	C124,116.3,123.9,115.5,124.7,114.9L124.7,114.9z M112.2,103.9c0,0.4,0.2,0.7,0.7,0.8c0.2,0,0.3,0.2,0.4,0.2
	c0.1,0.1,0.2,0.1,0.3,0.1c0.6,0,1.2-0.1,1.7-0.1c0.4-0.4,0.8-0.6,1-1c0.5-0.6,1-1.2,1.3-2c0.4-1,0.3-2.2-0.4-3
	c-0.9-1-2.2-1.6-3.6-1.5c-0.7,0-1.4,0.2-2.3,0.4c0.2,0.3,0.4,0.5,0.6,0.7c-0.2,0.2-0.4,0.3-0.6,0.5c-0.4,0.4-0.7,0.8-0.9,1.3
	C109.7,101.9,110.5,103.5,112.2,103.9L112.2,103.9z M112,100.6c-0.2-0.4,0-0.8,0.4-1c0.1-0.1,0.2-0.2,0.2-0.2c0.4-0.6,1-0.8,1.7-0.9
	c0.9-0.1,1.8,0.9,1.6,1.9c0,0.3-0.2,0.6-0.3,0.9c-0.2-0.2-0.3-0.3-0.3-0.3c0.2-0.5-0.3-0.8-0.4-1.1c-0.1-0.2-0.2-0.5-0.7-0.5
	c-0.3,0-0.6,0-0.8,0.3c-0.2,0.2-0.4,0.2-0.6,0.2s-0.3,0.4-0.2,0.5c0.4,0.2,0.4,0.5,0.5,0.8c0.2,0.7,0.4,0.8,1,0.7
	c0.4-0.1,0.9-0.2,1.3-0.3c-0.2,0.6-0.6,0.9-1.1,1c-0.7,0.1-1.4,0.2-2.1,0.3c-0.3,0.1-0.6-0.1-0.7-0.4
	C111.5,101.8,111.3,101.1,112,100.6L112,100.6z M178.4,27.7c-0.5-1.5-0.9-2.9-1.4-4.3c-0.1-0.2-0.2-0.5-0.2-0.7
	c-0.3-1.5-1-2.8-1.7-4.2c-0.6-1.2-1.3-2.4-2.1-3.5c-0.8-1.1-1.6-2.1-2.5-3.1c-1.1-1.2-2.3-2.2-3.7-3.1c-1.3-0.8-2.6-1.4-4-1.9
	c-0.7-0.3-1.4-0.5-2.1-0.7c-1.2-0.3-2.4-0.4-3.6-0.6c-1.1-0.2-2.1-0.4-3.2-0.4c-1.2,0-2.4,0.1-3.6,0.2c-0.2,0.3-0.4,0.4-0.6,0.6
	c-0.3,0.2-0.6,0.3-1,0.4c-0.1-0.1-0.2-0.1-0.4-0.2c-0.1,0.1-0.1,0.2-0.2,0.2c-0.5-0.1-0.9,0.5-1.4,0.2c-0.1,0-0.2,0-0.3,0.1
	c-0.3,0.2-0.5,0.4-0.8,0.5c-0.2,0.1-0.3,0.2-0.5,0.3c-0.2,0.1-0.3,0.2-0.5,0.1c0,0.2-0.2,0.2-0.4,0.3c-0.5,0.2-1,0.2-1.3,0.7
	c-0.2,0-0.3-0.1-0.5-0.1c-0.5,0.1-1.1,0.3-1.6,0.5c-0.3,0.1-0.5,0.5-0.9,0.4c0,0-0.1,0.1-0.2,0.2c-0.1-0.1-0.2-0.2-0.3-0.4
	c-0.5,0.4-0.8,0.9-1.4,0.8c-0.2,0.6-0.3,0.6-0.9,0.4c0,0.1,0,0.2,0,0.3c-0.2,0-0.4,0-0.4,0.1c-0.2,0.4-0.6,0.2-0.9,0.4
	c-0.2,0.1-0.4,0.1-0.7,0.2c-0.2,0.1-0.4,0.1-0.6,0.1c-0.2,0.1-0.4,0.2-0.6,0.4s-0.4,0-0.6,0.1c-0.4,0.1-0.7,0.3-1,0.5
	c-0.1,0-0.3,0.1-0.3,0.1c-0.3-0.3-0.6,0-0.8,0c-0.3,0.1-0.5,0.3-0.7,0.5c-0.1,0-0.4-0.1-0.5,0c-1,0.4-2,0.7-3,1.1
	c-0.9,0.3-1.7,0.6-2.6,0.9c-1.9,0.6-3.8,1.1-5.6,2.1c-0.2,0.1-0.4,0.1-0.6,0.1c-1.3,0.1-2.5,0.2-3.8,0.3c-1.7,0.1-3.3,0.3-5,0.3
	c-2.6,0-5.3-0.1-7.9-0.2c-0.1,0-0.1,0-0.2,0c-1-0.1-2-0.2-3-0.4c-0.3,0-0.5-0.1-0.8-0.1c-0.8,0.1-1.6,0-2.4-0.1
	c-0.9-0.1-1.8-0.4-2.7-0.6c-0.7-0.2-1.5-0.3-2.2-0.5c-1.4-0.4-2.8-0.9-4.2-1.2c-1.9-0.5-3.9-1-5.8-1.5c-0.6-0.1-1.1-0.3-1.6-0.6
	c-1-0.6-2-1.2-3.1-1.7c-1.6-0.7-3.1-1.5-4.6-2.3S68,7,66.5,6.2s-2.9-1.8-4.5-2.5c-1.7-0.8-3.4-1.5-5.1-2.2c-2-0.8-4.1-1.2-6.2-1.4
	c-1.4-0.1-2.9-0.1-4.3,0.1c-1,0.2-2,0.3-2.9,0.7c-0.7,0.3-1.4,0.6-2.1,0.9c-0.5,0.2-1,0.5-1.4,0.8c-1.3,1-2.8,1.8-3.8,3.1
	C36,5.6,36,5.6,35.8,5.5c0,0.2-0.1,0.3-0.1,0.4c0,0.1,0,0.2,0,0.2c-0.3,0.1-0.3,0.6-0.6,0.6c-0.4,0.1-0.4,0.5-0.6,0.7
	c0,0.1-0.1,0.1-0.2,0.2c-0.2-0.2-0.3-0.3-0.5-0.5c-0.6,0.4-1.2,0.8-1.5,1.5c-0.1,0.1-0.2,0.2-0.3,0.4c-1,0.9-1.9,1.9-2.5,3.1
	c-0.2,0.4-0.5,0.8-0.8,1.2s-0.5,0.8-0.8,1.2c-0.3,0.4-0.5,0.9-0.8,1.3c-0.2,0.4-0.6,0.7-0.5,1.2c0,0-0.1,0.1-0.1,0.1
	c-0.5,0.2-0.7,0.7-0.9,1.2c-0.8,1.9-1.6,3.7-2.4,5.6c-0.2,0.6-0.6,1.2-0.6,1.9c-0.5,0.6-0.6,1.4-0.8,2.2c-0.1,0.4-0.5,0.8-0.4,1.3
	c-0.5,0.3-0.5,0.9-0.7,1.3c0.1,0.3,0.2,0.5,0.3,0.7c-0.1,0-0.2,0.1-0.3,0.1c-0.1,0-0.2,0.1-0.3,0.1c0,0.3-0.2,0.6-0.5,1
	c0.1,0.3,0.1,0.6,0.1,0.8c0,0.5-0.4,0.7-0.7,0.8c0,0.2,0,0.5,0,0.5c-0.5,0,0,0.3-0.1,0.4c-0.3,0.2-0.7,0.3-0.8,0.8
	c-0.1,0.5-0.2,1.1-0.5,1.5c-0.1,0.1,0,0.2-0.1,0.3c0,0.1-0.1,0.2-0.2,0.4c0,0,0,0.1,0,0.2c0.1,0,0.2,0,0.4,0c0,0.1,0,0.1,0,0.2
	c0,0,0,0.1,0,0.1c-0.6-0.2-0.6,0.4-0.8,0.7c0.1,0,0.2,0.1,0.3,0.1c-0.5,0.3-0.5,0.8-0.6,1.2c-0.1,0.5-0.5,0.8-0.7,1.2
	c-0.1,0.3-0.1,0.7-0.4,0.9c-0.3,0.3-0.4,0.7-0.3,1c-0.2,0.2-0.3,0.3-0.4,0.5c-0.4,0.8-0.9,1.6-1.3,2.5c-0.1,0.3-0.3,0.5-0.4,0.8
	c-0.3,0.7-0.8,1.3-1,2.1c-0.1,0.3-0.2,0.6-0.5,0.8c0.2,0.2,0.2,0.4,0,0.5c-0.2,0.1-0.4,0.2-0.4,0.4c0,0.4-0.3,0.7-0.4,1.1
	c-0.2,0.5-0.5,1-0.7,1.5c0.2,0.1,0.6-0.2,0.5,0.2c0,0.2-0.2,0.3-0.4,0.5c-0.1,0.1-0.1-0.3-0.2,0c0,0.1-0.2,0.1-0.3,0.2l0.1,0.2
	c0.1,0,0.2,0,0.4-0.1c-0.1,0.4-0.2,0.8-0.5,0.9c-0.4,0.2-0.1,0.7-0.4,0.8c0,0,0,0-0.1,0c-0.1,0.1-0.1,0.2-0.2,0.3
	C9.2,56.7,9.1,57,9,57.2c-0.1,0.3-0.3,0.5-0.5,0.8c-0.2,0.3-0.3,0.6-0.5,0.9c-0.2,0.3-0.3,0.5-0.6,0.6c0.2,0.3,0,0.6-0.2,0.8
	c-0.2,0.2,0,0.5-0.3,0.6c-0.2,0.1-0.2,0.3-0.1,0.5c0,0,0,0.1-0.1,0.1c-0.2-0.1-0.3-0.1-0.5-0.2c0,0.6-0.1,1.1-0.8,1.2
	c0.1,0.2,0.2,0.3,0.2,0.4l-0.5,0.3c0.2,0.1,0.2,0.2,0.1,0.4c-0.2,0.2-0.5,0.5-0.4,0.9c0,0.1-0.2,0.3-0.2,0.5
	c-0.2,0.4-0.4,0.8-0.6,1.1c-0.3,0.6-0.6,1.2-1.2,1.6c-0.1,0.1-0.2,0.3-0.3,0.5c-0.1,0.3-0.3,0.6-0.2,0.9c0,0.4-0.3,0.5-0.4,0.8
	c0,0.2-0.1,0.3-0.1,0.4c-0.1,0.4-0.3,0.9-0.8,0.9v0.4c0,0.5,0,0.9-0.4,1.2c-0.1,0.1-0.2,0.3-0.2,0.5c0,0.4,0,0.9,0,1.4
	c0,0.7,0.1,1.4,0.1,2.2c0,0.7-0.1,1.4-0.1,2.1c0,0.5,0,1,0.1,1.5c0.1,0.7,0,1.5,0.1,2.2c0.2,1.5,0.2,2.9-0.1,4.4
	c0,0.2,0,0.4-0.1,0.5c-0.4,0.6-0.3,1.2-0.1,1.7C0.6,90.2,1,91,1.3,91.8c0.3,0.8,0.7,1.5,0.8,2.3c0,0.5,0.3,1,0.8,1.2
	c0.7,0.3,1.4,0.6,2.2,0.8c0.3,0.1,0.7,0.2,1,0C6.6,96,7.2,96,7.8,96c0.4,0,0.9,0,1.3,0c0.8,0,1.5-0.2,2.3-0.1
	c1.2,0.1,2.3,0.5,3.4,1.1c0.7,0.4,1.3,0.8,1.7,1.5c0.5,0.8,0.9,1.7,1.3,2.6c0.2,0.6,0.3,1.3,1,1.7c0.1,0,0.1,0.2,0.1,0.2
	c0.1,0.6,0.3,1.2,0.4,1.8c0.2,1.4,0.4,2.7,0.5,4.1c0,0.3,0.1,0.6,0.3,0.6c0,0.4,0,0.7,0,0.9c0,0.4,0,0.9,0,1.3c0,0.5,0.2,1,0.1,1.5
	c0,0.2,0,0.3,0,0.5c0.1,0.6,0.3,1.1,0.1,1.7c0,0.1,0,0.3,0,0.4c0.3,0.8-0.1,1.6,0.2,2.3c-0.2,0.7,0.1,1.4,0.1,2.1
	c0,0.9,0.3,1.9,0.1,2.9c-0.1,0.3,0.1,0.7,0.3,0.9c0.8,0.8,1.6,1.7,2.9,1.9c0.7,0.1,1.3,0.2,2,0.2c0.1,0,0.3-0.1,0.4-0.1
	c1,0.1,2,0.2,3,0.2c0.8,0.1,1.7,0.1,2.5,0.1c0.9,0,1.8,0.1,2.8,0.1h1c0.3,0,0.6,0,0.8,0c0.7,0.1,1.3,0.2,2,0.2c0.5,0,1-0.2,1.6-0.1
	c0.5,0.1,1.1,0,1.6,0c1.5,0,2.9,0,4.4,0c0.8,0,1.5,0.2,2.3,0.3c0.3,0,0.7,0.1,1,0.1c1,0.1,2,0.1,3-0.1c0.7-0.2,1.4,0.1,2.1-0.1
	c0.1,0,0.2,0.1,0.2,0.1c0.1,0,0.2,0,0.3,0c1-0.1,2-0.3,3-0.2c0.2,0,0.3,0,0.5,0c1.3-0.2,2.5,0,3.8,0c0.7,0,1.6,0.3,2-0.7
	c0,0,0.1-0.1,0.1-0.1c0.5,0,0.4-0.3,0.4-0.7c0-0.2,0-0.3,0.1-0.5c0.6-0.1,1.1-0.1,1.6-0.2c0.4,0,0.7,0,1.1,0.1h2.5
	c0.1,0,0.2,0,0.3,0.1c0.7,0.1,1.5,0.2,2.2,0.2c1.3,0,2.6,0.2,3.8,0c0.4,0,0.8,0,1.2,0c1,0.1,1.9,0.2,2.9,0.2c0.9,0,1.8,0,2.7,0
	c0.7,0,1.4,0,2.2,0.1c0.8,0.1,1.6,0.2,2.4,0.1c0.7-0.1,1.4,0.1,2.2,0.1c0.1,0.2,0.3,0.5,0.4,0.7c0.3,0.4,0.6,0.9,1.1,1
	c0.5,0,0.7,0.3,1,0.6c0.1,0.1,0.2,0.3,0.4,0.4c0.8,0.6,1.7,0.8,2.7,0.7c0.3,0,0.5,0,0.8,0c0.7,0.1,1.4,0.3,2.2,0.3
	c0.6,0,1.3,0,1.9,0c1,0.1,2.1,0,3.1,0c0.3,0,0.5-0.1,0.8-0.1c0.8,0.1,1.6,0.1,2.4,0.2c0.5,0,0.9,0.1,1.4,0.1
	c1.2,0.1,2.4,0.1,3.6,0.2c1.4,0.1,2.8,0.3,4.2,0.3c0.1,0,0.3,0,0.4,0c0.4,0.3,0.9,0.2,1.4,0.2c0.4,0,0.8-0.1,1.2,0.1
	c0.8,0.2,1.7,0.2,2.5,0.2c0.4,0,0.9,0,1.3,0c0.7,0.1,1.3,0.1,1.9,0.3c0.6,0.1,1.3-0.2,1.9,0.2c0.7-0.2,1.4-0.1,2.1-0.1
	c0.7,0,1.3-0.1,2-0.2c0.3,0,0.6,0,0.9,0c0.2,0,0.4,0.1,0.6,0.1c0.6,0,1.2-0.1,1.9-0.1c0.5,0,1,0.1,1.3-0.1c0.6,0.1,1.1,0.2,1.5,0.2
	c0.9,0,1.7,0,2.5,0c1,0.1,1.9-0.1,2.9,0c0.3,0,0.6-0.2,0.9-0.3c0.6-0.2,1.3-0.3,1.7-0.8c0.1-0.1,0.3-0.1,0.5-0.2
	c0.3-0.2,0.7-0.3,1-0.5c0.2-0.1,0.4-0.3,0.7-0.4c0.7-0.4,1.4-0.8,2.1-1.1c0.5-0.3,1-0.6,1.6-0.7c0.8-0.2,1.6-0.3,2.2-0.9
	c0.7-0.6,1.5-0.9,2-1.8c0.1-0.1,0.2-0.2,0.3-0.3c0.4-0.2,0.5-0.5,0.6-0.9c0-0.1,0.1-0.3,0.2-0.4c0.6-0.9,0.8-1.9,0.6-3
	c-0.1-0.9-0.5-1.8-0.8-2.6c-0.3-0.8-1.1-1-1.7-1.4c-1.2-0.2-2.5-0.5-3.7-0.7c-0.6-0.1-1.2-0.1-1.9-0.2c0.1-0.1,0.1-0.2,0.1-0.2
	c0.7-0.2,1.1-0.8,1.6-1.3c0.1-0.1,0.2-0.3,0.3-0.5c0.3-0.7,0.5-1.4,0.8-2.1c0.4-0.8,0.5-1.6,0.5-2.5c0-0.8-0.3-1.6-1.1-2
	c-0.1-0.1-0.3-0.2-0.4-0.3c-0.4-0.2-0.8-0.5-1.2-0.5c-0.5-0.1-1.1,0-1.6,0.1c-0.9,0.1-1.8,0.3-2.7,0.4c-1.1,0.2-2.3,0.3-3.4,0.4
	c-1.3,0.1-2.7,0.2-4,0.3c-0.6,0-1.2,0-1.8-0.1c-1-0.1-1.8-0.4-2.2-1.3c0.3-0.6,0.6-1.2,0.9-1.8l0.4,0.1c0.4-0.4,0.9-0.7,1.3-1.1
	c0.4-0.4,0.8-0.8,1.4-1.1c1.1-0.5,2.1-0.9,3.2-1.3c0.6-0.2,1.3-0.5,2-0.6c0.6,0,1.1-0.2,1.6-0.4c0.7-0.2,1.4-0.5,2-0.7
	c0.2-0.1,0.5-0.1,0.7-0.2c0.4-0.2,0.8-0.4,1.3-0.6c1.4-0.4,2-1.4,2.4-2.6c0.2-0.6,0.3-1.2,0.6-1.8c0.3-0.6,0.6-1.2,0.8-1.8
	c0.1-0.3,0.1-0.7,0.4-0.9c0.6-0.5,0.9-1.2,1.3-1.9c0.3-0.6,0.5-1.3,0.9-1.9c0.5-0.7,0.8-1.6,1.1-2.4c0.3-0.6,0.6-1.2,0.8-1.8
	c0.4-1.1,1.1-1.9,1.4-3.1c0.1-0.4,0.3-0.8,0.6-1.2c0.5-0.8,0.8-1.6,1.1-2.4c0.2-0.6,0.5-1.2,0.8-1.8c0.2-0.6,0.6-1.1,0.7-1.7
	c0.1-0.5,0.3-0.8,0.5-1.2c0.2-0.4,0.5-0.8,0.7-1.2c0.2-0.5,0.3-1.2,0.6-1.6c0.6-0.7,1-1.5,1.4-2.3c0.2-0.4,0.5-0.8,0.6-1.2
	c0.2-0.5,0.4-0.9,0.7-1.3c0.4-0.5,0.6-1.1,0.9-1.6c0.1-0.3,0.2-0.6,0.3-0.8c0.1-0.2,0.2-0.5,0.3-0.7c0.3-0.5,0.7-0.9,0.9-1.4
	c0.5-1.1,0.9-2.3,1.6-3.3c0.2-0.3,0.3-0.8,0.6-1.1c0.3-0.4,0.5-0.8,0.5-1.4c0.4-0.2,0.7-0.4,0.7-0.9c0-0.1,0.1-0.2,0.1-0.4
	c0.2-0.4,0.4-0.8,0.6-1.3c0.2-0.4,0.6-0.8,0.5-1.3c0-0.1,0-0.1,0.1-0.2c0.4-0.4,0.6-0.9,0.9-1.5c0.2-0.6,0.7-1.1,1.1-1.6
	c0.4-0.5,0.8-1.1,0.9-1.8c0.1-0.3,0.3-0.6,0.4-0.9c0.1-0.1,0.2-0.3,0.4-0.1c0.2,0.1,0.4,0,0.4-0.2c0-0.5,0.4-0.9,0.5-1.4
	c0.2-0.6,0.5-1.2,0.6-1.9c0.1-0.5,0.1-1,0.3-1.5c0.1-0.4,0.2-0.8,0.3-1.1c0.2-0.7,0.3-1.5,0.5-2.1c0.4-1,0.5-2.1,0.5-3.1
	C179.1,30.2,178.8,28.9,178.4,27.7L178.4,27.7z M67.1,9.2c0.3,0.1,0.6,0.2,0.8,0.4c1.3,0.9,2.7,1.6,4,2.4c0.6,0.3,1.2,0.6,1.7,0.9
	c0.5,0.2,0.8,0.6,1.4,0.8c1,0.2,1.7,0.9,2.6,1.3c0.5,0.2,1.1,0.5,1.6,0.7s0.9-0.1,0.9-0.8c0.1,0.1,0.3,0.1,0.4,0.2
	c0.6,0.4,1.3,0.9,1.9,1.2c0.5,0.3,1.1,0.6,1.7,0.7c0.9,0.2,1.7,0.6,2.6,0.7c0.6,0,1.1,0.3,1.6,0.5c0.8,0.3,1.7,0.5,2.6,0.8
	c0.9,0.3,1.8,0.5,2.8,0.7c0.9,0.2,1.8,0.4,2.7,0.6c0.7,0.2,1.4,0.3,2.1,0.3c0.6,0,1.2-0.1,1.9-0.1c0.4,0,0.7,0,1.1,0
	c1,0.1,2,0.2,3,0.1c0.7,0,1.5,0,2.2,0.1c0.5,0.1,1,0.2,1.5,0.2c0.2,0,0.5-0.1,0.7-0.1c0.7,0,1.3,0,1.9,0c0.4,0,0.7,0,1.1,0
	c1.1-0.1,2.2-0.3,3.3-0.4c0.2,0,0.4-0.1,0.5-0.2c0.5-0.1,0.9-0.2,1.4-0.2c0.4,0,0.7-0.1,1.1-0.2c0.6-0.3,1.2-0.4,1.7-0.7
	c0.5-0.2,0.9-0.5,1.4-0.7c0.2-0.1,0.3-0.1,0.5-0.2c0.4-0.1,0.8-0.2,1.2-0.4c0.6-0.3,1.3-0.5,2-0.7l3-0.9c0.2-0.1,0.4-0.1,0.6-0.2
	c0.8-0.1,1.6-0.3,2.2-0.9c0.2-0.2,0.5-0.2,0.7-0.3c0.7-0.1,1.2-0.4,1.8-0.7c0.5-0.2,1-0.4,1.6-0.6c-3.4,4.4-5.1,9.1-4.5,14.6
	c-0.8-0.1-1.4,0.1-2.2,0.4c-0.4,0.1-0.8,0-1.2,0c-0.7,0-1.3,0-1.9,0.1c-0.3,0-0.7,0.1-1,0.2c-0.1,0-0.4-0.1-0.4,0.2
	c-0.2,0-0.5,0.1-0.6,0c-0.5-0.4-1-0.1-1.4,0.1c-0.3,0.2-0.6,0.4-1,0.2c-0.2-0.1-0.6,0-0.8,0.1c-0.8,0.1-1.6,0.3-2.4,0.5
	c-1.8,0.4-3.6,0.5-5.4,0.5c-1.2,0-2.5,0.1-3.7,0.2c-1.6,0.2-3.1,0-4.7-0.3c-1.7-0.4-3.5-0.6-5.2-0.9c-1.4-0.3-2.7-0.7-4.1-1.1
	c-1.8-0.5-3.5-1-5.3-1.4c-1.1-0.3-2.2-0.4-3.3-0.6c-0.9-0.2-1.9-0.3-2.8-0.4c-0.8-0.1-1.6,0-2.5,0c-0.5,0-1.1,0-1.6,0.1
	c-1.2,0.2-2.2,0.9-3,1.8c-0.2,0.2-0.4,0.4-0.6,0.7c0-0.2,0-0.4,0-0.5c-0.1-1.1-0.2-2.2-0.2-3.2c0-0.5,0-0.9-0.1-1.4
	c-0.2-1.9-0.8-3.6-1.3-5.4c-0.1-0.5-0.2-0.9-0.4-1.4c-0.4-1.1-1.2-2.1-2-3c-1.1-1.3-2.3-2.5-3.5-3.7C67.5,9.9,67.3,9.6,67.1,9.2
	C67,9.2,67.1,9.2,67.1,9.2L67.1,9.2z M137.7,32.3c-0.1-0.4,0.1-0.8,0.1-1.2c0-0.8,0.4-1.6,0.5-2.4c0-0.3,0.2-0.7,0.5-0.9
	c0.2-0.2,0.2-0.6,0.4-0.9c0.2-0.4,0.4-0.8,0.6-1.2c0.2-0.4,0.5-0.8,0.7-1.2c0.2-0.3,0.3-0.6,0.5-1c0.2-0.4,0.4-0.8,0.6-1.2
	c0.1-0.1,0.2-0.2,0.2-0.3c0.3-0.4,0.7-0.7,0.9-1.1c0.2-0.3,0.4-0.5,0.8-0.6c0.2-0.1,0.4-0.1,0.4-0.4c0-0.1,0.2-0.3,0.3-0.4
	c0.9-0.5,1.9-1,2.8-1.4c0.4-0.2,0.8-0.4,1.2-0.6c0.2-0.1,0.4-0.2,0.6-0.3c1-0.2,1.9-0.6,2.9-0.6c0.6,0,1.2-0.1,1.8-0.2
	c0.1,0,0.3,0,0.4,0c0.4,0,0.7,0,1.1,0.1c0.5,0,1.1,0,1.6,0.2c1,0.2,2,0.5,3,1c0.5,0.2,1,0.4,1.4,0.6c0.9,0.5,1.8,0.9,2.6,1.5
	c1.1,0.8,1.9,1.8,2.6,2.9c0.3,0.5,0.7,1,1,1.5c0.5,0.8,1,1.6,1.5,2.4c0.6,1,1,2.2,1.2,3.4c0.1,0.8,0.2,1.6,0.2,2.5
	c0.1,1.8-0.2,3.6-0.5,5.5c-0.1,0.4-0.2,0.8-0.3,1.3c0.2,0,0.3-0.1,0.4-0.1c-0.1,0.6-0.2,1-0.5,1.5c-0.9,1.7-2.1,3.2-3.4,4.6
	c-1.9,2.2-4.4,3.2-7.2,3.7c-1.2,0.2-2.4,0.3-3.6,0.4c-0.1,0-0.3,0.1-0.4,0.1c-0.3,0-0.6,0-0.9-0.1c-0.8-0.5-1.8-0.6-2.7-0.8
	c-1.1-0.3-2.1-0.6-3.1-1c-1.2-0.4-2.4-0.9-3.7-1.4c-1.3-0.5-2.2-1.4-3.1-2.5c-0.5-0.6-1.1-1.2-1.5-1.9c-0.2-0.3-0.4-0.7-0.6-1.1
	c-0.1-0.1-0.1-0.2-0.1-0.3c-0.9-1.4-1.3-3-1.5-4.7c-0.1-0.5,0-1-0.1-1.6c-0.1-0.2,0.1-0.4,0.1-0.6C137.6,33.1,137.7,32.7,137.7,32.3
	L137.7,32.3z M155.3,14.7l0.6-1.6c0.1-0.4,0.4-0.4,0.7-0.3c0.7,0.1,1.3,0.2,2,0.2c0.8,0,1.4,0.4,2.2,0.7c-0.4,0.8-0.7,1.4-1,2.1
	c-0.8-0.2-1.5-0.6-2.3-0.6C156.8,15,156.1,14.9,155.3,14.7L155.3,14.7z M161.2,15.9c0.1-0.6,0.1-1.2,0.2-1.8
	c0.3,0.1,0.6,0.3,0.9,0.4c0.8,0.3,1.5,0.6,2.3,0.9c0.1,0.1,0.3,0.1,0.4,0.2c0.7,0.4,0.8,0.7,0.6,1.5c-0.1,0.5-0.2,1-0.4,1.5
	c-0.3-0.3-0.6-0.5-0.9-0.7c-0.9-0.5-1.7-1-2.6-1.5C161.2,16.3,161.1,16.2,161.2,15.9L161.2,15.9z M136.3,80.9
	c-0.2,0.1-0.3,0.2-0.6,0.3c0-0.2-0.1-0.4-0.1-0.6c-0.5,0.3-1.1,0.2-1.6,0.2c-0.6,0-1.2,0-1.8,0.1c-2.1,0.3-4.2,0.3-6.3,0.3
	c-1.3-0.1-2.7-0.1-4-0.1c-0.3,0-0.7-0.1-1-0.2c0.4,0,0.8-0.1,1.2-0.1c1.2,0.1,2.4-0.2,3.6-0.2c1.1,0,2.2-0.4,3.2-0.6
	c0.7-0.2,1.3-0.6,1.9-0.9c0.4-0.2,0.6-0.5,0.8-1c0.3-0.7,0.7-1.4,1.2-2.1c0.3-0.4,0.6-0.7,0.8-1.1c0.3-0.6,0.6-1.2,0.9-1.9
	c0.2,0.3,0.5,0.6,0.7,0.8c0.7,0.9,1.7,1.1,2.8,0.9c0.3-0.1,0.6-0.1,0.9-0.2c0.5-0.1,0.9-0.3,1.3-0.7c0.3-0.3,0.7-0.5,1-0.7
	c0.9-0.5,1.3-1.6,0.9-2.6c-0.2-0.4-0.1-0.8,0.1-1.2c0.4-0.6,0.7-1.2,1.1-1.8c0.4-0.6,0.8-1.2,1.2-1.7c0.7-1,1.2-2.1,1.4-3.4
	c0.1-0.3,0.1-0.7,0-1c-0.2-0.6,0-1.1,0.2-1.7c0.3-0.1,0.6-0.2,0.9-0.2c0.6,0,0.8-0.4,1-0.8c0.3-0.5,0.4-1,0.7-1.6
	c0.3,0.3,0.3,0.7,0.3,1.1c-0.2,1.3-0.5,2.5-0.8,3.8c-0.1,0.6-0.5,1.1-0.7,1.7c-0.9,1.8-1.7,3.6-2.6,5.4c-0.9,2-1.7,4.1-2.6,6.1
	c-0.4,1-1,2.1-1.8,2.8c-0.2,0.2-0.5,0.4-0.8,0.6c-0.4,0.2-0.7,0.5-1.1,0.7c-0.6,0.4-1.1,0.8-1.7,1.2c-0.2-0.2-0.3-0.3-0.5-0.4
	c0,0-0.1,0-0.1,0C136.1,80.4,136.2,80.6,136.3,80.9L136.3,80.9z M107.9,84.4c-0.1-0.1-0.2-0.2-0.3-0.3c-0.7-0.8-1.4-1.7-2.2-2.5
	c-0.7-0.7-1.7-0.9-2.7-0.9c-0.8,0-1.7,0.1-2.6,0.2c-0.3,0-0.6,0.1-0.9-0.1c-0.1-0.1-0.5,0-0.7,0.1c-1.6,1-3.1,2-3.9,3.8
	c-0.1,0.1-0.2,0.3-0.3,0.4c-1.1-0.7-2.3-0.3-3.6-0.4c0.1-0.1,0.2-0.3,0.3-0.3c1-0.6,1.6-1.4,2.1-2.3c0.2-0.4,0.3-0.8,0.4-1.2
	c0-0.1,0-0.2,0-0.2c0.4-1,0.6-2,0.5-3c-0.1-0.9,0-1.8-0.2-2.7c-0.1-0.3-0.3-0.6-0.5-0.8c-1-1.3-2.1-2.5-3.6-3.4c0.2,0,0.3,0,0.5,0
	c0.7,0.1,1.5,0.2,2.2,0.3c1.4,0.2,2.7,0.2,4.1,0.1c0.6,0,1.2,0.1,1.7,0.1c0.2,0,0.4,0.1,0.6,0.1c0.5,0,1.1,0,1.6,0
	c0.3,0,0.7-0.1,1,0c1,0.1,2.1,0.2,3.1,0.4c0.5,0.1,0.9,0.3,1.4,0.5c0.2,0.1,0.3,0.3,0.3,0.4c0.4,1.1,0.7,2.2,0.6,3.3
	c-0.1,1.1,0.2,2.1,0.5,3.1c0.1,0.3,0.4,0.6,0.6,0.8c0.1,0.1,0.3,0.1,0.4,0.1c2.1-0.2,4.1-0.6,6.3-0.3c0.1-0.2,0.2-0.4,0.3-0.5
	c0.6,0.1,1.1,0.3,1.5,0.7c0.1,0.1,0.3,0.2,0.5,0.2c0.9,0.4,1.9,0.8,2.9,0.9v0.2c-0.2,0-0.4,0-0.7,0c-0.7,0-1.4-0.1-2.1-0.1
	c-0.3,0-0.7,0.1-1,0.1c-0.8,0-1.7-0.1-2.5-0.1c-1.3-0.1-2.7,0.1-4,0.4c-0.5,0.1-1,0.1-1.5-0.1c-0.1,0.2-0.2,0.3-0.3,0.4
	C108.5,82.4,108.2,83.4,107.9,84.4L107.9,84.4z M104.5,86.7c-0.4-0.9-0.9-1.7-1.8-2.3s-1.7-0.7-2.6-0.1c-0.6,0.4-1.3,0.6-1.6,1.3
	c0,0.1-0.2,0.1-0.2,0.1c0,0.2,0.1,0.4,0.1,0.5c-0.4,0.9-0.2,1.8,0.2,2.7c0.2,0.3,0.2,0.7,0.4,0.9s0.5,0.4,0.8,0.7
	c-0.9,0.1-1.7,0.2-2.4,0.3c-0.8,0.1-1.3-0.3-1.6-1c-0.3-0.8-0.5-1.7-0.6-2.5c-0.1-0.3,0.1-0.7,0.2-1c0.3-0.9,0.6-1.8,1.4-2.5
	c0.4-0.4,0.9-0.8,1.4-1.1c0.1,0,0.1-0.1,0.2-0.1c0.2-0.1,1.6-0.3,1.8-0.2c0.8,0.1,1.7,0.2,2.5,0.2c1.4,0,1.4-0.1,2.3,0.9
	c0.3,0.3,0.6,0.6,0.8,0.8c0.2,0.2,0.3,0.4,0.4,0.6c0.1,0.3,0.2,0.6,0.4,0.9c0.4,0.7,0,1.4-0.1,2.1c0,0.1-0.1,0.2-0.2,0.2
	c-0.6,0.3-1.2,0.7-1.9,1.1c0-0.6,0-1,0.3-1.4C104.8,87.5,104.6,87.1,104.5,86.7L104.5,86.7z M103,86.8c0,0.1-0.1,0.2-0.2,0.4
	c-0.2,0.3-0.5,0.7-0.7,1.1c-0.3,0.7-0.8,0.9-1.5,1c-0.1,0-0.3,0-0.4-0.1c-0.5-0.3-0.9-0.8-1.2-1.4c-0.2-0.4,0.2-0.7,0.3-1.1
	c0.1-0.2,0.2-0.3,0.2-0.4c0-0.1,0-0.2,0.1-0.2c0.5-0.3,1-0.6,1.5-0.9c0.1-0.1,0.3-0.1,0.5,0C102.2,85.2,103,86.2,103,86.8L103,86.8z
	 M91.3,87.8c-0.6-0.6-1.4-0.7-2.2-0.5c-1.3,0.2-2.4,0.9-3.2,2c-0.3,0.4-0.6,1-0.9,1.5c-2.5,0.1-5-0.1-7.7-0.3c0-1-0.6-1.7-1.2-2.4
	c-0.4-0.5-0.8-0.8-1.3-1.1c-0.7-0.3-1.5-0.5-2.2-0.8c-0.5-0.2-1,0-1.5,0.2c-0.6,0.2-1.1,0.5-1.7,0.8c-0.2,0.1-0.4,0.2-0.6,0
	c0.3-0.7,0.8-1.2,1.3-1.7c0.1-0.1,0.4-0.1,0.5-0.1c1.6,0.1,3.3,0.2,4.9,0.3c0.6,0,1.2,0,1.8-0.1c0.5-0.1,1,0.1,1.5,0.1
	c1.6,0.2,3.2,0.7,4.8,0.6c0.5,0,1,0.1,1.6,0.2c0,0,0.1,0,0.1,0c1.2-0.1,2.4,0.3,3.6,0.3c0.3,0,0.6,0.1,0.9,0.2
	c0.6,0.1,1.1,0.1,1.7-0.1c0.4-0.2,0.9,0,1.4,0c0.1,0,0.2,0.1,0.4,0.1c0,1.3-0.1,2.7,1,4h-1.4c-0.1-0.3-0.2-0.6-0.2-0.9
	c0-0.3-0.1-0.6-0.4-0.9C92.1,88.7,91.7,88.2,91.3,87.8L91.3,87.8z M91.5,90.9h-4.3c0.1-0.3,0.1-0.4,0.2-0.6c0.6-1.1,1.9-1.8,3.1-1.6
	c0.6,0.1,1.1,0.6,1.1,1.2C91.5,90.2,91.5,90.6,91.5,90.9 M76,90.5c-1.5-0.8-2.9-1.5-4.3-2.2c0.3-0.6,0.8-0.8,1.5-0.7
	c0.9,0.2,1.7,0.6,2.3,1.4C75.9,89.4,76,89.9,76,90.5 M67.6,81.7c-0.5-1.7-1.3-3.3-2.6-4.6c-1.4-1.4-3.6-1.9-5.5-1
	c-0.9,0.4-1.8,0.8-2.7,1.3c-1.3,0.7-2,2-2.3,3.3c-0.1,0.3,0,0.8,0.1,1.2c0,0.2,0.1,0.4,0.2,0.7c-0.9,0-1.7-0.1-2.5,0
	c-0.8,0.1-1.6,0.3-2.4,0.5c-0.4-0.5-1.1-0.4-1.7-0.4c-1.6-0.1-3.2,0.1-4.8-0.1s-3.2-0.3-4.8-0.7c-0.7-0.2-1.5-0.2-2.2-0.4
	c-1-0.2-2-0.4-3.1-0.7c-0.2,0-0.3-0.1-0.5-0.1c-0.4,0-0.7-0.2-1-0.4c-0.2-0.2-0.5-0.3-0.8-0.5c-0.7-0.4-1.4-0.8-2-1.4
	c-0.6-0.6-1.3-1.1-2-1.7c-0.2-0.2-0.4-0.5-0.6-0.8c-0.4-0.5-0.8-1-1.2-1.5c-0.6-0.7-1-1.6-1.3-2.5c-0.3-0.9-0.5-1.8-0.9-2.7
	c-0.3-0.5-0.2-1.1-0.3-1.7c0-0.5,0-1-0.1-1.5c-0.1-0.7-0.1-1.3,0-2c0.2-0.8,0.3-1.7,0.5-2.5c0.1-0.6,0.1-1.1,0.1-1.7
	c0-0.2,0.1-0.5,0.1-0.7c0.1-0.4,0.4-0.8,0.5-1.3c0.3-1,0.5-2,0.8-3c0.2-0.6,0.6-1.1,0.9-1.7c0.7-1.5,1.4-3.1,2.3-4.5
	c0.4-0.7,0.8-1.3,1.2-1.9c0.4-0.4,0.7-1,1.5-1.2c-0.1,0.3-0.4,0.5-0.5,0.6c-0.8,0.7-1.3,1.7-1.7,2.6c-0.4,1-0.9,2.1-1.3,3.1
	c-0.7,1.6-1.5,3.1-2,4.8c-0.3,1-0.5,2.1-0.7,3.2C24,61.5,24,63,24,64.4c0,1,0,2.1,0.2,3.1c0.1,0.8,0.2,1.7,0.5,2.5
	c0.3,1.2,1,2.2,1.7,3.1c0.7,0.9,1.4,1.9,2.2,2.7c1.2,1.3,2.6,2.3,4.3,3c1.1,0.4,2.2,0.9,3.3,1.3c1.4,0.4,2.9,0.7,4.4,0.7
	c0.2,0,0.3-0.1,0.4-0.1c0.3,0,0.6-0.1,0.8,0c1,0.3,2,0.2,3,0.1c0.6-0.1,1.3-0.1,1.9-0.1c1.2,0.1,2.4,0.3,3.6,0
	c0.2-0.1,0.5-0.1,0.5-0.4c0-0.1,0.2-0.2,0.4-0.3c0.3-0.1,0.4-0.2,0.5-0.5c0.1-0.4,0.3-0.8,0.3-1.2c0-0.9,0.3-1.6,0.7-2.3
	c0.5-0.9,1.1-1.9,1.7-2.8c0.3-0.5,0.8-0.9,1.1-1.3c0.1-0.1,0.2-0.2,0.4-0.3c0.8-0.3,1.6-0.7,2.4-1c0.8-0.2,1.7-0.3,2.5-0.4
	c0.4-0.1,0.8,0.1,1.3,0.1c0.4,0,0.9,0,1.3,0c0.9,0,1.8-0.2,2.7,0c0.2,0.1,0.5,0.1,0.8,0.1c1.4-0.2,2.8,0,4.1-0.2
	c1.1-0.2,2.1-0.2,3.2-0.2c1.3-0.1,2.6-0.1,3.8,0c0.7,0,1.4,0,2.1,0c0,0,0,0.1,0.1,0.1c-0.3,0.2-0.7,0.5-1,0.7
	c-0.1,0.1-0.3,0.2-0.3,0.3c-0.6,1-1.4,1.8-1.8,2.9c-0.4,1.2-0.7,2.5-0.4,3.8c0.1,0.7,0.3,1.5,0.5,2.2c0.4,1.3,1.1,2.3,2.2,3
	c0.5,0.3,0.9,0.7,1.5,1.1C80.1,84,79.8,84,79.5,84c-1.3-0.2-2.6-0.3-3.8-0.5c-0.4,0-0.9,0.1-1.4,0.1c-1.2,0-2.4-0.1-3.6-0.1
	c-0.8,0-1.6,0-2.3,0.3c-0.4,0.2-0.7,0.4-0.9,0.8c-0.1,0.2-0.3,0.5-0.4,0.7c0,0-0.1,0-0.1-0.1c0.1-0.2,0.1-0.5,0.2-0.6
	c0.4-0.6,0.3-1.3,0.6-1.9C67.8,82.4,67.7,82,67.6,81.7L67.6,81.7z M65.9,81.6c-0.1,0.5-0.2,1-0.4,1.4c-0.3,0.7-0.7,1.4-1.4,1.7
	c-0.2,0.1-0.4,0.2-0.5,0.4l-2.8-0.9c-0.8-0.2-1.5-0.5-2.3-0.8c-0.3-0.1-0.7-0.1-0.9-0.6c0-0.1-0.3-0.3-0.5-0.3
	c-0.3-0.1-0.3-0.3-0.3-0.5c0-0.3,0-0.6,0-0.8c0-0.2,0-0.3,0.1-0.4c0.4-0.7,0.7-1.4,1.5-1.9c0.5-0.3,0.9-0.7,1.5-1
	c0.6-0.3,1.3-0.6,2-0.8c0.3-0.1,0.7-0.1,1,0c0.6,0.2,1.2,0.3,1.7,0.8c0.7,0.9,1.4,1.8,1.6,3C66,81.1,66,81.3,65.9,81.6L65.9,81.6z
	 M31.4,48c0.3-0.1,0.6-0.2,0.9-0.4c0.6-0.5,1.4-0.5,2.1-0.9c0,0.2,0,0.4,0,0.5c-0.3,0.8-0.5,1.5-1.2,2c-0.4,0.3-0.4,0.9-0.1,1.4
	c0.2,0.2,0.3,0.5,0.5,0.7c0.3,0.3,0.2,0.6,0.1,1c-0.3,0.7-0.5,1.4-0.8,2.1c-0.1,0.3,0,0.7,0.2,0.9c0.3,0.3,0.6,0.6,1,0.8
	c0.9,0.5,1.8,0.9,2.8,0.8c0.4,0,0.5-0.3,0.6-0.6c0.2,0.1,0.5,0.2,0.6,0.2c0.3-0.2,0.6-0.4,0.8-0.7c0.3-0.6,0.6-1.2,0.8-1.8
	c0.5-0.1,1.1-0.3,1.7-0.4c0.2,0,0.3-0.2,0.4-0.3c0.3-0.5,0.6-1,1-1.6c1.2,0.9,2.5,1.2,3.8,1.6c1.8,0.5,3.6,0.8,5.4,0.7
	c1,0,2,0,3.1,0c0.7,0,1.3-0.1,1.9-0.2c0.6-0.1,1.1-0.1,1.7-0.3c0.9-0.2,1.8-0.4,2.7-0.7c1.1-0.4,2.2-0.8,3.3-1.2
	c0.5-0.2,1.1-0.1,1.6-0.5c0.7-0.5,1.4-0.8,1.9-1.4c0.4-0.4,0.8-0.7,1.2-1.1c0.3-0.2,0.6-0.4,0.8-0.7c0.8-1.1,1.5-2.2,2.3-3.3
	c0.4-0.6,1-1.2,1.4-1.8c0.4-0.5,0.8-1,1.3-1.5c0.2-0.2,0.5-0.4,0.7-0.7c0.1-0.1,0.2-0.3,0.3-0.4c0.5-1,1.1-2,1.8-2.8
	c0.5-0.7,1-1.3,1.6-1.8c0.4-0.4,0.6-0.9,1-1.3c0.4-0.5,0.8-0.9,1.2-1.4c0.1-0.1,0.2-0.2,0.3-0.3c0.2-0.5,0.5-0.8,1.1-0.5
	c0.8-0.3,1.5,0.1,2.3,0.2c0.8,0.1,1.5,0.3,2.2,0.4c0.4,0.1,0.9,0.1,1.3,0.2c0.5,0.1,1.1,0.3,1.6,0.4c0.6,0.1,1.1,0.5,1.8,0.4
	c0,0,0.1,0,0.1,0c1.1,0.6,2.3,0.6,3.4,0.9c0.5,0.1,1,0.3,1.5,0.5c1.1,0.5,2.3,0.7,3.4,1c0.3,0.1,0.7,0.1,1,0.1
	c0.8,0,1.6,0.2,2.3,0.3c1.1,0.1,2.2,0.2,3.3,0.4c1.2,0.2,2.3,0,3.5,0.1c0,0,0.1,0,0.2,0.1c-0.2,0.3-0.3,0.5-0.5,0.7
	c-1,1.1-1.3,2.4-0.9,3.9c0.2,0.8,0.7,1.5,1.3,2.1c-0.7,0-1.3,0.3-1.7-0.5c-0.6,0.1-1.2,0.2-1.7,0.3c-0.7,0.2-1.4,0.7-1.9,1.3
	c-0.2,0.2-0.4,0.5-0.6,0.7c-0.5,0.5-0.9,1.1-0.9,1.9c0,0.2,0,0.6-0.3,0.8c0,0-0.1,0.1-0.1,0.2c-0.1,1-0.3,2-0.2,3
	c0.2,1.4,1,2.4,1.9,3.3c0.7,0.7,1.7,0.9,2.6,1.2c0.7,0.2,1.3,0.3,2,0c0.2-0.1,0.3-0.1,0.5,0c1,0.2,1.9-0.1,2.7-0.8
	c0.4-0.3,0.5-0.6,0.5-1c0.4-0.2,0.8-0.5,1.1-0.7c1,0.5,2.1,0.9,3.3,1c0.4,0.1,0.5,0.1,0.5,0.6c0,0.2-0.1,0.4-0.1,0.6
	c-0.2,1.2-0.4,2.3-0.7,3.5c-0.1,0.5-0.4,1-0.6,1.5c-0.5-0.2-0.7,0.4-1.1,0.6c-0.5,0.2-0.9,0.6-1.3,1c-0.6,0.5-1.2,1-1.5,1.8
	c0,0,0,0.1-0.1,0.1c-0.9,0.7-1.2,1.7-1.4,2.7c-0.1,1-0.3,1.9-0.4,2.9c-0.1,1.5,0,2.9,0.4,4.3c0.3,1.1,0.7,2.1,1.2,3.1
	c0.1,0.2,0.1,0.4,0.2,0.6c-1.4,0.2-2.8,0.3-4.2,0.4c-0.1-0.8-0.2-1.6-0.3-2.5c0.5,0.3,0.5,0.7,0.6,1c0.2,0.6,0.5,0.8,1.1,0.8
	c0.3,0,0.6-0.1,0.7-0.4c0.7-0.8,0.1-2.2-0.9-2.3c-0.3-0.1-0.6,0-0.8,0.2c-0.2,0.2-0.4,0.3-0.7,0.4c-0.2-0.2-0.3-0.3-0.2-0.6
	c0.1-0.4,0-0.8-0.2-1.3c-0.2-0.6-0.4-1.2-0.7-1.8c-0.5-1.1-1.4-1.8-2.5-2.3c-1.4-0.6-2.8-1-4.4-1c-1.1,0-2.2-0.1-3.3-0.1
	c-0.2,0-0.5,0.1-0.7,0.1c-0.4,0.1-0.8,0.1-1.2,0.1c-0.5,0-0.9-0.1-1.4-0.1c-0.5,0-0.9,0.1-1.4,0.1c-1.4-0.1-2.9-0.2-4.3-0.2
	c-0.5,0-0.9,0-1.4,0c-1.7,0-3.5,0-5.2,0c-2,0-4-0.1-5.9-0.1c-1.8,0-3.7,0-5.5,0.2c-0.9,0.1-1.8,0.1-2.7,0.2c-1.5,0.1-2.9,0-4.4,0.1
	c-1.4,0.1-2.8,0.2-4.2,0.8c-0.6,0.2-1.3,0.4-2,0.6c-1.5,0.3-2.8,1.1-3.8,2.3c-0.5,0.7-1.2,1.3-1.7,1.9c-0.7,0.8-1.2,1.8-1.4,2.8
	c-0.1,0.5-0.3,1.1-0.7,1.5c-0.1,0.1-0.2,0.3-0.3,0.5c-1.3-0.5-2.7-0.2-4-0.2c-1.1-0.1-2.2,0-3.3,0c-0.2,0-0.4,0-0.6-0.1
	c-0.7-0.3-1.4-0.4-2.1-0.5c-1.6-0.1-3.1-0.5-4.5-1.1c-1.4-0.6-2.5-1.3-3.5-2.4c-1-1-2-2.1-2.8-3.2c-0.4-0.6-0.6-1.4-0.9-2.1
	c-0.3-0.9-0.5-1.8-0.5-2.7c-0.1-1.1-0.2-2.1-0.1-3.2c0.2-1.2,0.2-2.3,0.4-3.5c0.2-1.3,0.2-2.7,0.6-4c0.5-1.3,0.9-2.6,1.3-4
	c0.1-0.3,0.1-0.5,0.2-0.8c0.1-1.1,0.6-2,1.2-2.9C31,48.2,31.1,48.1,31.4,48L31.4,48z M30.8,45.5c0.1,0,0.3-0.2,0.4-0.1
	c0.4,0.1,0.8-0.1,1.2-0.2c0.3-0.1,0.7-0.2,1-0.3c0.1,0,0.3,0,0.5,0.1c-0.1,0.2-0.2,0.3-0.2,0.3c-0.4,0.1-0.8,0.2-1.1,0.3
	C31.9,45.5,31.4,45.5,30.8,45.5L30.8,45.5z M36.8,14.5c0-0.1,0-0.3,0.1-0.4c0.3-0.4,0.5-0.9,1-1c0.1,0,0.1-0.1,0.2-0.1
	c0.4-0.8,1.2-1,1.8-1.5c0.2-0.1,0.4-0.2,0.6-0.3c1.1-0.5,2.2-1.1,3.3-1.4c1.2-0.3,2.3-0.4,3.5-0.5c0.2,0,0.3,0,0.5,0
	c0.5-0.1,1-0.2,1.5-0.1c0.3,0.1,0.7,0,1-0.1c0.6-0.1,1,0.1,1.3,0.6c0.4,0.5,0.8,0.8,1.3,1.1c0.9,0.5,1.8,0.9,2.6,1.4
	c0.1,0.1,0.2,0.1,0.3,0.3c0.2,0.4,0.5,0.5,0.9,0.6c0.8,0.3,1.6,0.2,2.3,0.5c0.2,0.1,0.3,0.1,0.5,0.2c0.7,0.4,1.4,0.9,2.1,1.4
	c0.3,0.2,0.6,0.4,0.8,0.7c0.5,0.5,0.9,1.1,1.3,1.6c0.8,1.1,1.1,2.4,1.3,3.6c0.2,1.2,0.2,2.4,0.3,3.6c0,1-0.2,2-0.2,3
	c0,0.3,0,0.6-0.1,0.8c-0.1,0.7-0.4,1.4-0.7,2.1c-0.6,1-1,2.1-1.6,3.1c-0.2,0.3-0.5,0.5-0.7,0.9c-0.2,0.6-0.7,0.9-1.1,1.4
	c-0.3,0.4-0.6,0.8-0.9,1.2c-0.2,0.2-0.3,0.4-0.5,0.6c-1.3,1.6-3,2.7-5,3.3c-0.3,0.1-0.5,0.2-0.8,0.3c-1.5,0.6-3.1,0.7-4.7,0.7
	c-1.7,0.1-3.4-0.2-5-0.5c-0.6-0.1-1.1-0.4-1.7-0.6c-0.7-0.3-1.4-0.6-2.2-1c-2.5-1.2-4.6-2.8-6.2-5.1c-0.3-0.5-0.6-1.1-1-1.6
	C33,32.6,33,32,32.9,31.4c-0.2-1.1-0.2-2.3-0.2-3.5c0-0.5,0.1-1.1,0.2-1.6c0-0.5,0-1,0.1-1.4c0.1-1,0.2-2,0.6-3
	c0.4-1.1,0.9-2.1,1.3-3.2c0.4-1.1,1-2.1,1.7-3.1C36.7,15.3,37,14.9,36.8,14.5L36.8,14.5z M57.3,8.1c-0.9-0.4-1.7-0.8-2.6-1.5
	c0.7-0.1,1.3-0.2,1.9,0.2c0.5,0.3,1,0.5,1.6,0.8s1,0.5,1.6,0.8c0.2,0.1,0.3,0.3,0.4,0.5C59.2,8.8,58.2,8.5,57.3,8.1 M61,10.9
	c-0.1,0.3-0.2,0.5-0.2,0.8c-0.1,0.5-0.6,0.9-1,0.5c-0.8-0.6-1.8-0.4-2.7-0.6c0,0-0.1,0-0.2-0.1c0.2-0.7,0.5-1.3,0.7-2
	c0.5,0.6,1.2,0.7,1.9,0.7C60.1,10.3,60.6,10.6,61,10.9 M55.7,8.7C56,8.9,56,9,55.9,9.3c-0.1,0.5-0.2,1-0.3,1.4
	c-0.7-0.1-2.8-1.3-3.5-2l1.4-1.8C54.3,7.6,55,8.1,55.7,8.7 M133,56.8c-0.6-0.9-1.5-1.4-2.5-1.8c-0.2-0.1-0.4-0.2-0.6-0.2l0-0.6
	c0.1,0,0.1-0.1,0.1,0c0.4,0.3,0.9,0.5,1.4,0.5c0.2,0,0.4,0,0.5,0.1c0.6,0.3,1.3,0.6,1.8,1.1c0.8,0.7,1.4,1.6,1.6,2.8
	c0.1,0.7,0.1,1.3-0.2,2c-0.6,1.2-1.1,2.5-1.7,3.8c-0.3-0.4-0.8-0.7-0.9-1.1c-0.1-0.4,0.2-0.9,0.4-1.3c0.5-0.8,0.6-1.7,0.8-2.5
	C133.9,58.5,133.6,57.6,133,56.8L133,56.8z M130.1,55.9c0.2,0.4,0.5,0.4,0.9,0.5c0.7,0,1.5,1.1,1.5,2c-0.1,0.9-0.1,1.8-0.6,2.7
	c-0.2,0.4-0.3,0.9-0.4,1.4c-0.8-0.6-1.6-1.1-2.4-1.6c0.4-0.8,0.4-1.6,0.5-2.4c0.1-0.8,0.2-1.6,0.3-2.5
	C130,55.9,130.1,55.9,130.1,55.9L130.1,55.9z M127.6,60.1c-2.7-0.7-5.2-1.2-7.9-0.5c0.2-1.2,0.4-2.3,0.7-3.5
	c0.3,0.1,0.5,0.2,0.7,0.3c0,0.7-0.2,1.3,0.2,2l0.5-1.5c-0.1-0.1-0.3-0.2-0.4-0.3c0,0,0-0.1,0-0.1c0.6,0.1,1.2,0.2,1.8,0.2
	c-0.3,0.7-0.6,1.3,0.1,1.9c0.2-0.6,0.4-1.2,0.6-1.8c0.4,0.1,0.9,0.2,1.4,0.2c-0.4,0.7-0.7,1.4,0,2c0.4-0.2,0.2-0.7,0.4-1
	s0.2-0.7,0.4-1.1c0.3,0,0.6,0.1,0.9,0.2c-0.2,0.5-0.7,1-0.5,1.6c0.1,0.2,0.2,0.3,0.5,0.6c0.3-0.8,0.5-1.5,0.7-2.2h0.1
	c0,0.1,0.1,0.2,0.1,0.3c0,0.1,0,0.2-0.1,0.3C127.5,58.5,127.2,59.3,127.6,60.1L127.6,60.1z M125.9,43.3c0,0-0.1,0-0.1,0.1
	c-0.2-0.1-0.3-0.2-0.5-0.3c0.2-0.7,0.4-1.5,0.3-2.2c0-0.1,0-0.3,0.1-0.3c0.3-0.3,0.6-0.5,1-0.6C126.3,41.1,125.5,42.1,125.9,43.3
	L125.9,43.3z M124.6,38.2c0-0.4,0.2-0.6,0.7-0.7C125.1,37.8,124.9,38,124.6,38.2 M126.4,38.4c0-0.1-0.1-0.2-0.1-0.2
	c0-0.8-0.3-1.2-0.9-1.4c-0.7-0.2-1.5,0.2-1.8,0.8c-0.1,0.2-0.2,0.5-0.4,0.8c0.2,0.2,0.6,0.3,0.6,0.8c-1.8,0-3.6-0.1-5.3,0.3
	c-0.4-0.5-0.7-1-1.1-1.4c-0.4-0.4-0.9-0.6-1.4-0.9c0.8-0.1,1.6-0.2,2.3-0.3c0.6-0.1,1.2-0.3,1.7-0.4c0.2,0,0.3-0.1,0.5-0.1
	c0.8-0.1,1.5-0.1,2.2-0.2c0.3,0,0.6-0.2,0.9-0.3c0.3-0.2,0.5-0.2,0.8-0.2c0.5,0.1,0.9,0,1.4-0.2c0.1,0,0.2-0.1,0.4-0.2
	c0.4-0.2,0.6-0.1,0.8,0.3c0.1,0.2,0.2,0.4,0.2,0.6c0.2,0.6,0.3,1.2,0.4,1.9C127.4,38.1,126.9,38.3,126.4,38.4L126.4,38.4z
	 M114.7,45.3c0.8-0.1,1.6-0.1,2.4-0.2c0.4,0,0.8-0.1,1-0.3c0.3-0.2,0.5-0.5,0.8-0.8c0.1-0.1,0.1-0.2,0.1-0.2c0.5-0.5,0.9-1.1,1-1.8
	c1.3-0.3,2.6-0.3,3.9-0.2c-0.3,0.7-0.2,1.2,0.2,1.8c-0.1,0.2-0.2,0.3-0.3,0.5c-0.1,0.1-0.2,0.3-0.3,0.4c-0.1,0.7-0.5,1.2-0.9,1.7
	c-0.8,1.1-1.3,2.4-1.8,3.7c-0.2,0.4-0.3,0.8-0.4,1.1c-1.6-0.2-3.1-0.3-4.3-1.4C116.6,47.8,115.8,46.5,114.7,45.3L114.7,45.3z
	 M124.3,47.1c0.1,0.2,0.2,0.3,0.3,0.4c0.2,0.2,0.3,0.2,0.6,0.1c0.8-0.4,1.6-0.3,2.5,0c0.3,0.1,0.6,0.3,0.9,0.2
	c0.2-0.1,0.4,0.1,0.5,0.3c0,0.2,0,0.3,0.1,0.5c-1.8-0.2-3.5-0.4-5.4-0.7C123.9,47.6,124.1,47.3,124.3,47.1L124.3,47.1z M124.1,40.6
	c-0.8,0-1.7,0.1-2.5,0.2c-0.7,0-1.5,0.1-2.2,0.2c-0.2,0-0.3,0-0.5,0c-0.5,0-1,0.1-1.6,0.1c-0.2,0-0.5,0-0.8,0
	c0.1-0.2,0.2-0.3,0.3-0.3c0.5-0.3,1.1-0.5,1.7-0.5c0.7,0,1.4-0.1,2.1-0.3c1-0.2,1.9-0.1,2.9,0l1,0.1
	C124.5,40.5,124.4,40.6,124.1,40.6L124.1,40.6z M116.9,39c0.1,0.2,0,0.5,0.1,0.7c-0.6,0.2-1.1,0.2-1.7-0.1c-0.3-0.2-0.8-0.2-1.3-0.4
	c-0.2,0.4-0.5,0.7-0.7,1.2c-0.3,0.7-0.2,1.7,0.5,2c0.5,0.3,1.1,0.5,1.7,0.1c0.6-0.4,1.2-0.5,1.9-0.3c0,0.1,0,0.2,0,0.2
	c-0.5,0.5-0.9,1.1-1.5,1.5c-0.6,0.4-1.4,0.3-2-0.1c-0.5-0.3-0.9-0.6-1.5-0.8c-0.1,0-0.2-0.1-0.3-0.2c-0.5-0.6-0.9-1.2-1-2
	c0-0.4-0.2-0.7,0-1.1c0.4-0.8,1-1.3,1.9-1.5c0.6-0.1,1.1-0.2,1.7-0.3C115.6,37.8,116.6,38.3,116.9,39L116.9,39z M114.9,40.6
	c0,0.2,0,0.5-0.1,0.8c-0.1,0.2-0.3,0.3-0.5,0.5c-0.2-0.4-0.3-0.6-0.5-1c0.1-0.2,0.3-0.4,0.4-0.5C114.5,40.2,114.9,40.3,114.9,40.6
	 M111.5,45c0.7,0.3,1.3,0.5,1.8,1c0.4,0.4,0.7,1,0.8,1.5c0.1,0.5,0.1,1,0.2,1.6c-0.8-0.3-1.6-0.4-2.2-0.8c-0.9-0.5-1.9-0.5-3-0.6
	c-0.3,0.5-0.5,1.1-0.8,1.7c-0.4,0.8,0,1.9,0.8,2.2c0.2,0.1,0.5,0.2,0.7,0.3c0.3,0.2,0.6,0.1,0.9,0c0.5-0.2,1-0.3,1.5-0.5
	c0.3,0.3,0.9,0.5,0.9,1.2c-0.3,0-0.5-0.1-0.6-0.1c-0.7,0.6-1.4,1.2-2.1,1.8c-0.1,0.1-0.2,0.2-0.3,0.2c-0.9,0-1.8,0-2.6-0.4
	c-0.9-0.4-1.5-1.1-1.8-2c-0.4-1.3-0.4-2.6-0.2-3.9c0.1-0.4,0.3-0.7,0.5-1.1c0.4-0.7,0.8-1.4,1.5-1.8c0.4-0.3,0.8-0.5,1.2-0.8
	c0.3,0.1,0.7,0.2,1.1,0.3c0.2,0,0.3,0,0.5,0C110.7,44.9,111.1,44.9,111.5,45L111.5,45z M110.7,50.5c-0.1,0.3-0.3,0.4-0.6,0.4
	c-0.1,0-0.2,0-0.4,0c-0.4-1-0.3-1.2,0.3-1.5c0.1,0.1,0.2,0.3,0.4,0.4C110.7,50,110.8,50.2,110.7,50.5L110.7,50.5z M112.8,50.9
	c0.1-0.1,0.3-0.3,0.4-0.5c-0.1-0.1-0.1-0.3-0.2-0.4c0.1,0,0.1,0,0.2,0c0.5,0.2,1,0.3,1.5,0.5c0.5,0.2,1.1,0.5,1.6,0.7
	c1,0.6,2.1,0.9,3.3,0.9c0.1,0,0.2,0,0.3,0.1c-0.1,0.4-0.2,0.7-0.4,1.1c-1.2-0.2-2.4-0.4-3.5-0.8C115,52,113.9,51.4,112.8,50.9
	L112.8,50.9z M120.5,55.3c0.2-0.3,0.2-0.5,0.4-0.7c0.9,0.2,1.8,0.3,2.7,0.5c0.5,0.1,1,0.2,1.5,0.2c0.9,0.1,1.9,0.1,2.9,0.2
	c0,0.2-0.1,0.4-0.1,0.7C125.4,56.1,123,55.9,120.5,55.3L120.5,55.3z M121.2,53.7c0.1-0.9,0.5-1.6,0.8-2.4c0.3-0.8,0.7-1.6,1-2.4
	c2.1,0.2,4,0.4,6.1,0.7c-0.3,1.6-0.6,3.2-0.9,4.9C125.8,54.4,123.5,54.4,121.2,53.7L121.2,53.7z M129.4,46.2
	c-1.7-0.2-3.3-0.4-4.9-0.6l0.3-1.2c0.3-0.1,0.6-0.1,0.9,0.1c0.2,0.2,0.6,0.3,0.8,0.3c0.8,0.2,1.7,0.3,2.5,0.4c0.2,0,0.3,0.1,0.5,0.2
	L129.4,46.2L129.4,46.2z M127.9,43.9c-0.3-0.1-0.8-0.2-1.2-0.2c0.3-1,0.7-1.9,1-2.8c0.1-0.2,0.2-0.4,0.3-0.6c0.2-0.3,0.1-0.5,0-0.8
	c0.4,0,0.8-0.1,1.2-0.1c0.2,0,0.4,0.1,0.6,0.1c-0.6,0.6-0.6,1.4-1,2.1C128.4,42.3,128.2,43.1,127.9,43.9L127.9,43.9z M129.4,36.5
	c-0.1-0.8-0.6-1.4-0.9-2.1c0-0.1-0.1-0.1-0.1-0.1c-0.7-0.2-1.4-0.5-2.1-0.2c-0.5,0.2-1.1,0.2-1.6,0.2c-1.2-0.1-2.3,0.2-3.4,0.4
	c-1,0.2-2,0.3-3,0.5c-0.8,0.1-1.6,0.3-2.4,0.3c-0.8,0.1-1.5,0.1-2.3,0c-1.3-0.1-2.7-0.3-4-0.4c-1.3-0.1-2.6-0.1-3.9-0.2
	c-1.2-0.1-2.4-0.3-3.6-0.5c-2.2-0.3-4.3-1.1-6.5-1.8c-1.1-0.3-2.3-0.6-3.4-0.9c-0.8-0.2-1.7-0.4-2.5-0.7c-1.2-0.4-2.4-0.7-3.7-0.9
	c-0.6-0.1-1.2-0.2-1.8-0.2c-0.9,0-1.8,0-2.7,0.5c-0.1,0.1-0.2,0.1-0.4,0.1c-0.9,0-1.5,0.6-2.1,1.2C78,33.2,77,34.6,75.9,36
	c-1,1.3-1.8,2.7-2.6,4.1c-0.2,0.4-0.5,0.8-0.9,1.2c-1.4,1.5-2.5,3.1-3.6,4.7c-0.7,1-1.5,1.9-2.5,2.6c-0.7,0.5-1.3,1-2.1,1.3
	c-2.1,0.7-4.2,1.3-6.4,1.9c-1.9,0.5-3.8,0.5-5.7,0.4c-0.5,0-1,0-1.6,0c-1.7,0-3.4-0.4-5-0.9c-0.7-0.2-1.4-0.7-2.2-1
	c0.1-0.2,0.2-0.2,0.3-0.3c0.1-0.2,0.2-0.4,0.2-0.5c-0.2-0.4,0-0.6,0.3-0.9c0.2,0.2,0.5,0.3,0.7,0.5c1,0.8,2,1.4,3.2,1.8
	c1.9,0.6,3.9,0.8,5.9,0.5c0.3,0,0.5,0,0.8,0c1.1,0.1,2.2-0.2,3.3-0.6c0.7-0.3,1.5-0.4,2.3-0.6c0.2-0.1,0.4-0.2,0.7-0.2
	c0.1,0,0.2-0.1,0.3-0.1c1.3-0.1,2.3-1.1,3.5-1.5c0.4-0.7,1.3-0.7,1.7-1.4c0,0,0.1-0.1,0.2-0.1c0.6-0.2,1-0.7,1.3-1.1
	c0.5-0.6,1-1.1,1.5-1.6c0.7-0.6,1.1-1.4,1.5-2.2c0-0.1,0.1-0.2,0.1-0.3c0.5-0.5,0.6-1.2,0.9-1.8c0.1-0.1,0.1-0.3,0.2-0.4
	c0.6-0.3,0.7-0.9,1-1.4c0.1-0.1,0.2-0.3,0.3-0.4c0.7-0.4,1-1.1,1.3-1.8c0.2-0.5,0.4-1.1,0.9-1.4c0.1,0,0.2-0.2,0.2-0.3
	c0.1-0.2,0.2-0.5,0.5-0.5c0.1,0,0.2-0.2,0.3-0.3c0.5-0.7,0.9-1.5,1.4-2.2c0.2-0.3,0.3-0.5,0.6-0.7c0.4-0.2,0.7-0.5,1-0.8
	c0.4-0.5,1-0.9,1.6-1c0.5-0.2,1.2-0.1,1.7,0c1.2,0.2,2.2,0.7,3.3,1.2c0.9,0.5,2,0.7,3,0.8c0.9,0.1,1.8,0.2,2.6,0.3
	c0.9,0.1,1.9,0.3,2.8,0.6c0.8,0.3,1.7,0.5,2.5,0.8c0.5,0.2,1.1,0.2,1.6,0.4c0.4,0.1,0.7,0.2,1.1,0.3c0.4,0.1,0.8,0.2,1.3,0.2
	c0.8,0,1.6,0.1,2.4,0.3c0.2,0,0.5,0.1,0.7,0.1c1.1,0,2.2,0.2,3.4,0.4c0.9,0.2,1.9,0.2,2.9,0.1c0.9-0.1,1.8-0.3,2.7-0.5
	c0.2,0,0.4,0,0.7,0c0.7,0.1,1.4,0.2,2.2,0.1c0.3,0,0.6,0,0.8,0c0.8,0.1,1.5-0.1,2.3-0.1c1.3-0.1,2.6-0.5,3.8-0.8
	c0.7-0.2,1.3-0.4,2-0.5c0.4-0.1,0.9-0.1,1.3-0.2c0.8-0.1,1.5-0.2,2.3-0.3c0.5-0.1,1-0.1,1.6-0.1c0.4,2.4,0.9,4.8,1.6,7.1
	c-0.7-0.1-1.4-0.2-2.1-0.3C129.4,37.7,129.5,37.1,129.4,36.5L129.4,36.5z M42.9,48c-1.1-0.2-2.1-0.3-3.1-0.5
	c0.4-0.6,0.7-1.2,1.1-1.7c0.1-0.2,0.3-0.2,0.5-0.3c0.7,0.2,1.3,0.5,2,0.7c-0.1,0.3-0.2,0.6-0.3,0.9C42.9,47.4,42.7,47.7,42.9,48
	 M37.7,40.7c1.8,0.8,3.5,1.6,5.3,2.4c-0.1,0.5-0.2,0.9-0.3,1.3c-0.6,0-1.1-0.2-1.6-0.4c-1.3-0.6-2.5-1.3-3.9-1.6c0,0-0.1,0-0.2-0.1
	C37.1,41.7,37.3,41.2,37.7,40.7L37.7,40.7z M37.9,43.9c0.5,0.2,0.9,0.4,1.4,0.7c0,1.1-0.5,1.8-1.1,2.6C38,47,37.8,47,37.8,46.9
	c-0.3-0.3-0.6-0.4-1-0.5c-0.3,0-0.7-0.2-0.9-0.3c-0.2-0.5-0.3-0.8-0.4-1.1c-0.2,0-0.3,0.1-0.5,0.1c0.1-0.5,0.2-0.8,0.5-1.2
	c0.2-0.2,0.3-0.6,0.5-0.8C36.6,43.4,37.3,43.6,37.9,43.9L37.9,43.9z M35.8,47.5c0.7,0,1,0.5,1.5,0.8c0.2,0.1,0.3,0.3,0.6,0.2
	c0.1,0,0.3,0,0.4,0c0.8,0.7,1.8,0.7,2.7,0.7c0.2,0.4,0.3,0.8,0.5,1.2c-0.2,0.4-0.4,0.9-0.7,1.5c-1.9,0.2-4.5-0.6-6.2-2
	C34.9,49.2,35.2,48.3,35.8,47.5 M34.9,54.5c0,0,0.1-0.1,0.2-0.1c0.2-0.2,0.3-0.5,0.5-0.4c0.7,0.1,1.4-0.3,2.2,0.2
	C36.7,54.6,35.8,54.3,34.9,54.5L34.9,54.5z M37.1,55.1c-0.1,0.2-0.2,0.4-0.3,0.6h-1.9c0-0.1,0-0.1,0-0.2
	C35.6,55.4,36.3,55.3,37.1,55.1L37.1,55.1z M35.4,53.1c0-0.2,0.1-0.3,0.2-0.4c0.2,0.1,0.4,0.2,0.7,0.4H35.4z M110.2,76.1
	c0-0.4,0.1-0.7,0.5-0.7c0.2,0,0.3,0.2,0.4,0.3L111,76C110.8,76,110.5,76.1,110.2,76.1 M89.1,72.3c0.8,0.7,1.6,1.4,2.2,2.2
	c0.1,0.2,0.2,0.3,0.3,0.5c0.3,1.1,0.5,2.2,0.1,3.3c-0.2,0.7-0.4,1.3-0.6,2c-0.4,1.1-1,1.9-2.2,2.3c-0.5,0.2-1,0.4-1.4,0.6
	c-0.8,0.4-1.5,0.2-2.3,0.2c-0.9-0.1-1.9-0.3-2.8-0.4c-1.6-0.2-2.6-1.1-3.3-2.5c-0.2-0.5-0.5-1-0.7-1.5c-0.2-0.4-0.2-0.9-0.2-1.4
	c0-1.6,0.8-2.7,1.8-3.8c0.5-0.6,1.1-1.1,1.7-1.5c0.5-0.3,1-0.7,1.5-1c0.6-0.3,1.2-0.6,1.9-0.4c0.2,0.1,0.4,0,0.7,0
	c0.4,0.1,0.8,0.1,1.2,0.2C87.7,71.3,88.5,71.7,89.1,72.3L89.1,72.3z M116.1,77.3c-0.3-0.2-0.6-0.4-0.9-0.5c0,0-0.1,0-0.1,0
	c-0.3-0.7-0.6-1.4-0.9-2.2c-0.1-0.3-0.2-0.6-0.3-0.9c-0.1-0.4-0.2-0.8-0.2-1.2c-0.1-0.5-0.2-0.9,0-1.4c0.1-0.2,0.1-0.4,0.1-0.6
	c0.1-0.9,0.1-1.8,0.2-2.7c0-0.3,0.1-0.6,0.2-0.9c0.1-0.3,0.2-0.7,0.4-1c0.2-0.3,0.4-0.6,0.7-0.9c0.1-0.2,0.2-0.3,0.4-0.5
	c0.3-0.4,0.6-0.9,1-1.3c0.2-0.2,0.4-0.3,0.6-0.4c0.2-0.1,0.3-0.2,0.5-0.3c0.5-0.3,1-0.7,1.5-1c0.2-0.1,0.4-0.3,0.6-0.4
	c0.5-0.3,1.1-0.3,1.6-0.3c0.5,0,1,0.1,1.5,0.2c0.6,0.1,1.1,0.2,1.7,0.2c1.3,0.1,2.6,0.5,3.8,1c0.3,0.1,0.6,0.2,0.7,0.7
	c0,0.1,0.2,0.2,0.4,0.3c1,0.5,1.8,1.3,2.3,2.3c0.3,0.7,0.6,1.4,0.6,2.2c0.1,1.3,0.1,2.7-0.1,4c-0.4,1.6-1.1,3.1-2.2,4.3
	c-0.4,0.5-0.8,1-1.2,1.5c-0.4,0.5-0.8,0.7-1.4,0.9c-2.4,0.5-4.8,0.6-7.3,0.5C118.6,78.7,117.2,78.2,116.1,77.3L116.1,77.3z
	 M135.8,72.2c0.1-0.4,0.1-0.7,0.2-1.1c0.1-0.7,0.7-1.3,1.4-1c0.6,0.3,1.2,0.2,1.8,0.1c0.1,0,0.1,0,0.2,0.1c0.2,0.4,0,0.8-0.2,1.1
	c-0.1,0.2-0.2,0.4-0.3,0.6c-0.4,0.7-1.7,1.4-2.5,1.2C136,73,135.7,72.5,135.8,72.2L135.8,72.2z M140.1,58.4c0.2-0.6,0.5-0.4,0.9-0.2
	C140.7,58.3,140.4,58.3,140.1,58.4 M140.4,59.8c-0.3,0.1-0.6,0.2-1,0.3c0.1-0.3,0.1-0.4,0.1-0.6C139.9,59.6,140.1,59.7,140.4,59.8
	L140.4,59.8z M140.4,59.6c0.6-0.5,1.3-0.8,2.1-0.8c0.4,0,0.8,0.2,1.1,0.4v0.2l-3.2,0.5C140.4,59.8,140.4,59.7,140.4,59.6L140.4,59.6
	z M143.9,59.9c-0.1,0.5-0.4,0.9-0.8,1.2c-0.1,0.1-0.2,0.1-0.2,0.1c-0.6-0.2-1.2,0-1.7-0.5C142.1,60.5,143,60.2,143.9,59.9
	 M141.9,57.1c-0.4-0.2-0.9-0.4-1.3-0.6c0.1-0.3,0.2-0.5,0.3-0.8c0.2-0.5,0.4-0.5,0.8-0.5c0.6,0,1.3,0.1,1.9,0c0.6,0,1.1,0,1.6,0.3
	c0.3,0.2,0.7,0.4,1.1,0.6c-0.4,0.6-0.7,1.2-1,1.8c-0.2,0.3-0.4,0.4-0.8,0.3C143.7,57.9,142.8,57.5,141.9,57.1L141.9,57.1z
	 M142.9,47.7c-0.5-0.2-0.6-0.5-0.5-1.1c0.1,0.1,0.3,0.2,0.4,0.2c0.9,0.7,1.9,1,2.8,1.5c0.4,0.2,0.7,0.3,1.1,0.5
	c0.4,0.1,0.7,0.3,1.1,0.4c0.4,0.2,0.8,0.3,1.3,0.5c-0.1,0.2-0.1,0.3-0.2,0.5c-0.8-0.5-1.5-0.9-2.2-1.3c-0.4-0.1-0.8-0.2-1.2-0.4
	C144.6,48.3,143.7,48,142.9,47.7L142.9,47.7z M148.2,54.7c-0.2-0.1-0.4,0.1-0.6,0c-0.7,0-1.4-0.3-2.1-0.7c0.2-0.2,0.3-0.5,0.5-0.7
	c0.3-0.2,0.5-0.5,0.7-0.8c0.1-0.2,0.4-0.4,0.6-0.7c1,0.6,1.2,1.7,1.8,2.5C148.8,54.7,148.6,54.9,148.2,54.7 M142,49.7
	c0.8,0.3,1.6,0.6,2.4,0.9c0.2,0.1,0.5,0.2,0.8,0.3c-0.6,0.6-1.2,1.1-1.8,1.7c-0.8,0.9-2.3,1-3.4,0.1c-0.2-0.2-0.4-0.3-0.5-0.5
	c0-0.1,0-0.1,0-0.1c0.4-0.8,0.8-1.7,1.5-2.3C141.5,49.5,141.6,49.5,142,49.7 M139.1,50c-1.2-0.9-2.5-1.7-3.7-2.7
	c-1-0.8-1.8-1.8-2.7-2.8c0.4-0.6,0.7-1,1.1-1.6c1.7,2.4,3.6,4.3,6.1,5.8C139.6,49.2,139.4,49.6,139.1,50 M133.7,48
	c0.6,0.5,1.2,1,1.8,1.5c0.2,0.2,0.4,0.3,0.6,0.4c0.6,0.4,1.3,0.8,2,1.2c-0.1,0.1-0.2,0.2-0.4,0.4c-0.3,0.4-0.4,0.8-0.1,1.3
	c0.2,0.3,0.5,0.7,0.8,1c0.3,0.3,0.5,0.6,0.2,1c-0.1,0.1-0.1,0.3-0.2,0.5c-0.2,0.4-0.1,0.8,0.1,1.2c0.1,0.2,0.3,0.5,0.5,0.8
	c-0.2,0.4-0.5,0.9-0.7,1.4c-0.1,0.4-0.3,0.9-0.2,1.3c0.1,0.3,0.5,0.5,0.8,0.8c0.1,0.1,0.2,0.1,0.2,0.1c0.7,0.2,1.3,0.4,2,0.6
	c0.4,0.1,0.8,0.3,1.1,0.4c0.1,0,0.2,0.1,0.2,0.1c0.5,0,1-0.1,1.5,0.1c0.1,0,0.4-0.2,0.6-0.3c0,0.8-0.4,1.6-0.8,2.2
	c-0.8,1.4-1.7,2.7-2.6,4c-0.1,0.2-0.3,0.4-0.5,0.6c-0.5-0.2-0.9-0.4-1.4-0.7c-0.5-0.2-1-0.4-1.6-0.3c-0.3,0-0.6-0.1-0.8-0.1
	c-1,0-1.5-0.7-1.8-1.5c-0.3-0.6-0.3-0.6-0.7-0.8c0.2-0.9,0.6-1.6,1-2.4c0.4-0.8,1-1.6,1.1-2.6c0.1-0.8,0.1-1.5-0.1-2.3
	c0-0.1-0.1-0.2-0.1-0.4c-0.5-1.7-1.4-3-3-3.8c-0.4-0.2-0.8-0.4-1.2-0.6c-0.6-0.2-1.2-0.3-1.8-0.5c0.2-0.8,0.5-1.7,0.6-2.7
	c0.1-0.4,0.1-0.9,0.1-1.4c0-0.2-0.1-0.4,0-0.6c0.1-0.6,0-1.2-0.7-1.5c0.1-0.3,0.3-0.6,0.4-0.9c0.2-0.5,0.5-0.5,0.8-0.1
	C132.3,46.6,133,47.3,133.7,48L133.7,48z M130.7,44.1c-0.3,0.2-0.8,0.1-1.2,0c-0.2,0-0.4-0.1-0.7-0.1c0.2-0.3,0.4-0.6,0.4-0.9
	c0.1-0.6,0.5-1,0.9-1.5c0.3-0.3,0.4-0.6,0.2-1c-0.1-0.3-0.1-0.6-0.2-1c0.5,0,1.1-0.1,1.5,0.3c-0.3,0.6-0.5,1.2-0.8,1.7
	c0,0,0.1,0.1,0.1,0.2c0.7,0,0.9-0.9,1.6-1C132.5,42.3,132,43.4,130.7,44.1L130.7,44.1z M34,7.8c0,0.4-0.3,0.4-0.5,0.4
	C33.5,7.8,33.7,7.7,34,7.8 M2.2,78.5c0.1-0.3,0.2-0.7,0.1-1.1c-0.1-0.2-0.1-0.5-0.1-0.7c0.1-0.7,0.2-1.4,0.3-2.2
	c0.5-0.2,0.8-0.6,0.8-1.1c0-0.3,0-0.5,0.2-0.7c0,0,0.1-0.2,0.1-0.3c0-0.5,0.1-0.9,0.3-1.4c0.5-0.8,1-1.7,1.4-2.6
	c0.3-0.7,0.8-1.3,1.3-1.9c0.1-0.1,0.2-0.2,0.2-0.3c0.2-0.7,0.7-1.2,1-1.8c0.3-0.6,0.6-1.2,0.7-1.8c0-0.2,0.3-0.4,0.5-0.8
	c0,0-0.1-0.2,0-0.3c0.1-0.2,0.3-0.4,0.4-0.4c0.2-0.1,0.4-0.2,0.4-0.5c0.1-0.3,0.5-0.5,0.6-1c0-0.3,0.4-0.7,0.7-1
	c0.2-0.2,0.4-0.5,0.6-0.7c0.5-0.7,1-1.4,1.3-2.2c0.3-0.6,0.6-1.3,0.8-2c0.1-0.6,0.5-1.1,0.9-1.5c0.1-0.1,0.2-0.2,0.2-0.3
	c0.1-0.8,0.5-1.4,0.6-2.1c0.1-0.4,0.4-0.8,0.6-1.2c0.3-0.7,0.6-1.3,0.9-2c0.1-0.3,0.3-0.6,0.4-0.9c0.1-0.4,0.2-0.8,0.4-1.2
	c0.4-1,0.7-1.9,1.1-2.8c0.3-0.9,0.6-1.9,1-2.8c0.2-0.6,0.5-1.2,0.8-1.8c0.3-0.8,0.6-1.6,0.9-2.4c0.4-1,0.9-2.1,1.3-3.1
	c0.3-0.8,0.6-1.6,0.9-2.4c0.4-1.4,0.9-2.7,1.4-4c0.2-0.5,0.5-0.9,0.7-1.4c0.2-0.6,0.5-1.1,0.6-1.7c0.3-0.9,0.9-1.7,1.4-2.5
	c0.5-0.7,0.9-1.5,1.4-2.3c0.2-0.4,0.4-0.8,0.7-1.1c0.5-0.6,0.7-1.4,1-2c0.2-0.4,0.6-0.8,0.9-1.2c0.4-0.4,0.8-0.8,1.1-1.2
	c0.1-0.1,0.1-0.2,0.2-0.2c0.5-0.1,0.6-0.6,0.8-1c0.1-0.2,0.2-0.5,0.2-0.7c0-0.3,0.2-0.4,0.4-0.5c0.3-0.1,0.5-0.4,0.7-0.6
	c0.3-0.4,0.7-0.9,1.2-1.1c0.2-0.1,0.4-0.3,0.6-0.4c1-0.7,2-1.6,3.1-2.2c1.3-0.7,2.7-1.3,4-1.9c0.2-0.1,0.4-0.1,0.6-0.2
	c1.9-0.5,3.9-0.6,5.8-0.6c0.5,0,1,0.2,1.5,0.3c0.3,0,0.6,0,0.9,0.1c0.8,0.2,1.7,0.3,2.5,0.6c1.5,0.5,2.9,1.1,4.3,1.7
	c1.7,0.7,3.2,1.6,4.8,2.6c0.3,0.2,0.6,0.5,0.8,0.8c1,1.8,2.3,3.4,3.7,5c1.1,1.2,1.9,2.6,2.3,4.2c0.2,1,0.5,2,0.7,3
	c0.1,0.4,0.1,0.8,0.2,1.2c0.2,1.4,0.3,2.7,0.4,4.1c0.1,0.6,0,1.2-0.1,1.8c-0.1,0.8-0.2,1.5-0.4,2.3c-0.2,1-0.5,2-0.8,3.1
	c-0.4,0.3-0.3,0.8-0.3,1.2c0,0.6-0.1,1.2-0.4,1.8c-0.4,0.9-0.8,1.8-1.2,2.8c-0.3,0.8-0.8,1.4-1.3,2c-0.5,0.6-1,1.3-1.6,1.9
	c-0.4,0.4-0.8,0.8-1.2,1.2c-0.9,0.7-1.9,1.5-2.9,2.1c-1.3,0.9-2.8,1.5-4.3,1.9c-2.6,0.6-5.2,1-7.8,0.9c-0.6,0-1.2,0-1.8,0
	c-1.6,0-3-0.5-4.3-1.2c0.2-0.5,0.5-1,0.7-1.5c0.2-0.5,0.1-0.8-0.4-1c-0.2-0.1-0.4-0.2-0.6-0.3c-0.2-0.1-0.3-0.2-0.5-0.2
	c0-0.1,0-0.1,0-0.2c0.3-0.8,0.8-1,1.7-0.8c0.8,0.2,1.7,0.1,2.6,0.3c1.4,0.4,2.7,0.1,4.1,0c0.6,0,1.1-0.1,1.7-0.2
	c0.6-0.1,1.2-0.1,1.8-0.4c0.7-0.3,1.5-0.5,2.3-0.8c0.9-0.3,1.7-0.7,2.5-1.3c0.7-0.6,1.4-1.2,2.1-1.8c0.1-0.1,0.2-0.3,0.3-0.5
	c0.1-0.3,0.2-0.5,0.5-0.5c0.1,0,0.2,0,0.3-0.1c0.3-0.4,0.6-0.9,0.9-1.3c0.1-0.2,0.2-0.5,0.3-0.7c0.5-0.6,0.7-1.3,0.8-2.1
	c0.1-0.4,0.3-0.8,0.5-1.2c0.6-1.2,1.2-2.3,1-3.7c0-0.2,0.1-0.4,0.1-0.6c0.3-1.5,0.5-3.1,0.1-4.6c-0.1-0.6-0.1-1.2-0.2-1.8
	c-0.2-1.9-0.8-3.7-1.6-5.4c-0.2-0.3-0.5-0.6-0.7-0.9C64,15.1,63,14,61.6,13.3c0.3-0.4,0.6-0.8,0.8-1.2c0.3-0.4,0.5-0.9,0.8-1.4
	c-0.4-0.7-1.2-1-1.8-1.5c-0.2-1.1-0.9-1.9-1.9-2.4c-1-0.5-2.1-1-3.3-1.2c-0.6-0.1-1.2,0.1-1.8,0.1c-0.3,0-0.5,0.1-0.8,0.1
	c-0.4,0-0.7-0.1-1.2-0.2c0.2,0.6-0.1,1-0.5,1.4s-0.7,0.8-1,1.3c-0.4-0.9-1.1-0.6-1.7-0.5c-1.2,0.1-2.5,0.3-3.7,0.5
	c-0.6,0.1-1.1,0.2-1.7,0.3c-1.8,0.3-3.5,1-5.2,1.9c-0.6,0.3-1.2,0.9-1.7,1.3c-0.4,0.3-0.8,0.6-1.1,0.9c-0.4,0.4-0.7,0.9-1,1.3
	c-1,1.4-1.6,2.9-2.3,4.4c-0.5,1.2-1.1,2.3-1.3,3.6c-0.3,1.4-0.5,2.7-0.8,4c-0.1,1-0.2,2-0.3,3c0,0.9,0.1,1.8,0.6,2.6
	c0.1,0.2,0.1,0.4,0.2,0.5c0.4,1.8,1.3,3.5,2.5,4.9c0.7,0.9,1.6,1.7,2.5,2.4c0.1,0.1,0.2,0.2,0.4,0.3c-0.2,0.5-0.4,1-0.6,1.5
	c-0.5-0.3-0.8,0.1-1.3,0.1c0.1,0.2,0.2,0.4,0.3,0.6c-0.3,0.6-0.6,1.3-0.9,1.9c-0.1,0.3-0.4,0.4-0.7,0.3c-0.4-0.1-0.8-0.2-1.2-0.2
	c-0.1,0-0.2,0-0.3,0c-0.3,0.1-0.6,0.3-1,0.4c-1.3,0.4-2.2,1.3-3.2,2.2c-1.4,1.4-2.3,3-3.2,4.7c-0.6,1.1-1.2,2.2-1.7,3.3
	c-0.4,1-0.8,2-1,3c-0.4,1.7-0.8,3.3-1.1,5c-0.2,1.3-0.4,2.6-0.5,4c-0.1,0.7,0,1.3,0.1,2.1c0.1-0.1,0.2-0.1,0.2-0.1
	c0,0.1,0.1,0.4,0.1,0.4c-0.4,0.3-0.1,0.6,0,0.9c0-0.2,0-0.4,0-0.6h0.1c0.1,0.3,0.1,0.6,0.2,0.9l-0.1,0c-0.1-0.1-0.2-0.3-0.2-0.4
	c0.1,0.4,0.2,0.8,0.3,1.3c0,0.2,0.2,0.2,0.4,0.4c0,0.1-0.2,0.2-0.1,0.5c0.5,1,1,2,1.5,3.1c0.6,1.2,1.5,2.2,2.3,3.2
	c0,0.1,0.1,0.1,0.1,0.2c-1.9,0.1-3.7,0.2-5.6,0.3l-4.5,0.3c-0.4,0-0.9,0.1-1.3,0.1c-0.5,0.1-0.8-0.1-1-0.6c-0.4-0.8-0.9-1.5-1.7-1.9
	C10.5,76,9.8,75.9,9,76.2c-0.6,0.2-1.3,0.4-1.8,0.8c-0.5,0.4-1,0.9-1.4,1.4c-0.2,0.4-0.5,0.8-0.3,1.4c0,0.1,0,0.2-0.1,0.2H2.1
	C1.9,79.5,2,79,2.2,78.5L2.2,78.5z M88.1,123.8c-0.7,0-1.5,0.1-2.2,0.1s-1.5-0.1-2.2-0.1c-1.3,0-2.5,0-3.8,0c-3.3,0-6.5,0-9.8,0
	c-1,0-1.9-0.1-2.9-0.1c-0.7,0-1.3,0.1-1.9,0.1c-0.2-0.3,0.4-0.5,0.1-0.8c0.2-0.2,0.3-0.5,0.5-0.6c0.4-0.3,0.2-0.9,0.7-1.2
	c0.1-0.1,0.2-0.3,0.3-0.3c0.1-0.3,0.1-0.7,0.5-0.9c0.1,0,0.1-0.2,0.1-0.2c0.1-0.8,0.4-1.3,1-1.8c-0.2-0.3-0.1-0.6,0.2-0.9
	c0.2-0.2,0.3-0.7,0.6-0.9c0,0,0.1-0.1,0.1-0.1c-0.2-0.5,0.3-0.7,0.3-1.2c0.1-0.4,0.4-0.7,0.5-1.1c0.2-0.6,0.6-1.1,0.8-1.7
	c0.1-0.4,0.1-0.8,0.2-1.2c0.3-0.2,0.7-0.5,0.8-1.1c0-0.1,0.1-0.2,0.2-0.3c0.2-0.3,0.3-0.5,0.4-0.9c0-0.2,0.4-0.5,0.5-0.7
	c0.2-0.5,0.5-1,0.9-1.3c0-0.1-0.1-0.2-0.1-0.2c0.3-0.3,0.5-0.6,0.8-0.8c0.3-0.3,0.5-0.6,0.8-0.8c0.3-0.3,0.6-0.5,0.8-0.9
	c0.1-0.2,0.4-0.3,0.6-0.3c0.3,0,0.7-0.1,1-0.1c0.7-0.1,1.4-0.2,2.1-0.5c0.3-0.1,0.7-0.1,1,0c0.8,0.2,1.6,0.3,2.4,0.5
	c0.9,0.2,1.2,0.9,1.6,1.6c0.7,1.3,0.7,2.7,0.7,4.2c-0.1,1.3,0,2.5-0.2,3.8c0,0.2,0,0.4,0.1,0.6c0.3,2.5,0.8,5,1.8,7.3
	c0.3,0.8,0.8,1.6,1.2,2.4c0.1,0.1,0.1,0.2,0.2,0.3C88.4,123.8,88.3,123.8,88.1,123.8L88.1,123.8z M148.8,117.1c0.2,0,0.5,0,0.8-0.1
	c0.2-0.1,0.5-0.1,0.8,0c0.5,0.1,1,0.2,1.5,0.3c0.2,0,0.4,0,0.6,0.2c0.9,0.8,1.4,1.7,0.9,3c-0.3,0.7-0.6,1.4-1,2.1
	c-0.1,0.3-0.4,0.5-0.6,0.8c-0.3,0.3-0.6,0.5-0.9,0.8c-0.5,0.6-1.1,0.9-1.8,1.3c-1.7,0.8-3.5,1.7-5.2,2.6c-0.1,0-0.2,0-0.3,0.1
	c0.1-0.6,0.3-1.1,0.7-1.5c0.2-0.2,0.3-0.5,0.4-0.8c0.5-1.3,0.9-2.7,1.6-4c0,0,0-0.1,0-0.1c0.5-1.2,1-2.5,1.4-3.7
	C147.9,117.3,148.1,117.1,148.8,117.1L148.8,117.1z M133.3,106.9c1.1,0.7,2.2,1.2,3.5,1c0.4-0.1,0.9,0,1.3-0.1c1.1,0,2.2,0,3.3-0.1
	c1-0.1,2-0.3,2.9-0.4c0.6-0.1,1.2-0.2,1.9-0.3c0.2,0,0.4-0.1,0.7-0.2c0.1,0,0.2-0.1,0.3-0.1h1.6c0,0.3,0,0.5-0.1,0.8
	c-0.4,1.4-0.7,2.9-1.1,4.3c-0.1,0.4-0.2,0.7-0.7,0.8c-0.1,0-0.2,0.1-0.2,0.2c-0.1,0.5-0.4,0.7-0.8,0.9c-0.6,0.4-1.1,0.9-1.7,1.3
	c-0.4,0.3-0.8,0.4-1.3,0.4c-1.1,0.1-2.2,0.3-3.3,0.4c-1,0.1-2,0.2-3,0c-0.6-0.1-1.3-0.5-1.8-0.9c-1.1-0.8-1.8-1.9-2.4-3.1
	c-0.1-0.1-0.1-0.2-0.1-0.3c-0.1-0.8-0.4-1.7-0.3-2.5c0-0.8-0.1-1.8,0.3-2.6c0-0.1,0.1-0.1,0.1-0.2
	C132.9,106.5,133.1,106.7,133.3,106.9L133.3,106.9z M151.4,85.9c-0.1,0.3-0.3,0.6-0.3,1c0,0.3-0.2,0.7-0.3,1c-0.3,0.8-0.7,1.7-1,2.5
	c0,0.1-0.1,0.2-0.1,0.2c-0.5,0.2-0.6,0.8-0.9,1.2c-0.1,0.2-0.2,0.3-0.4,0.4c-1.1,0.9-2.1,1.7-3.2,2.6c-0.9,0.8-2.1,1.2-3.2,1.7
	c-0.4,0.2-0.9,0.3-1.3,0.5c-1,0.4-2.1,0.8-3.1,1.3c-1.2,0.6-2.4,1.3-3.3,2.4c-0.1,0.1-0.1,0.1-0.2,0.2c-0.8-0.3-1.1-0.2-1.4,0.6
	c0,0.1-0.1,0.1-0.1,0.2c-0.1,0.1-0.1,0.2-0.2,0.3c-0.1,0-0.2,0-0.4,0c0,0.1,0,0.1,0,0.1c0.2,0.3,0.1,0.6-0.1,0.8
	c-0.2,0.3-0.4,0.5-0.4,0.8c0,0.1-0.1,0.3-0.2,0.4c-0.7,0.9-0.9,2.1-0.9,3.2c-0.1,2.2,0.1,4.4,1.3,6.3c0.5,0.8,1.2,1.5,1.9,2.1
	c1.1,0.8,2.3,1.5,3.6,1.9c0.3,0.1,0.7,0.2,1,0.1c0.7-0.1,1.3-0.1,2-0.1c0.4,0,0.9-0.1,1.3-0.1c1-0.2,2-0.4,2.9-0.5
	c0.5-0.1,1.1,0,1.7,0c-0.3,0.6-0.5,1.1-0.7,1.7c-0.7,1.6-1.4,3.2-2,4.8c-0.5,1.3-1.1,2.6-1.6,3.9c-0.1,0.3-0.3,0.5-0.7,0.5
	c-1.6,0-3.2,0.1-4.8,0c-0.3,0-0.6,0.1-0.9,0.1c-0.4,0-0.8,0-1.2,0c-0.7,0-1.4,0.1-2.1,0.1c-1.2-0.1-2.5,0.1-3.7,0
	c-1.2-0.1-2.4-0.2-3.6-0.1c-1.7,0.1-3.4-0.1-5.1-0.1c-2,0-4.1-0.2-6.1-0.2c-1.7-0.1-3.5-0.2-5.2-0.3c-1.4-0.1-2.8-0.2-4.2-0.2
	c-0.5,0-1.1,0-1.6,0c-1.9,0-3.8-0.1-5.6-0.1c-0.6,0-1.3-0.1-1.9-0.2c-0.3,0-0.6-0.1-0.9-0.1c-0.7,0-1.4-0.3-2-0.6
	c-0.2-0.1-0.3-0.4-0.4-0.6c-0.1-0.2-0.2-0.5-0.3-0.7c-0.8-0.9-1.4-1.9-1.9-3.1c-0.1-0.2-0.2-0.5-0.4-0.7c-0.2-0.4-0.4-0.8-0.5-1.3
	c-0.2-0.9-0.5-1.8-0.7-2.8c-0.3-1.3-0.6-2.5-0.3-3.8c0.1-0.2,0-0.5,0-0.8c0-1.4,0.2-2.7,0.1-4.1c-0.1-1.9-0.8-3.7-2.2-5.1
	c-0.9-1-2.1-1.3-3.3-1.6c-1.3-0.3-2.7,0-3.9,0.3c-0.3,0.1-0.7,0.1-0.9,0.2c-0.2,0.1-0.4,0.2-0.7,0.3c-0.1,0-0.1,0.1-0.2,0.2
	c-0.9,0.2-1.4,0.8-2.1,1.3c-0.3,0.2-0.5,0.5-0.8,0.7c-0.8,0.8-1.4,1.8-2,2.7c-0.4,0.6-0.8,1.3-1.2,1.9c-0.3,0.5-0.6,1-0.9,1.5
	c-0.3,0.6-1,1.1-0.9,1.9c-0.6,0.4-0.6,1.1-1,1.7c-0.6,1-1.1,2.1-1.7,3.2c-0.1,0.1-0.1,0.2-0.2,0.3c-0.2,0.2-0.4,0.4-0.4,0.8
	c0,0.2-0.2,0.4-0.4,0.7c-0.2,0.4-0.7,0.7-0.6,1.3c-0.4,0.3-0.6,0.9-0.9,1.2c-0.4,0.4-0.6,1.1-1.2,1.4c0,0-0.1,0.1-0.1,0.2
	c-0.2,0.6-0.6,0.9-1.1,0.9c-1,0-2-0.1-2.9-0.1c-0.5,0-1,0.1-1.4,0.1s-1,0.1-1.4,0.1L52,125c-0.6,0-1.1,0.1-1.7,0.1
	c-1.3,0.1-2.7-0.1-4-0.2c-0.7-0.1-1.5-0.1-2.2-0.1c-1.6,0-3.2,0.1-4.8,0.1c-0.9,0-1.8-0.1-2.8-0.1c-0.8,0-1.6,0-2.4,0
	c-1.9,0-3.8-0.1-5.6-0.1c-1.2,0-2.5-0.2-3.7-0.2c-0.2,0-0.4-0.1-0.5-0.3c-0.1-0.4-0.3-0.8-0.4-1.2c-0.2-1.1-0.5-2.1-0.6-3.2
	c-0.1-0.7,0-1.5,0.1-2.2c0.1-0.3,0-0.7,0-1c0-0.1,0-0.2,0-0.4c0-0.3,0.3-0.7-0.1-1c0,0,0.1-0.3,0.1-0.4c-0.2-0.7,0-1.3-0.3-2
	c-0.1-0.3,0-0.7-0.1-1c-0.1-0.5-0.2-1.1-0.2-1.6c-0.1-0.8-0.2-1.6-0.1-2.4c0.1-1.3,0-2.5-0.2-3.7c-0.2-1.5-0.6-3-1.2-4.4
	c-0.1-0.3-0.2-0.7-0.3-1.1c-0.4-1.1-1-2-2-2.7c-0.8-0.6-1.6-1.1-2.6-1.1c-0.1,0-0.1,0-0.2-0.1c-0.8-0.4-1.7-0.5-2.6-0.7
	c-0.3-0.1-0.6-0.1-0.9-0.1C11.2,93.6,9.6,93.8,8,94c-1,0.1-2,0.1-2.9,0.2c-0.3,0-0.5-0.2-0.5-0.4c-0.3-1.2-0.9-2.2-1.5-3.2
	c-0.3-0.4-0.5-0.9-0.7-1.4c-0.1-0.2,0-0.5,0-0.8l0-2.1c0-0.5,0-1,0-1.5c0-0.7-0.1-1.4-0.2-2.1c-0.1-0.9,0.1-1.2,1-1.2
	c0.5,0,0.9-0.1,1.4,0c0.1,0,0.2,0,0.4-0.1c0.2,0,0.4-0.1,0.6-0.1c0.5,1.1,1.6,2.1,2.3,2.1c-0.1-0.1-0.1-0.2-0.2-0.2
	c-0.9-0.6-1.1-1.5-0.9-2.4c0-0.1,0-0.2,0-0.2c-0.1-0.3-0.1-0.5,0.2-0.7c0,0,0.1-0.1,0.1-0.1c0.2-1.2,1.2-1.7,2.1-2.3
	c0.4-0.3,0.7-0.4,1.2-0.2c0.2,0.1,0.4,0,0.6,0c0.3,0,0.6,0.2,0.8,0.5c0.3,0.5,0.7,1.1,0.8,1.6c0.1,0.6,0,1.2-0.1,1.9
	c-0.1,0.4-0.1,0.8-0.3,1c-0.4,0.5-0.8,0.9-1.3,1.2C9.9,84,9,84.2,8.1,84.1c-0.7,0-1.2-0.3-1.6-0.8C6.4,83.1,6.3,83,6,82.7
	c0.1,0.3,0.1,0.5,0.2,0.6C6.6,84,7,84.8,7.7,85.1c1.1,0.6,2.3,1.1,3.6,0.1c0.4-0.3,0.8-0.4,1.2-0.7c0.7-0.4,1-1.1,1.1-1.9
	c0-0.2,0.1-0.3-0.1-0.4c0,0,0-0.2,0-0.2c0.3-0.4,0.2-0.9,0.3-1.5c0.5-0.1,0.9-0.2,1.4-0.3c1.2-0.2,2.4-0.4,3.6-0.5
	c0.4-0.1,0.7,0,1.1,0c0.3,0,0.7,0,1,0c0.9-0.1,1.9-0.2,2.8-0.2c0.9,0,1.7,0.1,2.6,0.1c0.3,0,0.5,0.1,0.8,0.3
	c0.8,0.6,1.6,1.2,2.5,1.4c0.5,0.2,1.1,0.3,1.5,0.8c0,0.1,0.1,0.1,0.2,0.1c1,0,1.9,0.5,2.8,0.8c0.7,0.2,1.5,0.5,2.2,0.6
	c0.6,0.1,1.1,0.3,1.7,0.3c0.7,0,1.3,0.2,1.9,0.5c0.3,0.1,0.7,0.1,1.1,0.2c0.7,0,1.3,0.3,1.9,0.2c0.2-0.1,0.5,0.1,0.7,0.1
	s0.5,0,0.7,0c0.2,0,0.3-0.1,0.5,0c1.1,0.1,2.2,0.2,3.2,0.2h0.1c0.7-0.2,1.3,0.1,2,0.4c0.5,0.2,0.9,0.1,1.4-0.1
	c0.5-0.2,1.1-0.5,1.7-0.2c0,0,0.1,0,0.1,0c0.6-0.2,1,0.1,1.5,0.3c1.2,0.3,2.4,0.6,3.6,0.9c0.1,0,0.3,0.1,0.4,0.1
	c0.5,0.3,1.1,0.4,1.7,0.6c0.7,0.2,1.4,0.3,2.1,0.6c0.4,0.1,0.7,0.3,1.1,0.5c0.3,0.1,0.7,0.2,0.9,0.5c0.7,0,1.2,0.7,1.9,0.7
	c0.2,0,0.4,0.3,0.6,0.4c0.5,0.3,1,0.5,1.5,0.6c0.6,0.1,1.1,0.4,1.6,0.6c0.8,0.3,1.6,0.6,2.4,1c0.1,0.1,0.2,0.2,0.4,0.2
	c0.1,0.1,0.1,0.1,0.2,0.1c0.6,0,1,0.4,1.5,0.6c0.3,0.1,0.6,0.1,0.8,0c1-0.3,2.1-0.2,3.1-0.2c0.7,0,1.4-0.1,2.1-0.1
	c0.1,0,0.3,0,0.4,0.1c0.7,0.2,1.4,0.3,2.1,0.2c0.7-0.1,1.4,0,2.2,0.1c1.5,0.1,2.9,0.1,4.4,0.2c1,0,2.1,0.1,3.1,0.1
	c1,0,1.9,0,2.9,0.1c0.7,0,1.4,0.1,2.1,0.2c0.6,0.1,1.2,0.2,1.8,0c0.1,0,0.2,0,0.3,0c0.6,0.2,1.2,0,1.8,0c0.2,0,0.5-0.1,0.8-0.2
	c0.8-0.2,1.6-0.5,2.4-1c0.3-0.2,0.7-0.4,1.2-0.4c0.1,0,0.2,0,0.3-0.1c0.3-0.4,1-0.6,1.2-1.1c0.1-0.2,0.2-0.4,0.4-0.4
	c0.7-0.3,0.7-1.1,1-1.6c0.2-0.5,0.4-1,0.6-1.5c0.1-0.3,0.1-0.7,0.2-1c0.1-0.9,0.2-1.7,0.3-2.6c0.7,0.4,1.4,0.6,2.2,0.4
	c1.2-0.2,2.4,0.1,3.6,0.4c0.2,0.1,0.4,0,0.6,0c0.4,0,0.9-0.1,1.3-0.2c0.2,0,0.5,0,0.7,0c0.2,0,0.4,0,0.6,0c0.8-0.1,1.6,0,2.3,0.1
	c0.4,0.1,0.8,0.2,1.2,0.1c0.1,0,0.2,0,0.2,0c0.6,0.2,1.2,0.2,1.9,0.1c0.4,0,0.8,0,1.2,0c0.5,0,1.1-0.1,1.6-0.1
	c0.3,0,0.6,0.1,0.8,0.1c1.3,0.2,2.6,0.1,3.9-0.1c0.6-0.1,1.3-0.2,1.9-0.2c0.1,0,0.3,0.1,0.5,0.2c0.3,0.1,0.5,0.4,0.9,0.3
	c0.2-0.1,0.5,0.2,0.7,0.4c0.3-0.3,0.6-0.5,1.1-0.5c0.1,0,0.3-0.1,0.4-0.2c0.8-0.4,1.5-0.9,2.4-1.2c0.4-0.2,0.9-0.2,1.3-0.3
	c0.2,0,0.5,0,0.7-0.1c0.2,0,0.4-0.1,0.6,0c1,0.2,1.9,0.1,2.9,0c1-0.1,2.1,0,3.1,0c0.9,0.1,1.8,0.1,2.8,0.1c0.4,0,0.9,0.1,1.3,0.2
	C152.4,83.7,151.9,84.8,151.4,85.9L151.4,85.9z M176,31.2c-0.2,1-0.4,2-0.5,3c-0.4,2.3-0.9,4.6-2.1,6.7c-0.4,0.6-0.5,1.4-0.7,2.1
	c-0.1,0.6-0.4,1.1-0.8,1.6c-0.7,1-1.4,1.9-1.9,3c-1.1,2.1-2.2,4.3-3.2,6.5c-0.6,1.3-1.2,2.6-1.8,3.8c-0.4,0.7-0.8,1.4-1.2,2.1
	c-0.1,0.1-0.1,0.2-0.2,0.3c-1,2-2.2,3.9-3,6.1c-0.4,1.1-1,2.1-1.5,3.2c-0.6,1.3-1.2,2.6-1.8,3.9c-0.2,0.5-0.5,0.9-0.7,1.4
	c-0.3,0.6-0.6,1.1-0.8,1.7c-0.3,0.7-0.6,1.3-0.9,2c-0.2,0.5-0.4,0.9-0.6,1.4c-0.1,0.3-0.3,0.7-0.4,1.1c-3.7-0.5-7.5-0.5-11.3-0.6
	c0.3-0.8,0.4-1.6,1.1-2.1c0.1,0,0.1-0.2,0.1-0.2c0.2-0.5,0.4-1,0.6-1.5c0.3-0.7,0.6-1.4,0.9-2.1c0.1-0.3,0.3-0.5,0.4-0.8
	c0.1-0.2,0.2-0.4,0.2-0.5c0-0.6,0.4-1,0.7-1.4c0.3-0.4,0.5-1,0.8-1.5c0.2-0.5,0.4-1,0.6-1.5c0.4-1,0.9-2,1.3-3
	c0.3-0.7,0.5-1.3,0.9-1.9c0.5-0.7,0.5-1.5,0.6-2.3c0.1-0.4,0.1-0.8,0.2-1.1c0-0.4,0.1-0.7,0.1-1.1c-0.1-0.9-0.4-1.8-0.9-2.6
	c0.1-0.1,0.3-0.2,0.4-0.2c0.4,0,0.6-0.2,0.7-0.5c0.1-0.2,0.3-0.5,0.5-0.7c0.4-0.4,0.4-0.9,0.5-1.4c0-0.1,0-0.2-0.1-0.3
	c-0.6-0.4-0.7-1-0.9-1.6c-0.1-0.2-0.3-0.5-0.5-0.7c-0.4-0.4-0.4-0.4-0.1-0.9c0.1-0.1,0.1-0.3,0.2-0.4c0.6,0.1,1.1,0.3,1.6,0.3
	c0.9,0.1,1.8,0.2,2.6,0.4c1.1,0.2,2.1-0.1,3.2-0.1c0.2,0,0.4,0,0.6,0c1.3,0.1,2.5-0.2,3.7-0.7c0.6-0.2,1.2-0.5,1.7-0.9
	c0.1,0,0.1-0.1,0.2-0.1c0.9-0.2,1.5-0.7,2-1.3c0.4-0.5,0.9-1,1.2-1.6c0.6-0.9,1.2-1.7,2-2.4c0.8-0.7,1.2-1.6,1.6-2.6
	c0.3-0.9,0.7-1.7,0.8-2.7c0.1-0.3,0.5-0.6,0.1-1.1c0.4-0.2,0.5-0.5,0.6-0.9c0.1-0.7,0.2-1.5,0.3-2.2c0-0.8,0-1.6,0-2.3
	c-0.1-0.8-0.2-1.6-0.4-2.4c-0.1-0.6-0.3-1.2-0.7-1.8c-0.5-0.8-0.8-1.6-1.2-2.3c-0.3-0.5-0.6-1-0.9-1.5c-0.2-0.4-0.5-0.8-0.7-1.2
	c-0.6-0.9-1.2-1.8-1.9-2.8c0.1-0.4,0.3-0.8,0.5-1.3c0.1-0.2,0.2-0.5,0.3-0.7c0.3-0.6,0-1.2-0.4-1.7c-0.3-0.4-0.7-0.8-1-1.2
	c-0.5-0.8-1.2-1.2-2-1.6c-0.8-0.5-1.7-0.7-2.6-1c-0.4-0.1-0.7-0.3-1-0.5c-1.7-1.1-3.6-1.6-5.6-1.1c-0.3,0.1-0.6,0.3-0.9,0.5
	c-0.4,0.3-0.5,0.9-0.2,1.4c0.4,0.9,0.4,1,0.3,1.8c-0.9,0.1-1.8,0.3-2.8,0.4c-1.9,0.2-3.7,1-5.3,2.1c-0.3,0.2-0.8,0.3-1.1,0.5
	c-1.1,0.7-2.3,1.4-3.4,2.1c-0.4,0.3-0.8,0.7-1.1,1.1c-1,1.2-2,2.4-2.9,3.7c-0.9,1.3-1.4,2.8-1.7,4.4c-0.2,0.9-0.3,1.9-0.5,2.8
	c-0.3,1.6-0.2,3.1,0.1,4.7c0.3,1.7,1,3.1,1.8,4.6c0.2,0.5,0.6,0.7,1.1,0.9c0.2,0.1,0.5,0.3,0.6,0.5c0.5,0.7,1,1.5,1.5,2.2
	c0.1,0.1,0.1,0.2,0.2,0.3c0.8,0.6,0.4,1.3,0.3,2c-1.1-0.4-2-1.1-2.9-1.7c-0.6-0.4-1.2-1-1.7-1.5c-0.7-0.7-1.1-1.5-1.4-2.4
	c-0.2-0.7-0.6-1.3-0.8-2c-0.2-0.8-0.4-1.6-0.5-2.3c0-0.1,0-0.2,0-0.2c-0.4-0.4-0.2-0.9-0.1-1.3c0-0.1,0-0.1,0-0.2
	c-0.4-0.7-0.1-1.2,0.2-1.8c0.1-0.1,0-0.3,0-0.5c0.1-0.5,0.3-1,0.4-1.5c0-0.2,0.1-0.4,0-0.6c-0.3-0.6-0.4-1.3-1.1-1.6
	c-0.2-0.1-0.4-0.5-0.5-0.8c-0.1-0.3-0.1-0.7-0.1-1c0-1.5-0.1-3.1-0.1-4.6c0-0.1,0-0.2,0-0.3c0.2-0.7,0.4-1.3,0.7-2
	c0.3-0.6,0.7-1.2,1-1.9c0.4-0.8,0.9-1.6,1.6-2.2c0.1-0.1,0.1-0.2,0.2-0.3c0.2-0.3,0.4-0.6,0.8-0.5c0.1,0,0.2-0.1,0.3-0.2
	c0.2-0.1,0.4-0.3,0.6-0.4c0.2-0.1,0.4-0.2,0.5-0.4c0-0.1,0.2-0.2,0.3-0.2c0.4-0.4,0.9-0.6,1.2-1.1c0.5-0.6,1.2-0.8,1.7-1.3
	c0.2-0.2,0.5-0.3,0.7-0.5c0.4-0.5,1.1-0.6,1.6-0.9c0.8-0.4,1.7-0.9,2.5-1.3c0.2-0.1,0.4-0.3,0.5-0.5c0.7-0.6,1.5-0.8,2.4-0.9
	c0.4,0,0.8-0.2,1.1-0.3c0.9-0.3,1.7-0.3,2.6-0.3c0.5,0,0.9,0.1,1.4,0.1c0.6,0,1.2,0.1,1.9,0.3c0.2,0.1,0.5,0.1,0.8,0.2
	c0.7,0.1,1.3,0.2,2,0.3c0.4,0.1,0.7,0.3,1,0.4c0.9,0.2,1.8,0.5,2.6,0.8c0,0,0.1,0.1,0.1,0.1c1.6,0.2,2.9,1,4.2,1.9
	c1.5,1,2.8,2.2,3.9,3.6c0.3,0.4,0.6,0.9,0.9,1.3c0.7,1.3,1.4,2.6,2.1,4c0.4,0.8,0.6,1.6,0.8,2.5c0.5,1.6,1,3.1,1.4,4.7
	C176.2,28.9,176.2,30,176,31.2L176,31.2z M142,37.5c0.9,1.2,2.1,2.2,3.3,3.3c0.4,0.3,0.8,0.5,1.2,0.8c0.1,0.1,0.2,0.2,0.4,0.4
	c0.6,0.8,1.2,1.6,2.2,2c0.7,0.3,1.4,0.5,2.1,0.8c0.2,0.1,0.4,0.2,0.6,0.3c0.1,0.1,0.3,0.1,0.4,0.2c0.3,0.3,0.6,0.1,1,0.2
	c0.6,0,1,0.4,1.4,0.5c0.5-0.1,0.8-0.2,1.1-0.2c0.6,0,1.3-0.4,1.9-0.1c0.1,0,0.2,0,0.4-0.1c0.1,0,0.3,0,0.4,0c0.6,0.3,1.2,0,1.8-0.2
	c0.5-0.1,1-0.4,1.4-0.6c0.1,0,0.2-0.1,0.3-0.2c0.5-0.4,1.1-0.8,1.6-1.2c0.4-0.3,0.7-0.6,1-0.9c0.3-0.3,0.5-0.8,0.8-1.1
	c0.5-0.5,0.9-1.1,1.2-1.7c0.2-0.4,0.6-0.8,0.7-1.3c0.1-0.4,0.2-0.7,0.4-1c0.1-0.2,0.2-0.5,0.3-0.7c0.2-0.8,0.4-1.7,0.4-2.6
	c0-1,0.2-2.1,0.3-3.1c0.1-1-0.3-2-0.7-2.8c-0.5-0.9-1.1-1.7-1.7-2.6c-0.5-0.7-1-1.3-1.6-1.9c-1.6-1.6-3.7-2.5-5.8-3.1
	c-1.2-0.3-2.4-0.6-3.6-0.9c-1.1-0.2-2.1-0.4-3.2-0.2c-0.6,0.1-1.1,0.1-1.7,0.3c-0.6,0.2-1.1,0.6-1.6,0.9c-0.4,0.2-0.8,0.4-1.1-0.1
	c-0.3,0.2-0.6,0.4-0.7,0.6c-0.1,0.5-0.5,0.5-0.8,0.6c-0.2,0-0.4,0.1-0.6,0.2c-0.4,0.2-0.7,0.6-1,0.9c-0.6,0.9-1.2,1.7-1.8,2.6
	c-0.8,1.3-1.3,2.8-1.5,4.3c-0.2,1.6-0.3,3.3,0,5C141.3,36,141.5,36.8,142,37.5L142,37.5z M152.7,41c-0.4,0.7-0.7,1.4-1.1,2.1
	c-0.1,0.3-0.3,0.4-0.6,0.3c-0.3-0.1-0.6-0.2-1-0.3c0.3-0.5,0.6-1,1-1.3c0.4-0.3,0.7-0.8,1.1-1.2c0.2,0,0.4,0.1,0.6,0.1
	C152.8,40.8,152.8,40.9,152.7,41L152.7,41z M151.4,39.1c-0.3-0.1-0.6-0.2-0.9-0.3c-0.3-0.1-0.6-0.2-0.9-0.4c-0.4-0.3-0.8-0.7-1.1-1
	s-0.5-0.7-0.7-1.2c-0.2-0.5-0.3-1-0.4-1.5c-0.1-0.2-0.1-0.5,0-0.7c0.1-0.4,0.2-0.7,0.1-1.1c-0.1-0.2,0-0.5,0.1-0.6
	c0.2-0.2,0.2-0.4,0.3-0.7c0.3-1.3,0.9-2.4,1.8-3.2c0.4-0.4,0.8-0.7,1.1-1c0.2-0.1,0.4-0.2,0.5-0.4c0.1-0.1,0.3-0.2,0.4-0.3
	c0.1-0.6,0.6-0.7,1.1-0.8c0.7-0.2,1.4-0.2,2.1-0.1c0.6,0.1,1.2,0.2,1.8,0.3c0.2,0,0.4,0.1,0.6,0.2c0.9,0.6,1.9,1.2,2.4,2.3
	c0.2,0.4,0.5,0.8,0.7,1.2c0.3,0.5,0.5,1.1,0.4,1.7c0.1,0.6-0.1,1.2-0.4,1.8c-0.8,1.4-1.5,2.8-2.2,4.2c-0.4,0.8-1,1.4-2,1.5
	c-0.9,0.1-1.9,0.4-2.8,0.4C152.7,39.6,152,39.5,151.4,39.1L151.4,39.1z M142.9,30c0-0.1,0.1-0.2,0.1-0.2c0-0.7,0.2-1.2,0.7-1.7
	c0.1-0.1,0.1-0.2,0.2-0.4c0.1-0.2,0.1-0.4,0.2-0.5c0.5-0.8,0.9-1.7,1.6-2.4c0.7-0.9,1.6-1.4,2.5-2c0.8-0.5,1.7-0.7,2.5-1.1
	c0.1,0,0.1,0,0.2,0c1.2,0,2.3,0,3.5,0.3c0.6,0.1,1.2,0.4,1.8,0.6c0.1,0,0.2,0.1,0.3,0.1c1.4,0.1,2.5,0.7,3.8,1.2
	c1.4,0.6,2.6,1.5,3.6,2.7c0.6,0.8,1.2,1.6,1.7,2.5c0.4,0.7,0.3,1.4,0.2,2.2c0,0.5,0,1,0,1.6c0,1.1-0.1,2.1-0.4,3.2
	c-0.3,1-0.6,2-1.1,2.9c-0.9,1.5-2.1,2.7-3.5,3.7c-0.5,0.3-1,0.4-1.5,0.5c-0.2,0-0.4,0.1-0.6,0.1c-0.9,0.1-1.8,0.5-2.6,0.8
	c-0.3,0.1-0.5,0.2-0.8,0c-0.6-0.2-1.2-0.4-1.8-0.6c0.4-0.8,0.8-1.6,1.3-2.4c0,0,0.1-0.1,0.2-0.1c1.3,0.2,2.4-0.3,3.6-0.7
	c0.8-0.3,1.5-0.7,2.1-1.3c0.2-0.2,0.4-0.2,0.5-0.4c0.2-0.2,0.4-0.4,0.4-0.6c0-0.6,0.4-1,0.8-1.3c0.3-0.2,0.4-0.5,0.6-0.8
	c0.4-0.5,0.6-1.2,0.6-1.8c0-0.3,0.1-0.6,0.1-0.8c0.2-0.5,0.1-1-0.1-1.5c-0.1-0.3-0.3-0.6-0.4-0.9c-0.5-0.9-0.9-1.9-1.5-2.7
	c-0.5-0.8-1.3-1.4-2-1.9c-0.8-0.6-1.7-1-2.7-1.2c-1.7-0.3-3.3-0.1-4.9,0.5c-0.2,0.1-0.5,0.3-0.7,0.4c-0.8,0.6-1.5,1.2-2.3,1.8
	c-0.4,0.4-0.9,0.7-1.3,1.1c-0.1,0.1-0.2,0.2-0.3,0.3c-0.5,0.9-0.9,1.9-1.1,2.9c-0.1,0.5-0.2,0.9-0.3,1.4c-0.4,2.6,0.5,4.6,2.7,5.9
	c0.6,0.3,1.1,0.7,1.8,1c-0.4,0.8-1.1,1.4-1.6,2.1c-0.1-0.1-0.3-0.2-0.4-0.3c0.1-0.2,0.3-0.4,0.4-0.7c-0.6-0.4-1.1-0.7-1.6-1.1
	c-1-0.8-2-1.6-2.9-2.4c-0.4-0.3-0.6-0.8-0.9-1.2c-0.1-0.1-0.1-0.3-0.1-0.5c0-0.2,0.1-0.5-0.1-0.6c-0.5-0.7-0.4-1.5-0.5-2.3
	C142.4,32.2,142.4,31.1,142.9,30L142.9,30z M123,50.4c-0.2,0.4-0.3,0.8-0.5,1.1c-0.3,0.6-0.5,1.2,0,1.9c0.5-0.7,1.1-3,0.9-3.7
	C123.3,50,123.1,50.2,123,50.4L123,50.4z M126.1,97.8c-0.2,0.1-0.4,0.1-0.5,0.1c-0.3,0.3-0.5,0.5-0.7,0.8c-0.5,0.5-1,1-1.2,1.7
	c-0.5,1.2-0.5,2,0.5,3.1c0.2,0.2,0.4,0.4,0.6,0.4c0.5,0.1,1.1,0.1,1.5,0.5c0.7,0,1.3,0.1,1.9-0.1c1-0.3,2.1-1.6,2.6-2.5
	c0.4-0.8,0.3-1.6-0.2-2.2C129.7,98.3,128.1,97.3,126.1,97.8 M129.4,100.4c-0.1,0.3-0.2,0.5-0.3,0.8c-0.4,0.8-1.2,1.2-1.8,1.7
	c-0.1,0.1-0.3,0.1-0.5,0.2c-0.7,0.1-1.3,0-1.9-0.2c-0.6-0.2-0.7-0.7-0.6-1.3c0.3-1.2,1.3-1.5,2.2-2c0,0,0.1,0,0.2,0.1
	c-0.1,0.4-0.3,0.8-0.6,1.1c-0.4,0.3-0.5,1-0.2,1.4c0.1,0.2,0.4,0.3,0.6,0.3c0.4,0,0.7-0.1,1.1-0.2c0.2,0,0.3-0.1,0.5-0.2
	c0.2-0.2,0.3-0.3,0.2-0.6c-0.2-0.4-0.4-0.9-0.7-1.3c0-0.1-0.2,0-0.3-0.1c-0.1-0.1-0.2-0.2-0.3-0.2c0.2-0.2,0.3-0.3,0.5-0.4
	c0.4-0.5,0.9-0.5,1.4-0.1C129.1,99.4,129.6,99.7,129.4,100.4L129.4,100.4z M112.3,119.5c0.1,0,0.1,0.1,0.2,0.1
	c0.6,0.1,1.1,0.2,1.7,0.4c0.5-0.1,1-0.2,1.5-0.3c0.6-0.2,1-0.7,1.6-1.1c0.9-0.6,1.1-1.4,0.9-2.4c-0.1-0.3-0.2-0.6-0.2-0.9
	c0-0.6-0.3-1.1-0.7-1.5c-0.9-1.1-2.1-1.4-3.4-1.4c-0.5,0-1,0.2-1.4,0.4c-0.5,0.3-1,0.7-1.5,1c-0.4,0.2-0.7,0.6-0.8,1.1
	c-0.1,0.7-0.2,1.5-0.2,2.2c0,0.6,0.2,1.3,0.7,1.8C111.1,119.1,111.5,119.6,112.3,119.5 M111,115.2c0.1-0.3,0.4-0.5,0.6-0.8
	c0.6-0.6,1.2-1.2,2.1-1c0.1,0,0.2,0,0.3-0.1c0.2-0.1,0.4-0.3,0.7-0.2c0.4,0.2,0.8,0.3,1,0.7c0.3,0.6,0.6,1.2,0.6,1.9
	c-0.1,0.3-0.2,0.7-0.4,1c-0.4,1-1.2,1.5-2.3,1.7c-0.9,0.2-1.7-0.2-2.4-0.5c-0.1,0-0.1-0.1-0.2-0.2C110.8,116.9,110.8,116,111,115.2
	L111,115.2z M125.7,125.7c-0.5,0-1.1,0-1.6,0c-0.4,0-0.9-0.1-1.3-0.1c-1.5,0-3-0.1-4.4-0.2c-1.8-0.2-3.7-0.2-5.6-0.3
	c-0.8,0-1.7,0-2.6,0c-1.1,0-2.1-0.1-3.2-0.1c-1.7,0-3.4,0.1-5,0.1c-1.7,0-3.4,0.1-5.1,0.1c-1.3,0-2.7-0.1-4.1-0.1
	c0.3,0.2,0.4,0.4,0.7,0.4c0.8,0.1,1.5,0.3,2.3,0.3c2.1,0,4.2,0,6.2,0c1.2,0,2.3-0.1,3.4-0.1c0.3,0,0.6,0,0.8,0
	c0.4,0,0.8,0.1,1.1,0.1c0.5-0.1,0.9,0,1.4,0c1.5,0.1,3,0.1,4.6,0.2h0.3c0.7,0,1.5,0.1,2.2,0.1c1,0.1,2.1,0.2,3.1,0.2
	c0.8,0.1,1.6,0.2,2.5,0.3c0.6,0.1,1.2,0,1.8,0c1.2,0.1,2.4,0.2,3.6,0.2c1.5,0.1,3,0.1,4.5,0.2c0.9,0,1.8,0,2.6,0.1
	c0.8,0.1,1.6,0.2,2.4,0.2c0.6,0,1.3,0.1,1.9,0.1c0.7,0,1.4,0,2.1-0.1c0.4,0,0.6-0.5,0.4-0.7s-0.5-0.5-0.8-0.6
	c-0.4-0.1-0.9-0.2-1.4-0.2c-1.2,0-2.3,0-3.5,0h-0.8c-0.8,0-1.6-0.1-2.4-0.1c-0.7,0-1.4,0.1-2.1,0
	C128.5,125.8,127.1,125.8,125.7,125.7 M126.1,53c0.3-1,0.8-1.9,0.7-3.1c-0.6,0.5-0.8,1.1-1,1.7C125.6,52.2,125.6,52.5,126.1,53
	L126.1,53z M37.6,73.8c0.1,0,0.2,0,0.3,0.1c0.3,0.1,0.7,0.1,1,0.2c1.1,0.5,2.3,0.3,3.5,0.2c1-0.1,1.9-0.7,2.9-1
	c0.4-0.1,0.6-0.4,0.9-0.7c0.3-0.2,0.7-0.4,1.1-0.6c0,0,0,0,0,0c0.3-0.5,0.7-0.9,0.7-1.6c0-0.3,0.2-0.5,0.2-0.8
	c0.1-0.3,0.3-0.6,0.4-1c0.5-1.4,0.6-2.8,0.3-4.2c0-0.2-0.2-0.5-0.2-0.8c-0.1-0.9-0.4-1.7-0.9-2.5c-0.6-0.9-1.4-1.6-2.3-2.2
	c-1.3-0.9-2.9-1.1-4.7-1.2c-0.4,0-1,0.1-1.5,0.2c-0.7,0-1.3,0.3-1.8,0.7c-0.2,0.1-0.3,0.3-0.5,0.4c-1,0.6-1.7,1.5-2.3,2.3
	c-0.7,1-1.2,2.1-1.5,3.2c-0.5,2.1-0.4,4.1,0.6,6.1C34.7,72.3,36.1,73.1,37.6,73.8L37.6,73.8z M34.6,66.8c0.3-0.6,0.2-1.3,0.4-1.9
	c0.3-0.8,0.5-1.5,0.8-2.3c0.2-0.5,0.5-0.8,1-0.9c0.3-0.1,0.8-0.2,0.7-0.8c0.4-0.3,0.5-1,1-1.2c0,0,0.1,0,0.1-0.1
	c0.5-0.7,1.1-0.6,1.8-0.5c0.6,0.1,1.2,0.1,1.9,0.3c0.8,0.2,1.6,0.4,2.3,0.7s1.3,0.9,1.6,1.7c0.3,0.9,0.5,1.8,0.6,2.4
	c0,1.6-0.1,3.1-0.8,4.3c-0.7,1.4-1.5,2.6-3.2,3.1c-1.1,0.3-2.2,0.4-3.3,0.6c-0.8,0.1-1.5-0.2-2.1-0.7c-0.8-0.6-1.5-1.4-2-2.3
	c-0.3-0.6-0.4-1.2-0.6-1.8c0-0.2-0.1-0.3-0.1-0.5C34.6,67,34.5,66.9,34.6,66.8L34.6,66.8z M117.9,64.2c0.2,0,0.4,0.1,0.7,0.1
	c0.4,0,0.8,0,1-0.4c0.2-0.5,0.7-0.7,1.2-0.8c0.5-0.1,1-0.1,1.5-0.1c0.5,0,1.1,0.1,1.6,0c0.5-0.1,0.9,0.1,1.3,0.2s0.8,0.4,1.3,0.5
	c0.5,0.1,0.9,0.3,1.2,0.6c0.3,0.3,0.6,0.6,0.9,1c0.9,1.2,1.4,2.6,1.1,4.2c-0.1,0.7-0.1,1.4-0.5,2c0.7,0.6,1.1,0.5,1.3-0.3
	c0.1-0.5,0.3-1,0.3-1.5c0-0.6,0.1-1.1-0.1-1.7c-0.3-1.5-1.1-2.8-2.1-4c-0.6-0.6-1.2-1.1-2.1-1.3c-0.5-0.1-1-0.2-1.5-0.4
	c-1.4-0.4-2.8-0.4-4.2-0.2c-0.8,0.1-1.6,0.5-2.3,1.1c-0.3,0.2-0.6,0.5-0.9,0.7c-0.1,0.1-0.4,0.2-0.5,0.1c-0.2-0.2-0.3-0.1-0.5,0.1
	c-0.2,0.2-0.4,0.4-0.6,0.6c-1,1.2-1.5,2.5-1.6,4c0,0.9-0.1,1.9-0.2,2.8c-0.2,1.4,0.3,2.6,1.1,3.6c0.2,0.2,0.4,0.5,0.8,0.3
	c0.1-0.6,0-1.1-0.4-1.6c-0.4-0.4-0.5-0.9-0.5-1.4c0-1.1-0.1-2.2-0.1-3.4c0-1.5,0.5-2.8,1.5-3.8C117.2,64.9,117.5,64.6,117.9,64.2
	L117.9,64.2z M37.2,66.7c0.1,0.1,0.2,0.1,0.3,0.2c0.3,0.7,0.7,0.9,1.4,0.9h0.2c0.2-0.3,0.5-0.5,0.7-0.8c0.3-0.4,0.5-0.9,0.4-1.5
	c-0.2-0.7-1.2-1.2-1.9-1c-0.7,0.2-1.1,0.7-1.3,1.3C36.8,66.3,36.8,66.5,37.2,66.7L37.2,66.7z M38.5,65.1c0.2,0,0.5,0,0.5,0.2
	c0,0.2,0,0.5-0.2,0.7c0,0.1-0.4,0-0.5,0c-0.2-0.1-0.4-0.3-0.7-0.5C38,65.3,38.2,65.2,38.5,65.1L38.5,65.1z M84.4,72.9
	c-1.4,0.3-2.5,1.2-3.1,2.5c-0.6,1.2-0.6,2.4,0.2,3.5c0.8,1.1,1.8,1.7,3,1.5c0.3,0.3,0.5,0.6,0.8,0.6c0.7,0.2,1.3,0.1,1.9-0.4
	c0.1-0.1,0.2-0.2,0.3-0.3c1-0.9,1.8-1.8,1.7-3.3c0-0.1,0.1-0.3,0.1-0.4c0-0.6,0-1.1-0.4-1.6c-0.6-0.8-1.4-1.4-2.2-1.9
	C86,72.8,85.2,72.7,84.4,72.9L84.4,72.9z M87.5,75.4c-0.1,1.1-0.4,2-0.9,2.8c-0.1,0.2-0.4,0.3-0.6,0.3c-0.4,0.1-0.9,0.1-1.2,0.4
	c-0.5,0.3-0.8,0.3-1.3,0.1c-0.5-0.3-0.8-0.8-0.9-1.3c-0.3-1.6,0.3-2.3,1.4-3.1c0.3-0.2,0.7-0.5,1-0.7c0.1-0.1,0.3-0.2,0.4-0.1
	c0.7,0.1,1.3,0.2,1.8,0.8C87.4,74.9,87.4,75.2,87.5,75.4L87.5,75.4z M42.7,66.9c0.2,0.4,0.6,0.4,0.9,0.4c0.4,0,0.5-0.3,0.7-0.5
	c0.6-0.5,0.6-1.2,0.7-1.8c0-0.1-0.1-0.3-0.1-0.3c-0.4-0.3-0.8-0.6-1.3-0.6c-0.8,0-1.5,0.4-1.9,1.2c-0.1,0.2-0.2,0.4-0.4,0.7
	C41.9,66.2,42.4,66.4,42.7,66.9 M43.5,64.8c0.3,0.2,0.3,0.4,0.1,0.6c-0.2,0.3-0.5,0.2-0.8-0.1C43,65.1,43.3,64.9,43.5,64.8
	L43.5,64.8z M36.6,32.3c0.3,0.8,0.9,1.5,1.6,2c0.3,0.2,0.7,0.5,1,0.8c0.8,0.7,1.5,1.4,2.3,2.1c0.5,0.4,1,0.7,1.6,0.2
	c0.1,0.1,0.2,0.2,0.3,0.3c0.8-0.8,2.2-0.5,3,0.5c0.5,0.1,0.8,0.2,1.2,0.3c0.8,0.2,1.7,0.5,2.6,0.3c0.1,0,0.2,0,0.3,0
	c1.2,0.1,2.4,0.1,3.6,0.1c1.3,0,2.5-0.3,3.6-1c0.7-0.4,1.3-0.9,1.5-1.7c0.1-0.5,0.3-1,0.5-1.4c0.1-0.2,0.2-0.3,0.2-0.5
	c0.2-0.5,0.3-1,0.5-1.5c0.4-0.7,0.7-1.3,0.8-2c0-0.1,0.1-0.2,0.1-0.4c0.1-0.3,0.1-0.5,0.2-0.8c0.1-0.4,0.1-0.8,0.2-1.2
	c0-0.2,0.2-0.4,0.2-0.7c0.1-0.9,0.2-1.8-0.1-2.7c0-0.2-0.1-0.3-0.1-0.5c0-0.6,0-1.3-0.3-1.9c-0.1-0.3-0.3-0.6-0.5-0.9
	c-0.2-0.4-0.3-0.9-0.5-1.3c-0.6-1.1-1.5-2.1-2.4-3c-1-0.9-2.1-1.7-3.6-1.9c-0.1,0-0.2-0.1-0.3-0.2c-0.5-0.5-1.1-0.8-1.8-0.9
	c-1.4-0.2-2.8-0.6-4.3-0.4c-1.2,0.2-2.5,0.4-3.7,0.8c-0.4,0.1-0.7,0.2-1,0c0,0-0.2,0-0.3,0.1c0.2,0.7-0.1,1.1-0.7,1.4
	c-0.1,0-0.2,0.2-0.3,0.2c-1.4,1.1-2.5,2.4-3.6,3.8c-0.4,0.4-0.7,0.9-1,1.4c-0.9,1.7-1.5,3.4-1.6,5.3C35.4,28.9,35.8,30.6,36.6,32.3
	L36.6,32.3z M45.9,36.3c-0.4,0-0.8-0.1-1.3-0.2c0.2-0.5,0.4-0.8,0.7-1.2c0.3,0.1,0.6,0.2,1.1,0.3C46.1,35.6,46,35.9,45.9,36.3
	L45.9,36.3z M45,33.3c-0.3-0.3-0.5-0.5-0.7-0.7c-0.6-0.5-1.2-0.9-1.7-1.5c-0.7-0.9-1-1.9-1.3-3c-0.2-0.7,0-1.4,0.2-2
	c0.3-0.9,0.6-1.8,1.4-2.4c0.1-0.1,0.2-0.2,0.3-0.3c0.4-0.2,0.7-0.5,0.8-1c0-0.1,0.1-0.2,0.2-0.3c0.2-0.2,0.4-0.2,0.6,0
	c0.2,0.1,0.3,0.3,0.5,0.4c0.3,0.2,0.6,0.2,0.9,0c0.1-0.1,0.4-0.1,0.5-0.2c0.6-0.1,1.2-0.2,1.7-0.6c0.5-0.3,1-0.4,1.5-0.3
	c0.7,0.1,1.3,0.4,2,0.6c1.2,0.5,2.5,2.3,2.5,3.5c0,0.9-0.3,1.7-0.6,2.5c-0.3,0.8-0.7,1.5-1.2,2.2c-0.3,0.4-0.5,0.8-0.7,1.2
	c-0.3,0.6-0.8,1-1.5,1.1c-0.8,0.2-1.5,0.3-2.3,0.5c-0.5,0.1-1.1,0.1-1.6,0.2C45.9,33.3,45.4,33.2,45,33.3L45,33.3z M37.3,24.7
	c0-0.6,0.2-1.1,0.4-1.7c0.3-0.7,0.7-1.4,1.2-1.9c0.2-0.2,0.4-0.6,0.6-0.8c0.7-1,1.5-1.8,2.4-2.5c0.2-0.2,0.4-0.4,0.6-0.6
	c0.3-0.3,0.6-0.5,1-0.4c0.2,0,0.4-0.1,0.5-0.2c0.4-0.2,0.8-0.4,1.1-0.6c0.1,0,0.1-0.1,0.2-0.1c1.1,0.1,2.3-0.4,3.4,0.2
	c0.3,0.2,0.7,0.1,1.1,0.2l2.9,0.3c0.1,0,0.2,0.1,0.3,0.1c0.2,0.1,0.3,0.2,0.5,0.2c0.7-0.1,1.2,0.3,1.6,0.7c0.5,0.4,1,0.9,1.5,1.4
	c0.5,0.4,0.8,1,1,1.5c0.1,0.3,0.3,0.6,0.5,0.9c0.3,0.6,0.5,1.2,0.6,1.8c0.3,1.5,0.1,3,0,4.5c-0.2,1.9-0.9,3.5-1.6,5.2
	c-0.3,0.8-0.6,1.6-0.9,2.5c-0.2,0.6-0.5,0.9-1.1,1c-1.2,0.3-2.4,0.6-3.7,0.6c-1.2,0-2.3,0.1-3.5,0.2c-0.1,0-0.3,0-0.5,0l1-1.5
	c0,0-0.1-0.2-0.2-0.4c0.3,0,0.6,0,0.8,0c0.4,0,0.8,0,1.2-0.1c0.7-0.1,1.4-0.2,2-0.4c0.8-0.2,1.4-0.7,1.8-1.5
	c0.1-0.2,0.3-0.4,0.4-0.6c0.3-0.5,0.6-0.9,0.9-1.5c0.3-0.8,0.7-1.6,0.9-2.4c0.2-0.5,0.2-1.1,0.2-1.6c0-0.7-0.1-1.4-0.2-2.1
	c-0.2-1.4-0.9-2.5-1.9-3.5c-0.7-0.7-1.5-1.3-2.4-1.6c-1.6-0.5-3.2-0.6-4.8,0c-0.5,0.2-0.9,0.4-1.4,0.6c-0.5,0.2-1.1,0.5-1.7,0.4
	c0.1,0.2,0.1,0.3,0.2,0.4c-1.4,0.4-2.4,1.4-3,2.6c-1,1.8-1.4,3.8-0.7,5.9c0.4,1.1,1,2.1,1.8,2.9c0.4,0.4,0.9,0.8,1.3,1.1
	c0.1,0.1,0.3,0.2,0.4,0.4L43.4,35c-0.3,0.5-1,1-1.6,0.9c-0.1,0-0.2,0-0.2-0.1c-0.6-0.6-1.2-1.1-1.8-1.8c-0.4-0.5-0.8-1-1-1.6
	c-0.3-0.8-0.6-1.7-0.9-2.5c-0.1-0.2-0.1-0.4-0.2-0.5c-0.3-0.6-0.4-1.2-0.3-1.9c0-0.2,0-0.5-0.1-0.8C37.1,26,37.3,25.3,37.3,24.7
	L37.3,24.7z M121.5,78.1c0.7-0.2,1.4-0.2,2.1-0.2c0.5,0,0.9,0,1.4-0.1c0.2,0,0.3-0.1,0.5-0.1c0.3,0.1,0.6,0,0.8-0.3
	c0.6-0.6,1.3-1.2,1.9-1.9c0.1-0.1,0.1-0.3,0.2-0.5c0-0.1,0.1-0.1,0.2-0.2c0.4-0.2,0.5-0.6,0.7-1c0.3-0.5,0.2-0.9-0.2-1.4
	c-0.2,0.1-0.4,0.2-0.6,0.3c-0.5,0.7-1,1.4-1.6,2.1c-1,1.2-2.3,1.8-3.8,1.7c-1-0.1-2.1-0.1-3.1-0.2c-0.4,0-0.9-0.1-1.3-0.2
	c-0.6-0.2-1.2-0.2-1.8-0.2c0.2,0.2,0.4,0.3,0.6,0.5c0.3,0.2,0.6,0.4,0.9,0.6C119.4,77.9,120.3,78.3,121.5,78.1L121.5,78.1z
	 M8.9,82.7C9.1,83,9.4,83.1,9.7,83c0.3-0.2,0.6-0.1,0.9,0c0.2-0.3,0.5-0.5,0.6-0.8c0.4-1,0.2-2.1-0.3-3c-0.4-0.7-1.3-1-1.9-0.5
	c-0.1,0.1-0.3,0.1-0.5,0.2c-0.1,0.1-0.3,0.3-0.3,0.4c0.1,0.3,0,0.5-0.1,0.7c-0.3,0.6-0.3,1.2,0,1.7C8.4,82,8.7,82.3,8.9,82.7
	 M10.3,79.5c0.4,0.8,0.3,1.3-0.3,1.8c-0.2,0.2-0.5,0.4-0.8,0.6c-0.1-0.1-0.1-0.2-0.2-0.3c-0.1-0.1-0.2-0.1-0.4-0.1
	C9.2,80.7,9.3,79.7,10.3,79.5L10.3,79.5z M48.8,27.7c0.1-1.4,0-1.5-1.3-2c-0.1,0.2-0.3,0.4-0.4,0.7C47,26.5,47,26.6,47,26.7
	c0,0.9,0.6,1.3,1.5,1.1C48.6,27.8,48.7,27.7,48.8,27.7L48.8,27.7z M85.1,35c0.3-0.6,0.4-1.3-0.1-1.9c-0.4-0.5-1.2-0.8-1.8-0.6
	c-0.6,0.2-0.8,0.7-0.9,1.2c-0.1,0.4-0.1,0.8-0.2,1.2c0.4,0.2,0.8,0.4,1.2,0.5C83.9,35.7,84.8,35.7,85.1,35L85.1,35z M83.9,33
	c0.3,0,0.4,0.2,0.4,0.4c0,0.3-0.1,0.5-0.4,0.5c-0.2,0-0.5,0-0.8,0C83.2,33.2,83.4,32.9,83.9,33L83.9,33z M125.3,114.4
	C125.3,114.4,125.3,114.4,125.3,114.4L125.3,114.4L125.3,114.4z M64.7,102c-1.4-0.8-2.9-1-4.5-0.5c-0.5,0.2-1,0.4-1.5,0.6
	c-0.8,0.3-0.9,0.3-1,1.1c0,0.2-0.1,0.4-0.2,0.5c-0.6,0.6-0.8,1.3-1.1,2c-1,2.3-0.1,4.4,1.8,5.6c0.5,0.3,0.9,0.6,0.9,1.3
	c0,0,0,0.1,0.1,0.1c0.2,0.1,0.5,0.1,0.6,0.2c0.3,0.1,0.5,0.1,0.9,0c0.5-0.2,1-0.3,1.5,0.3c0.3-0.3,0.5-0.4,0.9-0.2
	c0.1,0,0.3,0.1,0.4,0c0.4-0.3,0.9-0.2,1.4-0.2c0.1-0.2,0.3-0.3,0.7-0.4c0.1,0,0.2-0.1,0.2-0.2c0.3-0.3,0.6-0.7,0.9-1
	c0.3-0.4,0.6-0.9,0.8-1.4c0.2-0.9,0.4-1.8,0.5-2.8c0.1-0.9-0.1-1.8-0.7-2.5C66.6,103.2,65.7,102.5,64.7,102L64.7,102z M65.1,109.6
	c-0.4,0.5-1,0.7-1.6,0.7c-0.7,0-1.4,0.2-2.1,0.3c-0.5,0.1-1.1,0.1-1.6,0.1c0,0-0.1,0-0.1,0c-0.7-0.6-1.6-0.8-2.2-1.6
	c-0.3-0.4-0.2-0.8-0.2-1.2c0.1-0.6,0.3-1.1,0.5-1.7c0,0,0-0.1,0.1-0.1c0.2-0.9,0.7-1.5,1.7-1.7c0.1,0,0.2-0.1,0.3-0.2
	c0.3-0.2,0.6-0.4,1-0.6c0.3-0.1,0.6-0.1,0.8-0.4c0-0.1,0.2-0.1,0.3-0.1c0.6,0,1.1,0,1.7,0c0.3,0,0.5,0.1,0.8,0.3
	c0.8,0.4,1.5,0.9,1.9,1.8c0.2,0.3,0.1,0.7,0.2,1C66.4,107.6,65.9,108.6,65.1,109.6L65.1,109.6z M67.6,72.3c-0.4-0.6-0.9-1-1.6-0.9
	c-1,0.1-1.6,0.8-2.2,1.4c0.3,0.6,0.6,1.1,0.8,1.6c0.3,0.5,1,0.8,1.5,0.6c0.4-0.1,0.8-0.3,1.2-0.4c0.1-0.2,0.3-0.5,0.4-0.8
	C68.2,73.3,68,72.7,67.6,72.3L67.6,72.3z M66.8,73c-0.5,0.3-0.9,0.8-1.7,0.7c0-0.1-0.1-0.2,0-0.2c0.4-0.4,0.7-0.8,1.2-1.1
	c0.3-0.2,0.6,0.1,0.6,0.4C66.9,72.8,66.9,72.9,66.8,73 M46.7,75.3c-0.1,0.1-0.1,0.2-0.2,0.3c-0.2,0-0.3,0-0.4-0.1
	c0,0.2-0.1,0.5-0.1,0.7c0,0.5,0.2,0.9,0.6,1.2c0.3,0.2,0.8,0.4,1.2,0.6c0.1-0.1-0.1-0.4,0.3-0.5s0.7-0.2,1-0.3
	c0.4-0.2,0.8-1,0.7-1.3c-0.2-0.6-0.8-1.2-1.6-1.3C47.5,74.5,47,74.7,46.7,75.3L46.7,75.3z M48.7,75.4c0.1,0.2,0,0.7-0.2,0.8
	c-0.5,0.2-0.9,0.3-1.5,0.5c-0.1-0.8,0.3-1.4,0.9-1.6C48.2,74.9,48.5,75.1,48.7,75.4L48.7,75.4z M58,122.7c-2.3,0-4.5,0-6.8,0
	c-0.2,0-0.4,0-0.6,0c-0.9,0-1.8-0.1-2.7-0.1c-1.7,0-3.3,0.1-5,0.1c-0.7,0-1.4-0.1-2.2-0.1c-1.3,0.1-2.6,0.1-3.8,0
	c-0.6-0.1-1.2,0-1.8-0.1c-1.7-0.2-3.5-0.2-5.2-0.2c-1,0-2-0.1-3.1-0.1c-0.7,0-1.5,0-2.3,0c0.1,0.3,0.1,0.5,0.2,0.7
	c0.2,0.4,0.7,0.7,1.1,0.5c0.6-0.3,1.2-0.4,1.8-0.4c1.1,0,2.2,0,3.3,0c1.3,0,2.6-0.2,4,0.1c0.6,0.2,1.2,0,1.8,0
	c0.7,0,1.5,0.1,2.2,0.1c1.8,0,3.6,0.2,5.4-0.1h0.1c1,0.2,2,0.1,3,0.1c1,0,2,0.1,3.1,0.1c1.1,0,2.2,0,3.3,0.1
	c1.4,0.2,2.8,0.1,4.2,0.1c0.5,0,1,0,1.6-0.5c-0.2-0.1-0.3-0.2-0.4-0.2C58.7,122.8,58.3,122.7,58,122.7L58,122.7z M57.4,68.4
	c0.2,0,0.4,0,0.6-0.1c0.4-0.2,0.8-0.2,1.2-0.1c0.6,0.2,1,0,1.5-0.2c0.3-0.1,0.6-0.3,0.8-0.4c0.5-0.3,0.9-0.6,1.2-1.1
	c0.7-1.1,0.8-2.2,0.9-3.6c-0.1-1.2-0.6-2.3-2-2.9c-0.5-0.2-0.9-0.4-1.4-0.5c-0.8-0.3-1.7-0.3-2.6,0c-0.6,0.2-1.2,0.5-1.9,0.5
	c-0.1,0-0.3,0-0.3,0.1c-0.3,0.2-0.6,0.4-0.8,0.7c-0.2,0.2-0.5,0.5-0.5,0.9c-0.2,0.8-0.4,1.6-0.3,2.4C53.7,66.7,55.3,67.9,57.4,68.4
	L57.4,68.4z M54.4,62.4c0.1-0.5,0.3-1,0.9-1.3c0.1,0,0.1-0.1,0.2-0.1c0.6,0.3,1-0.3,1.4-0.5c0.1,0,0.2-0.1,0.2-0.1
	c0.7-0.1,1.3-0.2,2-0.1c0.9,0,1.8,0.5,2.5,1c0.4,0.3,0.5,0.8,0.5,1.3c0,0.4,0,0.8-0.1,1.2c-0.1,0.7-0.4,1.4-0.8,2.1
	c-0.1,0.1-0.3,0.2-0.4,0.3c-1,1-2.3,1.3-3.2,0.8c0.4-0.4,1.1,0.2,1.5-0.4c0.6-0.1,1.1-0.2,1.6-0.5c0.6-0.8,0.7-1.8,1.1-2.8
	c0.1-0.2,0-0.5,0-0.6c-0.5-0.8-1-1.5-2-1.7c-0.5-0.1-0.9-0.1-1.3,0.1c-0.9,0.3-1.8,0.5-2.7,0.5c0.1,0.2,0.2,0.3,0.3,0.5
	c-0.3,0.5-0.5,1-1,1.3c-0.1,0.1-0.1,0.2-0.2,0.3c-0.3,0.8,0.4,2.6,1.1,2.9c0.4,0.2,0.8,0.2,1.2,0.4c0.1,0,0.2,0.1,0.3,0.1
	c-1.3,0.2-2.7-0.7-3-1.8C54.3,64.2,54.2,63.3,54.4,62.4L54.4,62.4z M56.9,65.5c-1-0.2-1.4-0.9-1-1.8c0.2-0.5,0.4-1,0.6-1.5
	c0.5,0.3,1.2,0.2,1.8,0c0.4-0.1,0.8-0.1,1.2-0.1c0.4,0,0.7,0.5,0.7,0.9c-0.1,1.2-0.6,1.8-1.8,2.2C58,65.5,57.5,65.6,56.9,65.5
	L56.9,65.5z M62,104.5c-0.3,0.1-0.6,0.1-1,0.1c0.2,0.5,0,0.9-0.2,1.3c-0.3,0.7-0.3,1.4,0,2.1c0.2,0.6,0.5,0.7,1.1,0.5
	c0.1,0,0.2-0.1,0.3-0.1c0.4,0.3,0.7-0.1,1-0.1c0.4,0,0.6-0.3,0.6-0.7c0-0.4,0-0.8,0.1-1.2C64.1,105.5,63,104.3,62,104.5L62,104.5z
	 M62,107.3c-0.6-0.4-0.2-0.8-0.1-1.1c0.1-0.5,0.6-0.5,0.8-0.8c0.4,0.3,0.4,0.7,0.4,1.2C62.7,106.9,62.3,107.1,62,107.3"/>
</svg>
