<svg width="140" height="39" viewBox="0 0 140 39" fill="none" xmlns="http://www.w3.org/2000/svg">
<g clip-path="url(#clip0_16_765)">
<path d="M140 27.3096H134.271V38.3575H140V27.3096Z" fill="#231815"/>
<path d="M140 20.3418H134.271V24.4336H140V20.3418Z" fill="#C7000B"/>
<path d="M131.395 20.3418H125.667V38.3578H131.395V20.3418Z" fill="#231815"/>
<path d="M111.345 20.3418V38.3578H117.074V31.4017H121.659L124.848 27.3099H117.074V20.3418H111.345Z" fill="#231815"/>
<path d="M98.444 34.2657C95.7362 34.2657 93.5338 32.0633 93.5338 29.3555C93.5338 26.6477 95.7362 24.4453 98.444 24.4453H107.157L110.31 20.3535H96.699C91.7768 20.4137 87.7933 24.4213 87.7933 29.3555C87.7933 34.2897 91.7768 38.3093 96.699 38.3575H108.674V34.2657H98.444Z" fill="#231815"/>
<path d="M79.6218 20.3418H85.3503V31.7989C85.3503 35.4213 82.4138 38.3458 78.8034 38.3458H71.8473C68.2249 38.3458 65.3004 35.4093 65.3004 31.7989V20.3418H71.029V32.6172C71.029 33.5198 71.7631 34.2539 72.6657 34.2539H77.9851C78.8877 34.2539 79.6218 33.5198 79.6218 32.6172V20.3418Z" fill="#231815"/>
<path d="M50.7624 34.266C48.0546 34.266 45.8523 32.0636 45.8523 29.3558C45.8523 26.648 48.0546 24.4456 50.7624 24.4456H61.1364L64.2774 20.3418H49.0294C44.1072 20.402 40.1237 24.4095 40.1237 29.3438C40.1237 34.278 44.1072 38.2976 49.0294 38.3458H62.6407V27.2979H55.3477L52.1464 31.3897H56.9242V34.2539H50.7865L50.7624 34.266Z" fill="#231815"/>
<path d="M32.3252 20.3418C30.2312 20.3418 28.438 21.2203 27.1503 22.8811L15.1517 38.3578H27.8844L31.0857 34.266H24.1536L31.9281 24.4938V38.3578H37.6566V20.3418H32.3252Z" fill="#231815"/>
<path d="M0 20.3418V24.4336H6.54689V38.3578H12.2754V24.4336H22.8901L26.0793 20.3418H0Z" fill="#231815"/>
<path d="M122.79 6.87493C122.79 6.63424 122.742 6.48982 122.682 6.36947C122.502 6.05657 122.177 5.81587 121.828 5.81587C121.069 5.81587 120.311 6.61017 120.311 8.17468C120.311 9.16153 120.756 10.5215 121.984 10.5215C122.189 10.5215 122.405 10.4613 122.598 10.3409C122.766 10.2326 122.778 10.0401 122.778 9.7753V6.87493H122.79ZM124.728 8.86066C124.728 10.2687 124.788 10.6057 125.077 10.6057C125.366 10.6057 125.462 10.5816 125.715 10.4853C125.883 10.6177 125.883 10.9908 125.727 11.1232C124.247 11.2074 123.079 11.6648 123.031 11.6648C122.923 11.6648 122.802 11.5805 122.778 11.4602L122.826 11.0028C122.814 10.8825 122.754 10.8344 122.694 10.8825C122.177 11.2074 121.635 11.5203 121.081 11.5203C119.372 11.5203 118.229 10.1965 118.229 8.57183C118.229 6.46575 119.818 5.11786 121.791 5.11786C122.116 5.11786 122.477 5.14193 122.646 5.19007C122.754 5.14193 122.79 5.02158 122.79 4.90124V2.99975C122.79 2.39801 122.79 2.24156 122.489 2.06104L122.237 1.91662C122.116 1.83238 122.128 1.55558 122.237 1.47134C122.875 1.32692 123.789 0.965879 124.523 0.628906C124.632 0.628906 124.716 0.652976 124.776 0.737219C124.74 1.35099 124.728 1.9768 124.728 2.9155V8.86066Z" fill="#231815"/>
<path d="M115.172 2.99943C115.172 2.3977 115.172 2.24124 114.871 2.06072L114.619 1.91631C114.51 1.83206 114.51 1.55526 114.619 1.47102C115.257 1.3266 116.159 0.965563 116.905 0.640625C116.99 0.640625 117.098 0.664694 117.158 0.748938C117.122 1.36271 117.11 1.98851 117.11 2.92722V9.58243C117.11 10.6294 117.17 10.7498 117.7 10.81L117.952 10.834C118.073 10.9183 118.073 11.2673 117.94 11.3515C117.447 11.3275 116.821 11.3034 116.147 11.3034C115.473 11.3034 114.871 11.3154 114.354 11.3515C114.222 11.2673 114.222 10.9183 114.342 10.834L114.631 10.81C115.124 10.7618 115.184 10.6294 115.184 9.58243V2.99943H115.172Z" fill="#231815"/>
<path d="M109.913 7.33207C109.913 6.73033 109.913 6.54981 109.624 6.38132L109.42 6.24894C109.311 6.15266 109.311 5.8879 109.42 5.80366C110.106 5.6111 111.141 5.20192 111.598 4.91309C111.718 4.91309 111.803 4.96123 111.863 5.04547C111.839 5.34634 111.803 5.55093 111.803 5.68331C111.803 5.79162 111.827 5.82773 111.947 5.86383C112.356 5.6111 112.789 5.11768 113.415 5.11768C113.812 5.11768 114.234 5.43058 114.234 5.99621C114.234 6.68219 113.752 6.97102 113.283 6.97102C113.078 6.97102 112.898 6.87475 112.705 6.70626C112.368 6.42946 112.224 6.40539 112.14 6.40539C111.935 6.40539 111.851 6.73033 111.851 7.29596V9.57053C111.851 10.6175 111.911 10.7379 112.404 10.786L112.886 10.8342C113.006 10.9305 113.006 11.2674 112.874 11.3517C112.152 11.3276 111.562 11.3035 110.852 11.3035C110.238 11.3035 109.576 11.3156 109.095 11.3517C108.962 11.2674 108.962 10.9184 109.083 10.8342L109.372 10.8101C109.865 10.762 109.925 10.6296 109.925 9.58256V7.35614L109.913 7.33207Z" fill="#231815"/>
<path d="M104.269 8.11481C104.269 9.67933 104.762 10.8347 105.629 10.8347C106.495 10.8347 106.76 9.85985 106.748 8.52399C106.736 7.07982 106.315 5.81618 105.46 5.81618C104.798 5.81618 104.269 6.49012 104.269 8.11481ZM102.115 8.43975C102.103 6.29757 103.787 5.11816 105.557 5.11816C107.326 5.11816 108.902 6.20129 108.902 8.30737C108.902 10.4134 107.302 11.5206 105.46 11.5206C103.619 11.5206 102.127 10.5097 102.115 8.43975Z" fill="#231815"/>
<path d="M96.1454 5.94804C95.9408 5.8999 95.7002 5.88787 95.4234 5.88787C94.942 5.88787 94.6652 5.94804 94.6652 6.11653C94.6652 6.20077 94.7133 6.38129 94.7975 6.60995C95.0142 7.12745 95.6039 8.47534 95.8566 8.95673C96.0612 8.54754 96.5787 7.47645 96.6509 7.17559C96.699 6.98303 96.699 6.85065 96.699 6.7303C96.699 6.48961 96.4463 6.00822 96.1454 5.94804ZM96.5426 5.33427C97.4813 5.33427 98.2274 5.32224 99.1902 5.28613C99.3587 5.29817 99.3346 5.74345 99.2384 5.80363L99.0097 5.85177C98.6607 5.92397 98.4561 5.99618 98.4561 6.08043C98.4561 6.20077 98.4802 6.28502 98.5765 6.54978C98.8412 7.27186 99.2624 8.23464 99.5874 8.95673C99.9484 8.09023 100.189 7.35611 100.43 6.67013C100.514 6.40536 100.562 6.18874 100.562 6.09246C100.562 6.02025 100.442 5.94804 100.189 5.88787L99.9364 5.8277C99.8521 5.71938 99.8521 5.35834 99.9965 5.3102C100.49 5.33427 100.851 5.35834 101.224 5.35834C101.657 5.35834 102.042 5.34631 102.379 5.3102C102.512 5.37038 102.548 5.69531 102.428 5.8277L102.223 5.87583C101.73 5.98415 101.621 6.12856 101.393 6.68216C100.707 8.21057 100.021 9.84729 99.3948 11.4359C99.3106 11.5201 99.2023 11.5442 99.0458 11.5442C98.8894 11.5442 98.7931 11.5322 98.7088 11.4359C98.3959 10.6296 97.6137 8.88452 97.1684 7.92174C96.7833 8.704 95.8807 10.6897 95.5437 11.4359C95.4595 11.5201 95.3511 11.5442 95.2067 11.5442C95.0623 11.5442 94.954 11.5322 94.8577 11.4359C94.1356 9.75102 93.4136 8.03005 92.6794 6.47757C92.4748 6.04432 92.3184 5.98415 92.0657 5.91194L91.8009 5.83973C91.6926 5.71938 91.6926 5.39445 91.849 5.32224C92.4628 5.34631 92.9442 5.37038 93.57 5.37038H96.5907L96.5426 5.33427Z" fill="#231815"/>
<path d="M85.603 7.1996C85.8076 7.1996 86.0483 7.17553 86.2168 7.06722C86.289 7.01908 86.3251 6.87466 86.3251 6.71821C86.3251 6.22478 86.0363 5.89985 85.5308 5.89985C84.905 5.89985 84.3634 6.50158 84.3634 6.97094C84.3634 7.17553 84.568 7.1996 85.0494 7.1996H85.603ZM84.6162 7.86151C84.2671 7.86151 84.2431 7.88558 84.2431 8.12627C84.2431 9.2455 84.9652 10.3407 86.3492 10.3407C86.7704 10.3407 87.336 10.2564 87.7332 9.5584C87.9016 9.53433 88.1183 9.64265 88.1183 9.89538C87.5045 11.1711 86.3973 11.6043 85.5067 11.6043C83.4849 11.6043 82.4018 10.1842 82.4018 8.55952C82.4018 6.67007 83.7617 5.21387 85.6271 5.21387C87.1796 5.21387 88.022 6.21275 88.022 7.36808C88.022 7.65692 87.9498 7.86151 87.4804 7.86151H84.6162Z" fill="#231815"/>
<path d="M75.3374 2.99943C75.3374 2.3977 75.3374 2.24124 75.0365 2.06072L74.7838 1.91631C74.6755 1.83206 74.6755 1.55526 74.7838 1.47102C75.4096 1.3266 76.2761 0.965563 77.0704 0.640625C77.1546 0.640625 77.2629 0.664694 77.3231 0.748938C77.287 1.36271 77.275 1.98851 77.275 2.92722V5.67114C77.275 5.80352 77.3111 5.85166 77.3833 5.85166C77.3953 5.85166 77.4675 5.82759 77.624 5.73131C77.9489 5.50265 78.5988 5.12958 79.345 5.12958C80.5966 5.12958 81.2224 5.98404 81.2224 7.007V9.58243C81.2224 10.6294 81.2825 10.7498 81.8241 10.81L82.0648 10.834C82.1852 10.9183 82.1852 11.2673 82.0528 11.3515C81.5955 11.3275 80.9576 11.3034 80.2476 11.3034C79.6097 11.3034 78.9598 11.3154 78.6349 11.3515C78.5025 11.2673 78.5025 10.9183 78.6229 10.834L78.8876 10.7859C79.2246 10.7257 79.2848 10.6174 79.2848 9.79905V7.21159C79.2848 6.69409 78.9719 6.2127 78.2378 6.2127C77.8165 6.2127 77.5157 6.40526 77.3953 6.57375C77.3111 6.68206 77.275 6.86258 77.275 7.12734V9.79905C77.275 10.6174 77.3352 10.7257 77.6721 10.7859L77.9369 10.834C78.0572 10.9183 78.0572 11.2673 77.9249 11.3515C77.4555 11.3275 76.9861 11.3034 76.2641 11.3034C75.6503 11.3034 75.0245 11.3154 74.519 11.3515C74.3866 11.2673 74.3866 10.9183 74.507 10.834L74.7718 10.81C75.2652 10.7498 75.3254 10.6294 75.3254 9.58243V2.99943H75.3374Z" fill="#231815"/>
<path d="M72.6175 6.14093C72.4249 6.14093 72.4129 6.15296 72.4129 6.48993V8.72839C72.4129 9.57082 72.4129 10.4975 73.4599 10.4975C73.6645 10.4975 73.9052 10.3892 74.0857 10.2688C74.2302 10.317 74.3264 10.4734 74.2903 10.6539C73.8691 11.0992 73.0628 11.5204 72.1361 11.5204C70.8965 11.5204 70.4633 10.7984 70.4633 9.82355V6.48993C70.4633 6.17703 70.4513 6.14093 70.1745 6.14093H69.7051C69.5366 6.08075 69.5005 5.77988 69.6209 5.67157C70.0782 5.50309 70.4994 5.23832 70.8604 4.99763C71.1252 4.80507 71.4983 4.49217 71.9676 3.83026C72.0759 3.77008 72.3407 3.78212 72.4129 3.90247V5.0217C72.4129 5.31053 72.4249 5.32256 72.7017 5.32256H74.0256C74.0978 5.38274 74.1459 5.46698 74.1459 5.6114C74.1459 5.77988 74.0978 6.04465 73.9534 6.12889H72.6055L72.6175 6.14093Z" fill="#231815"/>
<path d="M63.1222 7.1153C63.3267 7.1153 63.5674 7.09123 63.7359 6.98292C63.8081 6.93478 63.8442 6.79036 63.8442 6.63391C63.8442 6.14048 63.5554 5.81555 63.0499 5.81555C62.4241 5.81555 61.8826 6.41728 61.8826 6.88664C61.8826 7.09123 62.0872 7.1153 62.5686 7.1153H63.1222ZM62.1353 7.77721C61.7863 7.77721 61.7622 7.80128 61.7622 8.04197C61.7622 9.1612 62.4843 10.2564 63.8683 10.2564C64.2895 10.2564 64.8552 10.1601 65.2643 9.4741C65.4328 9.45003 65.6494 9.55835 65.6494 9.82311C65.0357 11.0988 63.9285 11.532 63.0379 11.532C61.0161 11.532 59.933 10.1119 59.933 8.48726C59.933 6.5978 61.2929 5.1416 63.1583 5.1416C64.7107 5.1416 65.5532 6.14048 65.5532 7.29582C65.5532 7.58465 65.481 7.78924 65.0116 7.78924H62.1473L62.1353 7.77721Z" fill="#231815"/>
<path d="M57.7667 6.14093C57.5741 6.14093 57.5621 6.15296 57.5621 6.48993V8.72839C57.5621 9.57082 57.5621 10.4975 58.6091 10.4975C58.8137 10.4975 59.0544 10.3892 59.2349 10.2688C59.3793 10.317 59.4756 10.4734 59.4395 10.6539C59.0183 11.0992 58.212 11.5204 57.2853 11.5204C56.0457 11.5204 55.6125 10.7984 55.6125 9.82355V6.48993C55.6125 6.17703 55.6004 6.14093 55.3236 6.14093H54.8543C54.6858 6.08075 54.6497 5.77988 54.758 5.67157C55.2273 5.50309 55.6365 5.23832 55.9976 4.99763C56.2623 4.80507 56.6354 4.49217 57.1048 3.83026C57.2131 3.77008 57.4778 3.78212 57.55 3.90247V5.0217C57.55 5.31053 57.5621 5.32256 57.8389 5.32256H59.1627C59.2349 5.38274 59.283 5.46698 59.283 5.6114C59.283 5.77988 59.2349 6.04465 59.0905 6.12889H57.7426L57.7667 6.14093Z" fill="#231815"/>
<path d="M51.4846 8.87237C51.4966 8.63167 51.4846 8.58353 51.3763 8.6076C50.7023 8.69185 50.1246 8.95661 50.1246 9.65462C50.1246 10.136 50.4616 10.5572 50.8828 10.5572C51.3401 10.5572 51.4364 10.2925 51.4485 9.82311L51.4725 8.8844L51.4846 8.87237ZM53.2777 9.25748C53.2176 10.2684 53.6508 10.5452 53.9517 10.5452C54.1322 10.5452 54.2766 10.4971 54.5173 10.3647C54.6497 10.3887 54.746 10.5693 54.6978 10.7137C54.5173 10.9544 53.8193 11.52 52.9648 11.52C52.4473 11.52 52.1104 11.3395 51.7132 11.0025C51.6049 10.9062 51.5447 10.8822 51.4725 10.8822C51.4003 10.8822 51.304 10.9423 51.1596 11.0507C50.8949 11.2432 50.4375 11.532 49.8839 11.532C49.0174 11.532 48.2111 11.0145 48.2111 9.96753C48.2111 9.20934 48.6684 8.73998 49.7636 8.41505C50.3292 8.23453 50.7504 8.11418 51.1717 7.99383C51.4364 7.92162 51.5207 7.81331 51.5327 7.69296C51.5447 7.52448 51.5568 7.36803 51.5568 7.1875C51.5568 6.62187 51.3281 5.89979 50.6903 5.89979C50.3292 5.89979 50.0163 6.10438 49.908 6.75426C49.8719 6.99495 49.7877 7.12733 49.6553 7.23564C49.4266 7.40413 48.849 7.58465 48.5842 7.58465C48.3315 7.58465 48.2352 7.41616 48.2352 7.21157C48.2352 6.82646 48.5962 6.34507 48.9573 6.05624C49.4627 5.64706 50.4014 5.1416 51.4725 5.1416C52.7241 5.1416 53.4583 5.76741 53.3861 7.30785L53.2777 9.28155V9.25748Z" fill="#231815"/>
<path d="M45.0098 7.1153C45.2144 7.1153 45.4551 7.09123 45.6236 6.98292C45.6958 6.93478 45.7319 6.79036 45.7319 6.63391C45.7319 6.14048 45.4431 5.81555 44.9376 5.81555C44.3118 5.81555 43.7702 6.41728 43.7702 6.88664C43.7702 7.09123 43.9748 7.1153 44.4562 7.1153H45.0098ZM44.023 7.77721C43.674 7.77721 43.6499 7.80128 43.6499 8.04197C43.6499 9.1612 44.372 10.2564 45.756 10.2564C46.1772 10.2564 46.7428 10.1601 47.152 9.4741C47.3205 9.45003 47.5371 9.55835 47.5371 9.82311C46.9233 11.0988 45.8161 11.532 44.9256 11.532C42.9037 11.532 41.8206 10.1119 41.8206 8.48726C41.8206 6.5978 43.1805 5.1416 45.0459 5.1416C46.5984 5.1416 47.4408 6.14048 47.4408 7.29582C47.4408 7.58465 47.3686 7.78924 46.8993 7.78924H44.035L44.023 7.77721Z" fill="#231815"/>
<path d="M37.3196 7.35614C37.3196 6.7544 37.3196 6.57388 37.0308 6.39336L36.8262 6.26098C36.7179 6.1647 36.7179 5.89993 36.8262 5.81569C37.5122 5.62313 38.5472 5.21395 39.0045 4.91309C39.1248 4.91309 39.2091 4.96123 39.2692 5.04547C39.2452 5.34634 39.2091 5.55093 39.2091 5.68331C39.2091 5.79162 39.2452 5.82773 39.3535 5.86383C39.7506 5.6111 40.1959 5.11768 40.8217 5.11768C41.2189 5.11768 41.6401 5.43058 41.6401 5.99621C41.6401 6.68219 41.1587 6.97102 40.6773 6.97102C40.4727 6.97102 40.2922 6.87475 40.0996 6.70626C39.7506 6.42946 39.6183 6.40539 39.534 6.40539C39.3294 6.40539 39.2452 6.73033 39.2452 7.29596V9.57053C39.2452 10.6175 39.3054 10.7379 39.7988 10.786L40.2802 10.8342C40.4005 10.9305 40.4005 11.2674 40.2681 11.3517C39.546 11.3276 38.9563 11.3035 38.2463 11.3035C37.6325 11.3035 36.9706 11.3156 36.4772 11.3517C36.3448 11.2674 36.3448 10.9184 36.4652 10.8342L36.754 10.8101C37.2474 10.762 37.3076 10.6296 37.3076 9.58256V7.35614H37.3196Z" fill="#231815"/>
<path d="M35.5145 5.38261C35.7071 5.5511 35.8274 5.75569 35.8274 6.16487C35.8274 6.61015 35.6228 7.01934 35.4423 7.01934C35.3701 7.01934 35.2377 6.98323 35.2016 6.94713C34.7804 6.34539 34.2027 5.8279 33.6612 5.8279C32.6864 5.8279 32.1689 6.93509 32.1689 7.95804C32.1689 9.13745 32.9271 10.3409 34.299 10.3409C34.8526 10.3409 35.2979 10.1604 35.6349 9.6068C35.8154 9.59477 36.02 9.70308 36.02 9.93174C35.695 10.6779 34.7924 11.5324 33.3723 11.5324C31.4829 11.5324 30.2072 10.2807 30.2072 8.51164C30.2072 6.39353 31.9282 5.12988 33.938 5.12988C34.4434 5.12988 35.1053 5.2382 35.5025 5.38261" fill="#231815"/>
<path d="M29.3287 7.44075C29.4611 7.58516 29.5333 7.81382 29.5333 8.06655C29.5333 8.25911 29.4611 8.4998 29.3407 8.64422L25.7544 8.96916C25.634 8.84881 25.5257 8.64422 25.5257 8.36742C25.5257 8.07859 25.634 7.89807 25.7544 7.75365L29.3287 7.42871V7.44075Z" fill="#231815"/>
<path d="M22.4568 7.1153C22.6614 7.1153 22.9021 7.09123 23.0706 6.98292C23.1428 6.93478 23.1789 6.79036 23.1789 6.63391C23.1789 6.14048 22.89 5.81555 22.3846 5.81555C21.7588 5.81555 21.2172 6.41728 21.2172 6.88664C21.2172 7.09123 21.4218 7.1153 21.9032 7.1153H22.4568ZM21.4699 7.77721C21.1209 7.77721 21.0969 7.80128 21.0969 8.04197C21.0969 9.1612 21.819 10.2564 23.2029 10.2564C23.6242 10.2564 24.1898 10.1601 24.5869 9.4741C24.7554 9.45003 24.972 9.55835 24.972 9.82311C24.3583 11.0988 23.2511 11.532 22.3605 11.532C20.3387 11.532 19.2556 10.1119 19.2556 8.48726C19.2556 6.5978 20.6155 5.1416 22.4809 5.1416C24.0333 5.1416 24.8758 6.14048 24.8758 7.29582C24.8758 7.58465 24.8036 7.78924 24.3342 7.78924H21.4699V7.77721Z" fill="#231815"/>
<path d="M14.8027 7.35614C14.8027 6.7544 14.8027 6.57388 14.5139 6.39336L14.3093 6.26098C14.201 6.1647 14.201 5.89993 14.3093 5.81569C14.9953 5.62313 16.0302 5.21395 16.4876 4.91309C16.6079 4.91309 16.6922 4.96123 16.7523 5.04547C16.7283 5.34634 16.6922 5.55093 16.6922 5.68331C16.6922 5.79162 16.7283 5.82773 16.8366 5.86383C17.2458 5.6111 17.679 5.11768 18.3048 5.11768C18.714 5.11768 19.1232 5.43058 19.1232 5.99621C19.1232 6.68219 18.6418 6.97102 18.1724 6.97102C17.9678 6.97102 17.7873 6.87475 17.5948 6.70626C17.2458 6.42946 17.1134 6.40539 17.0291 6.40539C16.8245 6.40539 16.7403 6.73033 16.7403 7.29596V9.57053C16.7403 10.6175 16.8005 10.7379 17.2939 10.786L17.7753 10.8342C17.8956 10.9305 17.8956 11.2674 17.7632 11.3517C17.0412 11.3276 16.4515 11.3035 15.7414 11.3035C15.1276 11.3035 14.4657 11.3156 13.9723 11.3517C13.8399 11.2674 13.8399 10.9184 13.9603 10.8342L14.2491 10.8101C14.7425 10.762 14.8027 10.6296 14.8027 9.58256V7.35614Z" fill="#231815"/>
</g>
<defs>
<clipPath id="clip0_16_765">
<rect width="140" height="37.7289" fill="white" transform="translate(0 0.628906)"/>
</clipPath>
</defs>
</svg>
