<svg width="275" height="84" viewBox="0 0 275 84" fill="none" xmlns="http://www.w3.org/2000/svg">
<g clip-path="url(#clip0_16_748)">
<g clip-path="url(#clip1_16_748)">
<path d="M44.92 45.1889L44.85 40.8789H0V61.4789L8.76 61.4289V49.6389H33.14C32.57 54.7789 32.15 63.3989 26.55 69.0889C22.85 72.8489 19.42 74.7089 13.4 74.7789H10.17V79.5989L17.85 83.2189C24.31 82.3489 29.78 79.6689 34.16 75.2189C45.09 64.1089 44.92 45.9489 44.91 45.1789L44.92 45.1889Z" fill="#231815"/>
<path d="M200.26 53.5793C200.26 57.0593 197.44 59.8793 193.95 59.8793C190.46 59.8793 187.65 57.0593 187.65 53.5793C187.65 50.0993 190.47 47.2793 193.95 47.2793C197.43 47.2793 200.26 50.0993 200.26 53.5793Z" fill="#D71718"/>
<path d="M212.93 53.5793C212.93 57.0593 210.11 59.8793 206.63 59.8793C203.15 59.8793 200.33 57.0593 200.33 53.5793C200.33 50.0993 203.15 47.2793 206.63 47.2793C210.11 47.2793 212.93 50.0993 212.93 53.5793Z" fill="#D71718"/>
<path d="M216.03 48.5391C216.04 53.9191 216.57 62.7891 211.45 68.6291C207.94 72.6391 204.26 74.6591 197.64 74.7791H194.46V79.5991L202.13 83.2191H202.14C209.3 82.2891 215.09 79.3291 219.41 74.3991C226.42 66.3991 227.59 55.2991 227.56 48.5391H216.02H216.03Z" fill="#231815"/>
<path d="M157.85 51.8296L157.11 47.1396H146.86L147.78 51.8296H144.04V60.5896H149.5L153.94 83.2296H162.81L159.24 60.5896H173.46C173.27 61.2896 173.44 62.0096 173.13 62.7296C171.67 66.0996 170.68 67.7296 167.38 67.8496H162.86V72.6697L170.54 76.2896C176.06 75.2197 180.3 71.6297 182.68 65.8997C184.62 61.2197 184.68 56.7096 184.68 56.2096V51.8296H157.87H157.85Z" fill="#231815"/>
<path d="M140.42 62.1289H122.24L121.57 54.5089H138.15V45.7489H120.79L120.36 40.8789H109.36L110.04 45.7489H95.01V54.5089H111.28L112.35 62.1289H95.01V70.8789H113.59L115.33 83.2289H124.12L123.02 70.8789H140.42V62.1289Z" fill="#231815"/>
<path d="M274.7 46.6294V37.6094C256.67 42.2694 231.94 42.3294 231.69 42.3294V51.0894C232.26 51.0894 239.91 51.0694 249.85 50.2594V55.6394H231.69V64.3994H249.67C249.34 66.4194 248.63 68.6294 247.12 70.1994C244.21 73.2394 241.07 74.7694 235.16 74.7794H232.42V79.5994L240.1 83.2194C246.24 82.3994 251.2 80.0494 254.9 76.1694C258.52 72.3694 260.13 67.8594 260.83 64.3894H274.71L274.68 55.6294H261.37V49.0194C265.84 48.4094 270.39 47.6294 274.71 46.6194L274.7 46.6294Z" fill="#231815"/>
<path d="M79.39 48.5901C79.39 56.4401 78.44 62.6301 73.84 66.9901C67.53 72.9601 59.39 74.4401 54.5 74.7901H50.53V79.6101L58.21 83.2301C64.77 82.4201 74.11 80.0501 81.19 73.3801C87.64 67.3001 90.91 58.9601 90.91 48.5801H79.39V48.5901Z" fill="#231815"/>
<path d="M69.83 51.2296C69.83 56.9396 65.2 61.5696 59.49 61.5696C53.78 61.5696 49.15 56.9396 49.15 51.2296C49.15 45.5196 53.78 40.8896 59.49 40.8896C65.2 40.8896 69.83 45.5196 69.83 51.2296Z" fill="#D71718"/>
</g>
<path d="M43.6299 26.3294C43.9999 26.3294 44.3699 26.3294 44.7299 26.3294C48.2399 26.3294 51.7499 26.3294 55.2699 26.3294C55.8399 26.3294 55.8999 26.2594 55.8999 25.6794C55.8999 24.7594 55.8899 23.8394 55.8999 22.9194C55.9099 22.2294 55.8699 22.1394 55.1799 22.1394C52.6599 22.1194 50.1399 22.1194 47.6199 22.1094C47.3699 22.1094 47.1099 22.1094 46.8599 22.0894C46.5599 22.0694 46.3899 21.9294 46.3799 21.6094C46.3599 20.9694 46.3299 20.3394 46.3199 19.6994C46.3199 19.1494 46.4099 19.0494 46.9499 19.0394C48.3199 19.0194 49.6999 19.0094 51.0699 18.9994C51.9799 18.9994 52.8799 19.0294 53.7899 18.9894C54.5399 18.9594 54.6199 18.8094 54.6099 18.0794C54.5899 17.2894 54.5799 16.4894 54.5799 15.6994C54.5799 15.0994 54.5099 15.0194 53.9099 14.9694C53.7299 14.9594 53.5399 14.9594 53.3599 14.9594C52.1299 14.9594 50.8999 14.9794 49.6599 14.9794C48.7499 14.9794 47.8499 14.9494 46.9399 14.9394C46.5699 14.9394 46.3599 14.7694 46.3599 14.3694C46.3599 13.9694 46.3299 13.5794 46.3399 13.1794C46.3499 12.5394 46.4399 12.4494 47.0899 12.4394C48.5299 12.4194 49.9799 12.4294 51.4199 12.3994C52.1199 12.3894 52.1499 12.3394 52.2199 11.6594C52.2699 11.2294 52.3799 11.1794 52.7699 11.3294C53.6399 11.6594 54.5099 11.9994 55.3899 12.2994C55.6799 12.3994 55.9999 12.4094 56.3099 12.4494C56.6099 12.4894 56.7799 12.3494 56.7799 12.0494C56.7799 10.7494 56.7799 9.43937 56.7599 8.13938C56.7599 7.70938 56.4899 7.44937 56.0699 7.32937C53.8999 6.70937 51.8799 5.75938 50.0299 4.48938C48.7499 3.60938 47.5899 2.55938 46.3499 1.61937C46.0399 1.37937 45.6499 1.12937 45.2799 1.09938C44.1899 1.02938 43.0999 1.05938 42.0099 1.09938C41.7499 1.09938 41.4399 1.21938 41.2599 1.39938C39.0799 3.59938 36.5099 5.23938 33.7099 6.51937C32.9099 6.87937 32.0799 7.16937 31.2599 7.47937C30.8999 7.61937 30.7099 7.83938 30.7199 8.23938C30.7399 9.43937 30.7299 10.6494 30.7499 11.8494C30.7499 12.3694 30.8799 12.4794 31.3799 12.3094C32.2999 11.9894 33.2199 11.6594 34.1099 11.2694C34.8799 10.9294 35.0299 10.9794 35.0299 11.8094C35.0299 12.1894 35.1799 12.3594 35.5499 12.3694C35.9999 12.3694 36.4599 12.3894 36.9099 12.3994C38.1299 12.3994 39.3499 12.3994 40.5599 12.4194C41.1199 12.4194 41.2599 12.5594 41.3099 13.1094C41.3399 13.4894 41.3399 13.8694 41.3399 14.2594C41.3399 14.8994 41.3099 14.9394 40.6799 14.9394C38.4799 14.9394 36.2899 14.9494 34.0899 14.9594C33.8199 14.9594 33.5399 14.9494 33.2899 15.0094C33.1599 15.0394 32.9799 15.2294 32.9699 15.3594C32.9499 16.3794 32.9499 17.3994 32.9699 18.4194C32.9699 18.8194 33.1999 19.0494 33.6199 19.0494C33.9299 19.0494 34.2399 19.0494 34.5499 19.0494C36.5599 19.0294 38.5699 19.0094 40.5799 19.0094C41.0699 19.0094 41.2499 19.1694 41.2899 19.6594C41.3299 20.2094 41.3299 20.7594 41.3299 21.3194C41.3299 22.0294 41.2499 22.1094 40.5499 22.1194C39.5599 22.1294 38.5699 22.1194 37.5799 22.1194C35.7199 22.1194 33.8699 22.1194 32.0099 22.1294C31.3499 22.1294 31.3499 22.1694 31.3599 22.8194C31.3699 23.6294 31.3799 24.4394 31.3799 25.2394C31.3799 26.3394 31.3799 26.3594 32.4899 26.3594C36.1999 26.3594 39.9099 26.3594 43.6199 26.3594L43.6299 26.3294ZM69.3099 16.1194C69.3099 16.1194 69.3199 16.1194 69.3299 16.1194C69.3299 19.2794 69.3299 22.4394 69.3299 25.5994C69.3299 26.3594 69.3699 26.3994 70.1099 26.3994C73.5799 26.4094 77.0499 26.4294 80.5199 26.4294C81.4299 26.4294 82.3299 26.4294 83.2399 26.3694C84.6399 26.2794 85.6399 25.2994 85.7799 23.9194C85.8299 23.4594 85.8299 22.9894 85.8299 22.5194C85.8299 17.3194 85.8299 12.1194 85.8199 6.91937C85.8199 6.06938 85.8099 6.03938 84.9399 6.02938C83.3999 6.01937 81.8499 6.02938 80.3099 6.01937C79.8099 6.01937 79.7399 5.92937 79.7299 5.45937C79.7099 4.08938 79.6999 2.70937 79.6799 1.33938C79.6799 0.729375 79.5599 0.619375 78.9599 0.609375C77.9399 0.609375 76.9199 0.609375 75.8999 0.609375C75.2899 0.609375 75.2399 0.639375 75.2299 1.24937C75.2299 2.56938 75.2299 3.87937 75.2299 5.19938C75.2299 5.89937 75.1199 6.00938 74.4199 6.02938C74.2599 6.02938 74.1099 6.02938 73.9499 6.02938C72.6599 6.02938 71.3699 6.01938 70.0799 6.00938C69.2999 6.00938 69.2999 6.00937 69.2999 6.76937C69.2999 9.88937 69.2999 12.9994 69.2999 16.1194H69.3099ZM14.2299 12.9594C10.3599 12.9594 6.49993 12.9594 2.62993 12.9594C2.05993 12.9594 2.00993 12.9894 1.99993 13.5494C1.98993 14.4594 1.98993 15.3594 1.99993 16.2694C1.99993 16.8394 2.13993 16.9494 2.72993 16.9494C3.44993 16.9494 4.16993 16.9294 4.89993 16.9294C5.65993 16.9294 6.42993 16.9294 7.18993 16.9494C7.70993 16.9594 7.80993 17.1094 7.71993 17.6194C7.66993 17.8994 7.58993 18.1694 7.52993 18.4494C7.24993 19.7494 6.46993 20.6894 5.39993 21.3994C4.37993 22.0794 3.19993 22.1794 2.01993 22.2494C1.32993 22.2894 1.16993 22.4294 1.15993 23.1194C1.14993 24.1694 1.15993 25.2194 1.15993 26.2694C1.15993 26.6294 1.32993 26.7894 1.66993 26.7994C4.74993 26.8794 7.56993 26.2194 9.80993 23.8994C10.7099 22.9694 11.5799 21.9994 11.9399 20.7194C12.1999 19.7594 12.3399 18.7594 12.5099 17.7694C12.5699 17.4294 12.5699 17.0394 13.0199 17.0094C13.6299 16.9694 14.2399 16.9594 14.8399 16.9794C15.1899 16.9894 15.3699 17.2194 15.3599 17.5794C15.3599 17.8194 15.3599 18.0594 15.3599 18.2994C15.3599 20.0094 15.3599 21.7294 15.3799 23.4394C15.3899 24.2094 15.5199 24.9594 16.1399 25.5294C16.6599 26.0094 17.2399 26.3594 17.9499 26.3794C19.7699 26.4494 21.5999 26.4994 23.4199 26.5194C24.1099 26.5194 24.8199 26.4994 25.4899 26.3594C26.9499 26.0594 27.1799 25.5494 27.1299 24.3794C27.0899 23.4794 27.1099 22.5694 27.1099 21.6594C27.1099 21.1794 26.9999 21.0994 26.5599 21.2694C26.1599 21.4194 25.7699 21.6794 25.3699 21.6994C23.7999 21.7694 22.2399 21.7794 20.6699 21.7894C20.2799 21.7894 20.1499 21.5194 20.1599 21.1594C20.1599 20.0294 20.1499 18.8894 20.1599 17.7594C20.1599 17.0994 20.3099 16.9594 20.9599 16.9594C22.5899 16.9494 24.2199 16.9594 25.8499 16.9294C26.4999 16.9294 26.5999 16.7994 26.6099 16.1394C26.6099 15.3594 26.6099 14.5794 26.5999 13.7994C26.5999 13.0594 26.4699 12.9494 25.7199 12.9494C21.8999 12.9494 18.0699 12.9494 14.2499 12.9494L14.2299 12.9594ZM126.96 9.38937C126.96 9.38937 126.96 9.39937 126.96 9.40938C129.06 9.40938 131.15 9.40938 133.25 9.40938C133.87 9.40938 134.08 9.60938 134.18 10.1794C134.49 11.7794 134.77 13.3794 135.1 14.9694C135.32 16.0194 135.63 17.0494 135.87 18.0994C136.26 19.7594 136.71 21.3994 137.56 22.8794C138.5 24.5094 139.72 25.8694 141.64 26.2894C142.65 26.5094 143.71 26.5494 144.76 26.6294C145.52 26.6894 145.65 26.5494 145.66 25.7794C145.67 24.6294 145.66 23.4894 145.64 22.3394C145.64 21.7294 145.56 21.6494 144.94 21.6794C143.47 21.7594 142.46 21.1194 141.79 19.8194C141.03 18.3494 140.53 16.7894 140.13 15.1994C139.7 13.4594 139.37 11.6894 138.99 9.93937C138.92 9.60938 139.05 9.44938 139.37 9.41938C139.64 9.39937 139.91 9.38937 140.18 9.38937C141.68 9.38937 143.18 9.39937 144.68 9.38937C145.4 9.38937 145.5 9.25937 145.49 8.53937C145.48 7.57937 145.46 6.60938 145.47 5.64937C145.47 5.27938 145.34 5.09937 144.95 5.10938C144.38 5.10938 143.82 5.08938 143.25 5.10938C141.88 5.11938 140.5 5.14937 139.13 5.15938C138.42 5.15938 138.31 5.07937 138.22 4.38937C138.1 3.44937 138.01 2.50937 137.91 1.55937C137.84 0.819375 137.77 0.739375 137.03 0.729375C135.77 0.719375 134.51 0.729375 133.25 0.709375C132.85 0.709375 132.76 0.909375 132.8 1.23937C132.92 2.20938 133.02 3.17937 133.18 4.13937C133.34 5.07937 133.31 5.13938 132.37 5.13938C129.5 5.12937 126.62 5.11938 123.75 5.10938C122.67 5.10938 121.6 5.13938 120.52 5.15938C120.26 5.15938 120.04 5.20937 120.05 5.54938C120.07 6.69938 120.07 7.83938 120.1 8.98938C120.1 9.10938 120.28 9.28937 120.42 9.33937C120.61 9.40937 120.84 9.37938 121.05 9.37938C123.02 9.37938 124.99 9.37938 126.95 9.37938L126.96 9.38937ZM105.97 26.2694C109.13 26.2694 112.29 26.2694 115.44 26.2694C116.14 26.2694 116.21 26.1994 116.23 25.4794C116.25 24.7194 116.23 23.9494 116.25 23.1894C116.27 22.0894 116.28 22.0694 115.16 22.0594C113.12 22.0394 111.08 22.0294 109.04 22.0394C108.22 22.0394 108.18 22.0294 108.17 21.1894C108.15 19.8394 108.14 18.4994 108.13 17.1494C108.13 16.4094 108.27 16.2994 109.01 16.3094C110.81 16.3094 112.61 16.3094 114.4 16.3094C114.97 16.3094 115.07 16.2094 115.07 15.6294C115.07 14.6494 115.04 13.6794 115.04 12.6994C115.04 12.2794 114.86 12.1394 114.45 12.1394C112.54 12.1394 110.63 12.1094 108.72 12.1094C108.32 12.1094 108.15 11.9894 108.15 11.5794C108.15 10.1594 108.13 8.74937 108.13 7.32937C108.13 7.03937 108.05 6.85938 107.74 6.85938C106.41 6.85938 105.08 6.84938 103.75 6.83938C103.38 6.83938 103.26 7.04938 103.27 7.37937C103.28 8.66937 103.27 9.95938 103.3 11.2494C103.32 12.0394 103.27 12.1194 102.5 12.1194C101.17 12.1194 99.8399 12.1194 98.5099 12.1194C97.6299 12.1194 97.5599 12.1894 97.5499 13.0594C97.5499 13.9694 97.5699 14.8694 97.5499 15.7794C97.5499 16.1894 97.6999 16.3094 98.0999 16.2994C99.4999 16.2794 100.9 16.2994 102.31 16.3094C103.15 16.3194 103.25 16.4294 103.27 17.2794C103.28 18.0694 103.27 18.8694 103.27 19.6594C103.27 20.2294 103.3 20.7894 103.27 21.3594C103.25 21.9094 103.13 22.0294 102.58 22.0494C102.21 22.0694 101.84 22.0494 101.48 22.0494C99.7799 22.0494 98.0799 22.0394 96.3799 22.0494C95.7099 22.0494 95.6599 22.1494 95.6699 22.7894C95.6899 23.6794 95.6699 24.5694 95.6699 25.4694C95.6699 26.1994 95.7299 26.2694 96.4699 26.2694C99.6299 26.2694 102.79 26.2694 105.94 26.2694H105.97ZM14.3199 11.5794C14.3199 11.5794 14.3199 11.6094 14.3199 11.6194C14.7699 11.6194 15.2299 11.6194 15.6799 11.6194C18.3399 11.6094 20.9999 11.5994 23.6599 11.5694C24.2699 11.5694 24.3499 11.4494 24.3399 10.8294C24.3399 10.3594 24.2899 9.88937 24.3199 9.42937C24.3399 8.94938 24.5099 8.81938 24.9899 8.80937C25.4599 8.80937 25.9199 8.81938 26.3899 8.79937C26.9799 8.76937 27.1799 8.56938 27.1799 7.97937C27.1799 6.28937 27.1499 4.60938 27.1399 2.91937C27.1399 2.59938 26.9899 2.43938 26.6799 2.42938C26.2599 2.40938 25.8299 2.39937 25.4099 2.38937C22.7899 2.36937 20.1699 2.35938 17.5499 2.32938C17.0599 2.32938 16.8999 2.18938 16.9499 1.71938C17.0299 0.899375 16.7199 0.879375 16.1299 0.869375C14.9399 0.839375 13.7499 0.829375 12.5599 0.849375C11.8999 0.869375 11.7199 0.889375 11.8099 1.66937C11.8599 2.11937 11.6899 2.28938 11.2399 2.33938C11.0899 2.35938 10.9299 2.35938 10.7699 2.35938C8.06993 2.35938 5.35993 2.35938 2.65993 2.35938C1.91993 2.35938 1.86993 2.38937 1.86993 3.14937C1.86993 4.47937 1.86993 5.80938 1.88993 7.13938C1.88993 7.50938 1.90993 7.87937 1.94993 8.23938C2.00993 8.72937 2.23993 8.89937 2.73993 8.82938C2.87993 8.80937 3.01993 8.76937 3.14993 8.72937C3.82993 8.53937 4.25993 8.82938 4.30993 9.53938C4.32993 9.87938 4.30993 10.2194 4.30993 10.5594C4.28993 11.5294 4.27993 11.5494 5.22993 11.5594C8.25993 11.5694 11.2899 11.5594 14.3199 11.5594V11.5794ZM103.66 1.44937C103.66 1.44937 103.66 1.44937 103.66 1.43937C99.9099 1.43937 96.1499 1.43937 92.3999 1.43937C91.3899 1.43937 91.3799 1.41938 91.3799 2.42938C91.3799 4.98938 91.3999 7.55938 91.3899 10.1194C91.3899 12.2494 91.3899 14.3694 91.3399 16.4894C91.3099 17.8694 90.9899 19.1394 90.0099 20.1994C89.7899 20.4294 89.7299 20.8794 89.7199 21.2294C89.6899 22.0394 89.7299 22.8394 89.7399 23.6494C89.7399 24.2994 89.7399 24.9494 89.7599 25.5994C89.7599 25.9694 89.9499 26.1094 90.3099 26.0094C90.4199 25.9794 90.5299 25.9694 90.6399 25.9194C93.0799 24.9394 94.8099 23.2894 95.4899 20.6794C95.9699 18.8094 95.9899 16.8894 95.9899 14.9794C95.9899 12.3494 95.9899 9.70938 96.0099 7.07937C96.0099 6.00937 96.0599 5.95937 97.1399 5.95937C100.88 5.95937 104.62 5.95937 108.36 5.95937C110.7 5.95937 113.03 5.95937 115.37 5.93937C116.03 5.93937 116.08 5.85938 116.08 5.18937C116.08 4.30937 116.08 3.42938 116.08 2.54938C116.08 1.46938 116.04 1.42937 114.97 1.42937C111.2 1.42937 107.44 1.42937 103.67 1.42937L103.66 1.44937ZM126.9 12.0794C126.82 12.0694 126.73 12.0694 126.65 12.0694C124.74 12.0694 122.83 12.0694 120.91 12.0994C120.4 12.0994 120.32 12.1994 120.31 12.7094C120.31 13.7294 120.31 14.7494 120.32 15.7694C120.33 16.4294 120.46 16.5494 121.1 16.5494C121.98 16.5494 122.86 16.5494 123.73 16.5494C124.14 16.5494 124.33 16.7494 124.33 17.1894C124.33 18.4094 124.37 19.6294 124.39 20.8394C124.4 21.6894 124.39 21.7394 123.54 21.7994C122.57 21.8694 121.59 21.8994 120.61 21.9394C120.29 21.9494 120.06 22.0394 120.07 22.4294C120.08 23.7294 120.08 25.0394 120.09 26.3394C120.09 26.6494 120.25 26.7794 120.54 26.7594C120.7 26.7594 120.85 26.7394 121 26.7094C124.93 26.1794 128.85 25.6494 132.78 25.1094C133.51 25.0094 133.59 24.8994 133.59 24.1494C133.59 23.2394 133.59 22.3394 133.58 21.4294C133.58 20.7894 133.53 20.7394 132.89 20.8194C131.87 20.9494 130.84 21.1094 129.82 21.2194C129.24 21.2894 129.13 21.1894 129.12 20.6094C129.1 19.5094 129.11 18.3994 129.12 17.2994C129.12 16.6994 129.23 16.5894 129.85 16.5694C130.83 16.5394 131.8 16.5394 132.78 16.5194C133.38 16.5094 133.44 16.4694 133.44 15.8494C133.44 14.7894 133.44 13.7294 133.41 12.6594C133.41 12.1594 133.31 12.0794 132.8 12.0794C130.83 12.0794 128.86 12.0794 126.89 12.0794H126.9ZM60.6099 24.2894H60.5999C60.5999 24.9594 60.5999 25.6194 60.5999 26.2894C60.5999 26.7894 60.7499 26.9394 61.2199 26.7594C61.8899 26.4994 62.5499 26.1994 63.1799 25.8594C64.9399 24.8894 66.3399 23.5594 67.1499 21.6994C68.1799 19.3294 68.5099 16.8094 68.5499 14.2394C68.5499 13.8894 68.3999 13.7094 68.0499 13.7094C66.8899 13.7094 65.7299 13.7094 64.5699 13.6994C64.2499 13.6994 64.1299 13.8594 64.0999 14.1594C64.0499 14.7694 64.0099 15.3794 63.9099 15.9794C63.5399 18.1294 62.9999 20.1994 61.0199 21.5194C60.8099 21.6594 60.6599 22.0294 60.6299 22.3094C60.5699 22.9694 60.6099 23.6394 60.6099 24.2994V24.2894ZM68.5899 4.55938C68.5899 4.05938 68.5899 3.56938 68.5899 3.06938C68.5899 2.41938 68.5099 2.33938 67.8599 2.19938C66.5999 1.93938 65.3399 1.66938 64.0799 1.39938C63.3599 1.24937 62.6399 1.08938 61.9199 0.939375C61.6599 0.889375 61.4099 0.889375 61.4099 1.24937C61.4099 2.43938 61.4099 3.62937 61.4299 4.81938C61.4299 5.22937 61.6599 5.46937 62.0799 5.51937C62.5999 5.58938 63.1199 5.64937 63.6299 5.76937C65.0799 6.10938 66.5099 6.46938 67.9599 6.81938C68.3799 6.91937 68.5699 6.80937 68.5899 6.37937C68.6199 5.76937 68.5899 5.15938 68.5899 4.54938V4.55938ZM68.5799 10.7794C68.5799 10.5494 68.5799 10.3294 68.5799 10.0994C68.5799 9.85938 68.5799 9.61938 68.5799 9.37938C68.5799 8.66938 68.5099 8.56937 67.8299 8.34937C67.6699 8.29937 67.5099 8.24937 67.3399 8.20937C65.5599 7.83938 63.7699 7.47937 61.9899 7.10938C61.6299 7.03937 61.4499 7.14937 61.4499 7.52938C61.4499 8.68937 61.4499 9.84937 61.4599 11.0094C61.4599 11.2994 61.6499 11.4094 61.9199 11.4594C63.1299 11.6894 64.3299 11.9394 65.5299 12.1894C66.3699 12.3694 67.2099 12.5794 68.0499 12.7494C68.4899 12.8394 68.5699 12.7494 68.5799 12.2994C68.5799 11.7894 68.5799 11.2794 68.5799 10.7694V10.7794ZM142.93 4.45937C142.93 4.45937 142.93 4.43937 142.93 4.41937C143.52 4.41937 144.12 4.40937 144.71 4.41937C145.11 4.42937 145.19 4.21937 145.07 3.90937C144.71 2.99937 144.34 2.09938 143.96 1.19937C143.82 0.859375 143.53 0.719375 143.17 0.719375C142.01 0.719375 140.85 0.709375 139.69 0.719375C139.28 0.719375 139.2 0.849375 139.29 1.24937C139.31 1.35938 139.36 1.46937 139.4 1.56937C139.67 2.27937 139.95 2.98937 140.2 3.71937C140.38 4.24937 140.54 4.41937 141.1 4.44937C141.71 4.47937 142.32 4.44937 142.93 4.44937V4.45937Z" fill="white"/>
<path d="M43.63 26.3293C39.92 26.3293 36.21 26.3293 32.5 26.3293C31.38 26.3293 31.3799 26.3093 31.3899 25.2093C31.3899 24.3993 31.39 23.5893 31.37 22.7893C31.37 22.1493 31.37 22.1093 32.02 22.0993C33.88 22.0793 35.73 22.0893 37.59 22.0893C38.58 22.0893 39.57 22.1093 40.56 22.0893C41.26 22.0893 41.34 21.9993 41.34 21.2893C41.34 20.7393 41.3399 20.1793 41.2999 19.6293C41.2599 19.1393 41.08 18.9793 40.59 18.9793C38.58 18.9793 36.57 19.0093 34.56 19.0193C34.25 19.0193 33.94 19.0193 33.63 19.0193C33.21 19.0193 32.9899 18.7993 32.9799 18.3893C32.9599 17.3693 32.9599 16.3493 32.9799 15.3293C32.9799 15.2093 33.1699 15.0193 33.2999 14.9793C33.5599 14.9193 33.8299 14.9293 34.0999 14.9293C36.2999 14.9293 38.4899 14.9293 40.6899 14.9093C41.3299 14.9093 41.3599 14.8693 41.3499 14.2293C41.3499 13.8493 41.3499 13.4593 41.32 13.0793C41.2699 12.5193 41.13 12.3893 40.57 12.3893C39.3499 12.3793 38.1299 12.3893 36.9199 12.3693C36.4699 12.3693 36.01 12.3493 35.56 12.3393C35.19 12.3393 35.04 12.1593 35.04 11.7793C35.04 10.9493 34.8899 10.8993 34.1199 11.2393C33.2299 11.6293 32.3099 11.9593 31.3899 12.2793C30.8999 12.4493 30.77 12.3393 30.76 11.8193C30.74 10.6193 30.7499 9.40933 30.7299 8.20933C30.7299 7.80933 30.91 7.57933 31.27 7.44933C32.09 7.13933 32.92 6.84933 33.72 6.48933C36.53 5.20933 39.09 3.56933 41.27 1.36933C41.45 1.18933 41.76 1.07933 42.02 1.06933C43.11 1.02933 44.2 0.999334 45.29 1.06933C45.66 1.08933 46.05 1.34933 46.36 1.58933C47.6 2.52933 48.76 3.57933 50.04 4.45933C51.89 5.72933 53.91 6.68933 56.08 7.29933C56.5 7.41933 56.76 7.67933 56.77 8.10933C56.79 9.40933 56.79 10.7193 56.79 12.0193C56.79 12.3193 56.6199 12.4593 56.32 12.4193C56.01 12.3793 55.69 12.3693 55.4 12.2693C54.52 11.9693 53.65 11.6293 52.7799 11.2993C52.3899 11.1493 52.2799 11.1993 52.2299 11.6293C52.15 12.3093 52.13 12.3593 51.43 12.3693C49.99 12.3993 48.5399 12.3893 47.0999 12.4093C46.4499 12.4093 46.3599 12.5093 46.3499 13.1493C46.3499 13.5493 46.3699 13.9393 46.3699 14.3393C46.3699 14.7293 46.58 14.8993 46.95 14.9093C47.86 14.9193 48.7599 14.9493 49.6699 14.9493C50.8999 14.9493 52.1299 14.9393 53.3699 14.9293C53.5499 14.9293 53.7399 14.9293 53.9199 14.9393C54.5199 14.9893 54.59 15.0693 54.59 15.6693C54.59 16.4593 54.5899 17.2593 54.6199 18.0493C54.6399 18.7893 54.5499 18.9293 53.7999 18.9593C52.9 18.9993 51.99 18.9593 51.08 18.9693C49.71 18.9693 48.33 18.9893 46.9599 19.0093C46.4099 19.0093 46.32 19.1093 46.33 19.6693C46.33 20.3093 46.3699 20.9393 46.3899 21.5793C46.3899 21.8993 46.5699 22.0393 46.8699 22.0593C47.1199 22.0693 47.38 22.0793 47.63 22.0793C50.15 22.0793 52.6699 22.0893 55.1899 22.1093C55.8799 22.1093 55.92 22.2093 55.91 22.8893C55.8899 23.8093 55.91 24.7293 55.91 25.6493C55.91 26.2193 55.8499 26.2893 55.2799 26.2993C51.7699 26.2993 48.26 26.2993 44.74 26.2993C44.37 26.2993 43.9999 26.2993 43.6399 26.2993L43.63 26.3293ZM47.13 8.48933C47.13 8.48933 47.1799 8.40933 47.2099 8.35933C47.07 8.18933 46.9499 8.00933 46.7999 7.85933C45.9399 7.01933 45.08 6.17933 44.22 5.33933C43.98 5.09933 43.78 5.17933 43.56 5.36933C42.56 6.23933 41.54 7.09933 40.54 7.97933C40.4 8.09933 40.3 8.25933 40.11 8.48933H47.13Z" fill="black"/>
<path d="M69.3099 16.1291C69.3099 13.0091 69.3099 9.89914 69.3099 6.77914C69.3099 6.01914 69.3099 6.01914 70.0899 6.01914C71.3799 6.01914 72.6699 6.02914 73.9599 6.03914C74.1199 6.03914 74.2699 6.03914 74.4299 6.03914C75.1299 6.00914 75.2399 5.90914 75.2399 5.20914C75.2399 3.88914 75.2399 2.57914 75.2399 1.25914C75.2399 0.649141 75.2999 0.619141 75.9099 0.619141C76.9299 0.619141 77.9499 0.619141 78.9699 0.619141C79.5699 0.619141 79.6799 0.739141 79.6899 1.34914C79.6999 2.71914 79.7199 4.09914 79.7399 5.46914C79.7399 5.94914 79.8199 6.02914 80.3199 6.02914C81.8599 6.02914 83.4099 6.02914 84.9499 6.03914C85.8199 6.03914 85.8299 6.07914 85.8299 6.92914C85.8299 12.1291 85.8299 17.3291 85.8399 22.5291C85.8399 22.9991 85.8399 23.4691 85.7899 23.9291C85.6399 25.3091 84.6399 26.2791 83.2499 26.3791C82.3499 26.4391 81.4399 26.4391 80.5299 26.4391C77.0599 26.4391 73.5899 26.4191 70.1199 26.4091C69.3699 26.4091 69.3399 26.3691 69.3399 25.6091C69.3399 22.4491 69.3399 19.2891 69.3399 16.1291C69.3399 16.1291 69.3299 16.1291 69.3199 16.1291H69.3099ZM81.4799 20.0091C81.4799 20.0091 81.4799 20.0091 81.4899 20.0091C81.4899 19.4691 81.4999 18.9391 81.4899 18.3991C81.4799 17.9191 81.1999 17.7091 80.6599 17.7191C79.9599 17.7391 79.7199 17.8991 79.7199 18.4091C79.7199 19.4591 79.7399 20.4991 79.7699 21.5491C79.7899 22.0991 79.9199 22.1991 80.4799 22.1991C80.6099 22.1991 80.7299 22.1991 80.8599 22.1691C81.3299 22.1091 81.4799 21.9491 81.4799 21.4791C81.4799 20.9891 81.4799 20.4891 81.4799 19.9991V20.0091ZM73.6199 19.9791C73.6199 19.9791 73.6499 19.9791 73.6599 19.9791C73.6599 20.5291 73.6599 21.0791 73.6599 21.6391C73.6599 22.0991 73.9799 22.1891 74.3499 22.1991C74.8799 22.2291 75.1599 22.0791 75.1699 21.6891C75.2099 20.5691 75.2199 19.4591 75.1999 18.3391C75.1999 17.8991 74.8799 17.7091 74.3899 17.7291C73.8399 17.7491 73.6199 17.9191 73.6099 18.3991C73.5899 18.9191 73.6099 19.4491 73.6099 19.9691L73.6199 19.9791ZM81.4899 11.8691C81.4899 11.5691 81.4899 11.2791 81.4899 10.9791C81.4899 10.2691 81.3599 10.1391 80.6499 10.1191C80.5399 10.1191 80.4199 10.1191 80.3099 10.1391C79.8399 10.1891 79.7199 10.3191 79.7099 10.7891C79.7099 11.3991 79.7099 12.0091 79.7099 12.6191C79.7099 13.6691 79.8299 13.7791 80.8599 13.6791C81.2899 13.6391 81.4699 13.4591 81.4799 13.0291C81.4899 12.6491 81.4799 12.2691 81.4799 11.8791L81.4899 11.8691ZM73.6199 11.8691C73.6199 12.0691 73.6199 12.2691 73.6199 12.4591C73.6199 12.6691 73.6099 12.8791 73.6199 13.0891C73.6599 13.5491 73.8399 13.6791 74.4199 13.6791C75.0099 13.6791 75.1999 13.5691 75.2199 13.0991C75.2499 12.2991 75.2399 11.4891 75.2099 10.6891C75.1899 10.2291 74.9599 10.0791 74.4599 10.0891C73.8799 10.1091 73.6399 10.2891 73.6199 10.7591C73.6099 11.1291 73.6199 11.4891 73.6199 11.8591V11.8691Z" fill="black"/>
<path d="M14.2299 12.959C18.0499 12.959 21.8799 12.959 25.6999 12.959C26.4499 12.959 26.5699 13.069 26.5799 13.809C26.5799 14.589 26.5899 15.369 26.5899 16.149C26.5899 16.809 26.4899 16.939 25.8299 16.939C24.1999 16.959 22.5699 16.959 20.9399 16.969C20.2799 16.969 20.1399 17.109 20.1399 17.769C20.1399 18.899 20.1399 20.039 20.1399 21.169C20.1399 21.529 20.2599 21.809 20.6499 21.799C22.2199 21.789 23.7899 21.789 25.3499 21.709C25.7499 21.689 26.1399 21.429 26.5399 21.279C26.9799 21.109 27.0899 21.199 27.0899 21.669C27.0899 22.579 27.0699 23.479 27.1099 24.389C27.1599 25.559 26.9199 26.069 25.4699 26.369C24.7999 26.509 24.0899 26.529 23.3999 26.529C21.5799 26.509 19.7499 26.469 17.9299 26.389C17.2299 26.359 16.6399 26.009 16.1199 25.539C15.4999 24.969 15.3699 24.219 15.3599 23.449C15.3299 21.739 15.3399 20.019 15.3399 18.309C15.3399 18.069 15.3399 17.829 15.3399 17.589C15.3399 17.229 15.1599 16.999 14.8199 16.989C14.2099 16.969 13.5999 16.979 12.9999 17.019C12.5499 17.049 12.5499 17.439 12.4899 17.779C12.3199 18.769 12.1899 19.769 11.9199 20.729C11.5699 22.009 10.6999 22.979 9.78994 23.909C7.54994 26.229 4.72994 26.889 1.64994 26.809C1.30994 26.809 1.13994 26.649 1.13994 26.279C1.13994 25.229 1.12994 24.179 1.13994 23.129C1.13994 22.429 1.29994 22.289 1.99994 22.259C3.17994 22.189 4.35994 22.089 5.37994 21.409C6.45994 20.699 7.22994 19.759 7.50994 18.459C7.56994 18.179 7.64994 17.909 7.69994 17.629C7.79994 17.119 7.69994 16.979 7.16994 16.959C6.40994 16.939 5.63994 16.939 4.87994 16.939C4.15994 16.939 3.43994 16.959 2.70994 16.959C2.11994 16.959 1.98994 16.839 1.97994 16.279C1.96994 15.369 1.96994 14.469 1.97994 13.559C1.97994 12.999 2.03994 12.969 2.60994 12.969C6.47994 12.969 10.3399 12.969 14.2099 12.969L14.2299 12.959Z" fill="black"/>
<path d="M126.96 9.39983C124.99 9.39983 123.02 9.39983 121.06 9.39983C120.85 9.39983 120.62 9.41984 120.43 9.35983C120.3 9.30983 120.12 9.13983 120.11 9.00983C120.07 7.85983 120.08 6.71983 120.06 5.56983C120.06 5.22983 120.27 5.17983 120.53 5.17983C121.61 5.15983 122.68 5.12983 123.76 5.12983C126.63 5.12983 129.51 5.14983 132.38 5.15983C133.32 5.15983 133.35 5.09983 133.19 4.15983C133.03 3.19983 132.93 2.22983 132.81 1.25983C132.77 0.929834 132.86 0.719834 133.26 0.729834C134.52 0.749834 135.78 0.729834 137.04 0.749834C137.78 0.749834 137.85 0.839834 137.92 1.57983C138.01 2.51983 138.11 3.46983 138.23 4.40983C138.32 5.09983 138.43 5.18983 139.14 5.17983C140.51 5.16983 141.89 5.13983 143.26 5.12983C143.83 5.12983 144.39 5.14983 144.96 5.12983C145.35 5.12983 145.48 5.29983 145.48 5.66983C145.48 6.62983 145.49 7.59983 145.5 8.55983C145.51 9.27983 145.41 9.40983 144.69 9.40983C143.19 9.40983 141.69 9.40983 140.19 9.40983C139.92 9.40983 139.65 9.40983 139.38 9.43983C139.06 9.45984 138.93 9.61983 139 9.95984C139.38 11.7198 139.71 13.4798 140.14 15.2198C140.54 16.8098 141.04 18.3698 141.8 19.8398C142.47 21.1298 143.48 21.7698 144.95 21.6998C145.57 21.6698 145.64 21.7398 145.65 22.3598C145.66 23.5098 145.68 24.6498 145.67 25.7998C145.67 26.5798 145.53 26.7098 144.77 26.6498C143.73 26.5698 142.67 26.5398 141.65 26.3098C139.73 25.8898 138.51 24.5298 137.57 22.8998C136.72 21.4098 136.26 19.7698 135.88 18.1198C135.64 17.0698 135.33 16.0398 135.11 14.9898C134.78 13.3998 134.49 11.7998 134.19 10.1998C134.08 9.63983 133.88 9.43983 133.26 9.42983C131.16 9.41983 129.07 9.42983 126.97 9.42983C126.97 9.42983 126.97 9.41984 126.97 9.40983L126.96 9.39983Z" fill="black"/>
<path d="M105.97 26.2796C102.81 26.2796 99.65 26.2796 96.5 26.2796C95.76 26.2796 95.6999 26.2096 95.6999 25.4796C95.6999 24.5896 95.6999 23.6996 95.6999 22.7996C95.6899 22.1496 95.74 22.0596 96.41 22.0596C98.11 22.0496 99.81 22.0596 101.51 22.0596C101.88 22.0596 102.25 22.0796 102.61 22.0596C103.16 22.0396 103.28 21.9196 103.3 21.3696C103.32 20.7996 103.3 20.2396 103.3 19.6696C103.3 18.8796 103.3 18.0796 103.3 17.2896C103.29 16.4396 103.18 16.3296 102.34 16.3196C100.94 16.2996 99.5399 16.2896 98.1299 16.3096C97.7199 16.3096 97.57 16.1996 97.58 15.7896C97.6 14.8796 97.58 13.9796 97.58 13.0696C97.58 12.1996 97.65 12.1396 98.54 12.1296C99.87 12.1196 101.2 12.1296 102.53 12.1296C103.3 12.1296 103.35 12.0496 103.33 11.2596C103.3 9.96961 103.31 8.67961 103.3 7.38961C103.3 7.04961 103.41 6.84961 103.78 6.84961C105.11 6.84961 106.44 6.85961 107.77 6.86961C108.09 6.86961 108.16 7.04961 108.16 7.33961C108.16 8.75961 108.18 10.1696 108.18 11.5896C108.18 11.9996 108.35 12.1196 108.75 12.1196C110.66 12.1196 112.57 12.1496 114.48 12.1496C114.89 12.1496 115.07 12.2896 115.07 12.7096C115.07 13.6896 115.1 14.6596 115.1 15.6396C115.1 16.2196 115.01 16.3096 114.43 16.3196C112.63 16.3296 110.83 16.3296 109.04 16.3196C108.3 16.3196 108.16 16.4296 108.16 17.1596C108.16 18.5096 108.18 19.8496 108.2 21.1996C108.21 22.0396 108.26 22.0496 109.07 22.0496C111.11 22.0496 113.15 22.0496 115.19 22.0696C116.3 22.0796 116.3 22.1096 116.28 23.1996C116.27 23.9596 116.28 24.7296 116.26 25.4896C116.24 26.2096 116.17 26.2796 115.47 26.2796C112.31 26.2796 109.15 26.2796 106 26.2796H105.97Z" fill="black"/>
<path d="M14.3199 11.579C11.2899 11.579 8.25993 11.579 5.22993 11.579C4.27993 11.579 4.27993 11.549 4.30993 10.579C4.30993 10.239 4.33993 9.89901 4.30993 9.55901C4.25993 8.84901 3.83993 8.55901 3.14993 8.74901C3.00993 8.78901 2.87993 8.82901 2.73993 8.84901C2.24993 8.91901 2.00993 8.75901 1.94993 8.25901C1.90993 7.89901 1.88993 7.52901 1.88993 7.15901C1.87993 5.82901 1.86993 4.49901 1.86993 3.16901C1.86993 2.40901 1.91993 2.37901 2.65993 2.37901C5.35993 2.37901 8.06993 2.37901 10.7699 2.37901C10.9299 2.37901 11.0799 2.37901 11.2399 2.35901C11.6899 2.29901 11.8599 2.13901 11.8099 1.68901C11.7199 0.909006 11.8999 0.879006 12.5599 0.869006C13.7499 0.839006 14.9399 0.849006 16.1299 0.889006C16.7199 0.909006 17.0199 0.919006 16.9499 1.73901C16.9099 2.19901 17.0699 2.33901 17.5499 2.34901C20.1699 2.36901 22.7899 2.38901 25.4099 2.40901C25.8299 2.40901 26.2599 2.41901 26.6799 2.44901C26.9799 2.46901 27.1299 2.62901 27.1399 2.93901C27.1499 4.62901 27.1799 6.30901 27.1799 7.99901C27.1799 8.58901 26.9799 8.78901 26.3899 8.81901C25.9199 8.83901 25.4599 8.81901 24.9899 8.82901C24.4999 8.82901 24.3399 8.96901 24.3199 9.44901C24.2999 9.91901 24.3299 10.379 24.3399 10.849C24.3499 11.469 24.2699 11.589 23.6599 11.589C20.9999 11.619 18.3399 11.619 15.6799 11.639C15.2299 11.639 14.7699 11.639 14.3199 11.639C14.3199 11.629 14.3199 11.609 14.3199 11.599V11.579ZM14.2299 6.46901C14.2299 6.46901 14.2299 6.50901 14.2299 6.51901C11.9099 6.51901 9.58993 6.51901 7.26993 6.51901C6.71993 6.51901 6.55993 6.70901 6.55993 7.18901C6.55993 7.66901 6.70993 7.81901 7.27993 7.85901C7.41993 7.86901 7.55993 7.87901 7.69993 7.87901C11.9899 7.87901 16.2699 7.87901 20.5599 7.87901C20.8299 7.87901 21.0999 7.87901 21.3699 7.85901C21.8299 7.81901 21.9999 7.62901 21.9999 7.16901C21.9999 6.74901 21.8299 6.54901 21.3999 6.49901C21.0499 6.45901 20.6899 6.43901 20.3399 6.43901C18.2999 6.43901 16.2699 6.43901 14.2299 6.43901V6.46901Z" fill="black"/>
<path d="M103.66 1.44922C107.43 1.44922 111.19 1.44922 114.96 1.44922C116.04 1.44922 116.07 1.48922 116.07 2.56922C116.07 3.44922 116.07 4.32922 116.07 5.20922C116.07 5.88922 116.02 5.95922 115.36 5.95922C113.02 5.97922 110.69 5.97922 108.35 5.97922C104.61 5.97922 100.87 5.97922 97.1299 5.97922C96.0499 5.97922 95.9999 6.03922 95.9999 7.09922C95.9999 9.72922 95.9899 12.3692 95.9799 14.9992C95.9799 16.9092 95.9599 18.8292 95.4799 20.6992C94.8099 23.2992 93.0699 24.9492 90.6299 25.9392C90.5299 25.9792 90.4099 25.9992 90.2999 26.0292C89.9399 26.1292 89.7499 25.9892 89.7499 25.6192C89.7499 24.9692 89.7499 24.3192 89.7299 23.6692C89.7299 22.8592 89.6799 22.0492 89.7099 21.2492C89.7199 20.8992 89.7799 20.4592 89.9999 20.2192C90.9799 19.1592 91.2999 17.8792 91.3299 16.5092C91.3699 14.3892 91.3699 12.2592 91.3799 10.1392C91.3799 7.57922 91.3699 5.00922 91.3699 2.44922C91.3699 1.43922 91.3699 1.45922 92.3899 1.45922C96.1399 1.45922 99.8999 1.45922 103.65 1.45922C103.65 1.45922 103.65 1.45922 103.65 1.46922L103.66 1.44922Z" fill="black"/>
<path d="M126.9 12.0696C128.87 12.0696 130.84 12.0696 132.81 12.0696C133.32 12.0696 133.41 12.1496 133.42 12.6496C133.44 13.7096 133.46 14.7696 133.45 15.8396C133.45 16.4596 133.38 16.4996 132.79 16.5096C131.81 16.5296 130.84 16.5296 129.86 16.5596C129.24 16.5796 129.13 16.6896 129.13 17.2896C129.13 18.3896 129.12 19.4996 129.13 20.5996C129.13 21.1796 129.25 21.2796 129.83 21.2096C130.86 21.0896 131.88 20.9396 132.9 20.8096C133.53 20.7296 133.59 20.7796 133.59 21.4196C133.59 22.3296 133.6 23.2296 133.6 24.1396C133.6 24.8896 133.52 24.9996 132.79 25.0996C128.86 25.6396 124.94 26.1696 121.01 26.6996C120.86 26.7196 120.7 26.7396 120.55 26.7496C120.26 26.7696 120.1 26.6396 120.1 26.3296C120.1 25.0296 120.1 23.7196 120.08 22.4196C120.08 22.0296 120.3 21.9496 120.62 21.9296C121.6 21.8896 122.57 21.8596 123.55 21.7896C124.39 21.7296 124.41 21.6796 124.4 20.8296C124.38 19.6096 124.34 18.3896 124.34 17.1796C124.34 16.7396 124.16 16.5496 123.74 16.5396C122.86 16.5396 121.98 16.5396 121.11 16.5396C120.48 16.5396 120.35 16.4196 120.33 15.7596C120.31 14.7396 120.31 13.7196 120.32 12.6996C120.32 12.1896 120.41 12.0996 120.92 12.0896C122.83 12.0696 124.74 12.0696 126.66 12.0596C126.74 12.0596 126.83 12.0596 126.91 12.0596L126.9 12.0696Z" fill="black"/>
<path d="M60.61 24.2889C60.61 23.6289 60.57 22.9589 60.63 22.2989C60.65 22.0189 60.8 21.6489 61.02 21.5089C63 20.1789 63.54 18.1189 63.91 15.9689C64.01 15.3689 64.05 14.7589 64.1 14.1489C64.12 13.8389 64.25 13.6789 64.57 13.6889C65.73 13.6889 66.89 13.6889 68.05 13.6989C68.4 13.6989 68.55 13.8789 68.55 14.2289C68.51 16.7989 68.19 19.3189 67.15 21.6889C66.34 23.5489 64.93 24.8789 63.18 25.8489C62.55 26.1989 61.89 26.4889 61.22 26.7489C60.75 26.9289 60.6 26.7889 60.6 26.2789C60.6 25.6089 60.6 24.9489 60.6 24.2789H60.61V24.2889Z" fill="black"/>
<path d="M68.5899 4.55925C68.5899 5.16925 68.6099 5.77925 68.5899 6.38925C68.5699 6.81925 68.3799 6.92924 67.9599 6.82925C66.5199 6.47925 65.0799 6.11925 63.6299 5.77925C63.1199 5.65925 62.5999 5.59925 62.0799 5.52925C61.6599 5.46925 61.4399 5.23925 61.4299 4.82925C61.4099 3.63925 61.4099 2.44925 61.4099 1.25925C61.4099 0.899245 61.6599 0.899245 61.9199 0.949245C62.6399 1.09925 63.3599 1.25925 64.0799 1.40925C65.3399 1.67925 66.5999 1.93925 67.8599 2.20925C68.5099 2.34925 68.5899 2.42925 68.5899 3.07925C68.5899 3.57925 68.5899 4.06925 68.5899 4.56925V4.55925Z" fill="black"/>
<path d="M68.5699 10.7695C68.5699 11.2795 68.5699 11.7895 68.5699 12.2995C68.5699 12.7595 68.4799 12.8395 68.0399 12.7495C67.1999 12.5795 66.3599 12.3595 65.5199 12.1895C64.3199 11.9395 63.1099 11.6995 61.9099 11.4595C61.6399 11.4095 61.4499 11.2995 61.4499 11.0095C61.4499 9.84948 61.4499 8.68948 61.4399 7.52948C61.4399 7.14948 61.6199 7.02948 61.9799 7.10948C63.7599 7.47948 65.5499 7.83948 67.3299 8.20948C67.4999 8.23948 67.6599 8.28948 67.8199 8.34948C68.4999 8.56948 68.5699 8.66948 68.5699 9.37948C68.5699 9.61948 68.5699 9.85948 68.5699 10.0995C68.5699 10.3295 68.5699 10.5495 68.5699 10.7795V10.7695Z" fill="black"/>
<path d="M142.93 4.45949C142.32 4.45949 141.71 4.47949 141.1 4.45949C140.53 4.43949 140.38 4.26949 140.2 3.72949C139.95 3.00949 139.67 2.29949 139.4 1.57949C139.36 1.46949 139.32 1.36949 139.29 1.25949C139.2 0.849492 139.29 0.729492 139.69 0.729492C140.85 0.729492 142.01 0.729492 143.17 0.729492C143.53 0.729492 143.81 0.869492 143.96 1.20949C144.34 2.10949 144.72 3.00949 145.07 3.91949C145.19 4.22949 145.11 4.43949 144.71 4.42949C144.12 4.40949 143.52 4.42949 142.93 4.42949C142.93 4.43949 142.93 4.44949 142.93 4.46949V4.45949Z" fill="black"/>
<path d="M47.13 8.49929H40.11C40.3 8.26929 40.4 8.10929 40.54 7.98929C41.54 7.11929 42.56 6.25929 43.56 5.37929C43.78 5.18929 43.98 5.09929 44.22 5.34929C45.08 6.18929 45.94 7.02929 46.8 7.86929C46.95 8.01929 47.07 8.20929 47.21 8.36929C47.18 8.40929 47.16 8.44929 47.13 8.49929Z" fill="white"/>
<path d="M81.4799 20.0098C81.4799 20.4998 81.4799 20.9998 81.4799 21.4898C81.4799 21.9598 81.3199 22.1198 80.8599 22.1798C80.7299 22.1998 80.6099 22.2098 80.4799 22.2098C79.9299 22.2098 79.7899 22.0998 79.7699 21.5598C79.7399 20.5198 79.7199 19.4698 79.7199 18.4198C79.7199 17.8998 79.9599 17.7398 80.6599 17.7298C81.1999 17.7198 81.4799 17.9298 81.4899 18.4098C81.5099 18.9498 81.4899 19.4798 81.4899 20.0198C81.4899 20.0198 81.4899 20.0198 81.4799 20.0198V20.0098Z" fill="white"/>
<path d="M73.6099 19.9797C73.6099 19.4597 73.5999 18.9297 73.6099 18.4097C73.6299 17.9297 73.8399 17.7597 74.3899 17.7397C74.8799 17.7197 75.1899 17.9097 75.1999 18.3497C75.2199 19.4697 75.1999 20.5797 75.1699 21.6997C75.1599 22.0897 74.8699 22.2297 74.3499 22.2097C73.9799 22.1897 73.6599 22.1097 73.6599 21.6497C73.6599 21.0997 73.6599 20.5497 73.6599 19.9897C73.6499 19.9897 73.6299 19.9897 73.6199 19.9897L73.6099 19.9797Z" fill="white"/>
<path d="M81.4899 11.8694C81.4899 12.2494 81.4899 12.6294 81.4899 13.0194C81.4799 13.4494 81.2999 13.6294 80.8699 13.6694C79.8399 13.7794 79.7199 13.6694 79.7199 12.6094C79.7199 11.9994 79.7199 11.3894 79.7199 10.7794C79.7199 10.3094 79.8399 10.1894 80.3199 10.1294C80.4299 10.1194 80.5499 10.1094 80.6599 10.1094C81.3599 10.1294 81.4899 10.2594 81.4999 10.9694C81.4999 11.2694 81.4999 11.5594 81.4999 11.8594L81.4899 11.8694Z" fill="white"/>
<path d="M73.6199 11.8691C73.6199 11.4991 73.6099 11.1391 73.6199 10.7691C73.6399 10.2991 73.8699 10.1191 74.4599 10.0991C74.9599 10.0891 75.1899 10.2391 75.2099 10.6991C75.2399 11.4991 75.2499 12.3091 75.2199 13.1091C75.2099 13.5691 75.0099 13.6891 74.4199 13.6891C73.8399 13.6891 73.6699 13.5691 73.6199 13.0991C73.5999 12.8891 73.6199 12.6791 73.6199 12.4691C73.6199 12.2691 73.6199 12.0691 73.6199 11.8791V11.8691Z" fill="white"/>
<path d="M14.2399 6.46973C16.2799 6.46973 18.3099 6.46973 20.3499 6.46973C20.6999 6.46973 21.0599 6.48973 21.4099 6.52973C21.8399 6.56973 22.0099 6.76973 22.0099 7.19973C22.0099 7.64973 21.8399 7.84973 21.3799 7.88973C21.1099 7.90973 20.8399 7.90973 20.5699 7.90973C16.2799 7.90973 11.9999 7.90973 7.70995 7.90973C7.56995 7.90973 7.42995 7.89973 7.28995 7.88973C6.71995 7.83973 6.56995 7.69973 6.56995 7.21973C6.56995 6.73973 6.72995 6.54973 7.27995 6.54973C9.59995 6.53973 14.2399 6.50973 14.2399 6.48973V6.46973Z" fill="white"/>
</g>
<defs>
<clipPath id="clip0_16_748">
<rect width="274.7" height="83.02" fill="white" transform="translate(0 0.609375)"/>
</clipPath>
<clipPath id="clip1_16_748">
<rect width="274.7" height="45.62" fill="white" transform="translate(0 37.6094)"/>
</clipPath>
</defs>
</svg>
